SplineFontDB: 3.2
FontName: Tamil5
FullName: Tamil5
FamilyName: Tamil5
Weight: Thin
Copyright: Copyright 2020 The Catamaran Project Authors (https://github.com/VanillaandCream/Catamaran-Tamil)
Version: 1.000
ItalicAngle: 0
UnderlinePosition: -150
UnderlineWidth: 50
Ascent: 800
Descent: 200
InvalidEm: 0
sfntRevision: 0x00020000
LayerCount: 2
Layer: 0 1 "Back" 1
Layer: 1 1 "Fore" 0
XUID: [1021 467 -1121320856 8563389]
StyleMap: 0x0040
FSType: 0
OS2Version: 4
OS2_WeightWidthSlopeOnly: 0
OS2_UseTypoMetrics: 1
CreationTime: 1427313689
ModificationTime: 1638761983
PfmFamily: 81
TTFWeight: 100
TTFWidth: 5
LineGap: 0
VLineGap: 0
Panose: 0 0 0 0 0 0 0 0 0 0
OS2TypoAscent: 1100
OS2TypoAOffset: 0
OS2TypoDescent: -540
OS2TypoDOffset: 0
OS2TypoLinegap: 0
OS2WinAscent: 1100
OS2WinAOffset: 0
OS2WinDescent: 540
OS2WinDOffset: 0
HheadAscent: 1100
HheadAOffset: 0
HheadDescent: -540
HheadDOffset: 0
OS2SubXSize: 650
OS2SubYSize: 600
OS2SubXOff: 0
OS2SubYOff: 75
OS2SupXSize: 650
OS2SupYSize: 600
OS2SupXOff: 0
OS2SupYOff: 350
OS2StrikeYSize: 50
OS2StrikeYPos: 291
OS2CapHeight: 680
OS2XHeight: 485
OS2Vendor: 'PYRS'
OS2CodePages: 20000093.00000000
OS2UnicodeRanges: 801000af.5000204b.00000000.00000000
Lookup: 4 0 0 "'psts' Post Base Substitutions lookup 0" { "'psts' Post Base Substitutions lookup 0 subtable"  } ['akhn' ('taml' <'dflt' > 'tml2' <'dflt' > ) 'psts' ('taml' <'dflt' > 'tml2' <'dflt' > ) ]
Lookup: 4 0 0 "'abvs' Above Base Substitutions lookup 1" { "'abvs' Above Base Substitutions lookup 1 subtable"  } ['abvs' ('taml' <'dflt' > 'tml2' <'dflt' > ) ]
Lookup: 4 0 0 "'psts' Post Base Substitutions lookup 2" { "'psts' Post Base Substitutions lookup 2 subtable"  } ['psts' ('taml' <'dflt' > 'tml2' <'dflt' > ) ]
Lookup: 4 0 0 "'psts' Post Base Substitutions lookup 3" { "'psts' Post Base Substitutions lookup 3 subtable"  } ['psts' ('taml' <'dflt' > 'tml2' <'dflt' > ) ]

StartChar: A
Encoding: 65 65 4
Width: 1055
Flags: W
LayerCount: 2
Fore
SplineSet
955 -126 m 1,0,-1
 955 513 l 1,1,-1
 911 513 l 1,2,-1
 911 -126 l 1,3,-1
 955 -126 l 1,0,-1
471 531 m 0,4,5
 405 531 405 531 353 505 c 128,-1,6
 301 479 301 479 271 434.5 c 128,-1,7
 241 390 241 390 241 332 c 0,8,9
 241 283 241 283 274.5 250 c 128,-1,10
 308 217 308 217 360 216 c 0,11,12
 414 215 414 215 449 247 c 128,-1,13
 484 279 484 279 485 329 c 0,14,15
 486 377 486 377 450.5 409 c 128,-1,16
 415 441 415 441 361 441 c 0,17,18
 332 441 332 441 307 426.5 c 128,-1,19
 282 412 282 412 267.5 387 c 128,-1,20
 253 362 253 362 253 329 c 1,21,-1
 280 329 l 1,22,23
 280 362 280 362 303.5 383 c 128,-1,24
 327 404 327 404 361 404 c 0,25,26
 396 404 396 404 418.5 383 c 128,-1,27
 441 362 441 362 441 329 c 0,28,29
 441 295 441 295 418 274 c 128,-1,30
 395 253 395 253 360 254 c 0,31,32
 326 256 326 256 303 277 c 128,-1,33
 280 298 280 298 280 329 c 0,34,35
 280 378 280 378 304.5 413.5 c 128,-1,36
 329 449 329 449 372.5 469 c 128,-1,37
 416 489 416 489 471 489 c 0,38,39
 542 489 542 489 592 456 c 128,-1,40
 642 423 642 423 669 364.5 c 128,-1,41
 696 306 696 306 696 230 c 0,42,43
 696 133 696 133 648.5 58 c 128,-1,44
 601 -17 601 -17 518 -59.5 c 128,-1,45
 435 -102 435 -102 327 -102 c 0,46,47
 257 -102 257 -102 203 -85 c 128,-1,48
 149 -68 149 -68 118.5 -38 c 128,-1,49
 88 -8 88 -8 88 32 c 0,50,51
 88 58 88 58 102 74 c 128,-1,52
 116 90 116 90 150 90 c 2,53,-1
 911 90 l 1,54,-1
 911 125 l 1,55,-1
 146 125 l 2,56,57
 94 125 94 125 67 99 c 128,-1,58
 40 73 40 73 40 32 c 0,59,60
 40 -18 40 -18 77 -58 c 128,-1,61
 114 -98 114 -98 179 -121 c 128,-1,62
 244 -144 244 -144 327 -144 c 0,63,64
 418 -144 418 -144 494 -116.5 c 128,-1,65
 570 -89 570 -89 626 -38.5 c 128,-1,66
 682 12 682 12 713 80.5 c 128,-1,67
 744 149 744 149 744 230 c 0,68,69
 744 317 744 317 711 385 c 128,-1,70
 678 453 678 453 616.5 492 c 128,-1,71
 555 531 555 531 471 531 c 0,4,5
EndSplineSet
EndChar

StartChar: B
Encoding: 66 66 5
Width: 706
Flags: W
AnchorPoint: "Anchor-1" 347 0 basechar 0
AnchorPoint: "Anchor-0" 768 0 basechar 0
LayerCount: 2
Fore
SplineSet
351 286 m 5,0,-1
 491 141 l 5,1,-1
 512 172 l 5,2,-1
 389 302 l 5,3,-1
 512 432 l 5,4,-1
 491 463 l 5,5,-1
 351 318 l 5,6,-1
 351 286 l 5,0,-1
199 286 m 5,7,-1
 339 141 l 5,8,-1
 360 172 l 5,9,-1
 238 302 l 5,10,-1
 360 432 l 5,11,-1
 339 463 l 5,12,-1
 199 318 l 5,13,-1
 199 286 l 5,7,-1
606 513 m 1,14,-1
 606 0 l 1,15,-1
 100 0 l 1,16,-1
 100 513 l 1,17,-1
 144 518 l 1,18,-1
 144 35 l 1,19,-1
 562 35 l 1,20,-1
 562 513 l 1,21,-1
 606 513 l 1,14,-1
EndSplineSet
EndChar

StartChar: C
Encoding: 67 67 6
Width: 667
Flags: W
AnchorPoint: "Anchor-1" 387 0 basechar 0
AnchorPoint: "Anchor-0" 675 0 basechar 0
LayerCount: 2
Fore
SplineSet
246 96 m 4,0,1
 262 96 262 96 273.5 107 c 132,-1,2
 285 118 285 118 285 134 c 260,3,4
 285 150 285 150 273.5 161 c 132,-1,5
 262 172 262 172 246 172 c 4,6,7
 229 172 229 172 218.5 161 c 132,-1,8
 208 150 208 150 208 134 c 260,9,10
 208 118 208 118 218.5 107 c 132,-1,11
 229 96 229 96 246 96 c 4,0,1
453 205 m 2,12,13
 453 132 453 132 425 82 c 128,-1,14
 397 32 397 32 348 7 c 128,-1,15
 299 -18 299 -18 236 -18 c 0,16,17
 180 -18 180 -18 138 2 c 128,-1,18
 96 22 96 22 73 57 c 128,-1,19
 50 92 50 92 50 136 c 0,20,21
 50 201 50 201 96 244 c 128,-1,22
 142 287 142 287 225 287 c 2,23,-1
 622 287 l 1,24,-1
 627 252 l 1,25,-1
 226 252 l 2,26,27
 164 252 164 252 131 219 c 128,-1,28
 98 186 98 186 98 135 c 0,29,30
 98 85 98 85 134.5 54.5 c 128,-1,31
 171 24 171 24 236 24 c 0,32,33
 286 24 286 24 325 44 c 128,-1,34
 364 64 364 64 386.5 104.5 c 128,-1,35
 409 145 409 145 409 205 c 2,36,-1
 409 478 l 1,37,-1
 211 478 l 1,38,-1
 211 263 l 1,39,-1
 167 263 l 1,40,-1
 167 513 l 1,41,-1
 622 513 l 1,42,-1
 627 478 l 1,43,-1
 453 478 l 1,44,-1
 453 205 l 2,12,13
EndSplineSet
EndChar

StartChar: D
Encoding: 68 68 7
Width: 662
Flags: W
LayerCount: 2
Fore
SplineSet
321 0 m 2,0,1
 421 0 421 0 485 46.5 c 128,-1,2
 549 93 549 93 580.5 171.5 c 128,-1,3
 612 250 612 250 612 344 c 0,4,5
 612 437 612 437 583.5 513 c 128,-1,6
 555 589 555 589 492 634.5 c 128,-1,7
 429 680 429 680 324 680 c 2,8,-1
 100 680 l 1,9,-1
 100 0 l 1,10,-1
 321 0 l 2,0,1
332 641 m 2,11,12
 410 641 410 641 460.5 600 c 128,-1,13
 511 559 511 559 536 491.5 c 128,-1,14
 561 424 561 424 561 343 c 0,15,16
 561 256 561 256 531 187 c 128,-1,17
 501 118 501 118 447.5 78.5 c 128,-1,18
 394 39 394 39 322 39 c 2,19,-1
 149 39 l 1,20,-1
 149 641 l 1,21,-1
 332 641 l 2,11,12
EndSplineSet
EndChar

StartChar: E
Encoding: 69 69 8
Width: 839
Flags: W
LayerCount: 2
Fore
SplineSet
628 478 m 1,0,-1
 628 0 l 1,1,-1
 584 0 l 1,2,-1
 584 478 l 1,3,-1
 469 478 l 1,4,-1
 468 513 l 1,5,-1
 824 513 l 1,6,-1
 829 478 l 1,7,-1
 628 478 l 1,0,-1
108 237 m 0,8,9
 108 173 108 173 136 123.5 c 128,-1,10
 164 74 164 74 216 45.5 c 128,-1,11
 268 17 268 17 339 17 c 0,12,13
 392 17 392 17 426 51 c 128,-1,14
 460 85 460 85 460 137 c 0,15,16
 460 190 460 190 426 223.5 c 128,-1,17
 392 257 392 257 339 257 c 0,18,19
 287 257 287 257 252.5 224 c 128,-1,20
 218 191 218 191 218 139 c 0,21,22
 218 86 218 86 252.5 51.5 c 128,-1,23
 287 17 287 17 339 17 c 1,24,-1
 339 -8 l 1,25,26
 292 -8 292 -8 254.5 11 c 128,-1,27
 217 30 217 30 196 63 c 128,-1,28
 175 96 175 96 175 139 c 0,29,30
 175 185 175 185 196 220 c 128,-1,31
 217 255 217 255 254.5 275.5 c 128,-1,32
 292 296 292 296 339 296 c 0,33,34
 388 296 388 296 425.5 275.5 c 128,-1,35
 463 255 463 255 485 219.5 c 128,-1,36
 507 184 507 184 507 137 c 0,37,38
 507 92 507 92 485 57 c 128,-1,39
 463 22 463 22 425.5 2 c 128,-1,40
 388 -18 388 -18 339 -18 c 0,41,42
 254 -18 254 -18 191 15 c 128,-1,43
 128 48 128 48 94 105.5 c 128,-1,44
 60 163 60 163 60 237 c 0,45,46
 60 320 60 320 97 382 c 128,-1,47
 134 444 134 444 206.5 478.5 c 128,-1,48
 279 513 279 513 385 513 c 2,49,-1
 565 513 l 1,50,-1
 565 478 l 1,51,-1
 394 478 l 2,52,53
 300 478 300 478 236 448 c 128,-1,54
 172 418 172 418 140 364 c 128,-1,55
 108 310 108 310 108 237 c 0,8,9
EndSplineSet
EndChar

StartChar: F
Encoding: 70 70 9
Width: 463
Flags: W
LayerCount: 2
Fore
SplineSet
378 364 m 1,0,-1
 149 364 l 1,1,-1
 149 641 l 1,2,-1
 443 641 l 1,3,-1
 436 680 l 1,4,-1
 100 680 l 1,5,-1
 100 0 l 1,6,-1
 149 0 l 1,7,-1
 149 325 l 1,8,-1
 384 325 l 1,9,-1
 378 364 l 1,0,-1
EndSplineSet
EndChar

StartChar: G
Encoding: 71 71 10
Width: 614
Flags: W
LayerCount: 2
Fore
SplineSet
350 303 m 1,0,-1
 503 303 l 1,1,-1
 503 52 l 1,2,3
 478 43 478 43 447.5 36 c 128,-1,4
 417 29 417 29 381 29 c 0,5,6
 301 29 301 29 238.5 68.5 c 128,-1,7
 176 108 176 108 140.5 177.5 c 128,-1,8
 105 247 105 247 105 336 c 0,9,10
 105 405 105 405 126 463 c 128,-1,11
 147 521 147 521 185.5 563.5 c 128,-1,12
 224 606 224 606 276 629.5 c 128,-1,13
 328 653 328 653 390 653 c 0,14,15
 426 653 426 653 450.5 649.5 c 128,-1,16
 475 646 475 646 495 639.5 c 128,-1,17
 515 633 515 633 535 624 c 1,18,-1
 554 657 l 1,19,20
 536 670 536 670 504.5 678 c 128,-1,21
 473 686 473 686 441 690 c 128,-1,22
 409 694 409 694 388 694 c 0,23,24
 315 694 315 694 253 667.5 c 128,-1,25
 191 641 191 641 145.5 593 c 128,-1,26
 100 545 100 545 75 479.5 c 128,-1,27
 50 414 50 414 50 336 c 0,28,29
 50 237 50 237 90 157.5 c 128,-1,30
 130 78 130 78 204.5 32 c 128,-1,31
 279 -14 279 -14 382 -14 c 0,32,33
 411 -14 411 -14 443 -8 c 128,-1,34
 475 -2 475 -2 504.5 8.5 c 128,-1,35
 534 19 534 19 552 31 c 1,36,-1
 552 342 l 1,37,-1
 356 342 l 1,38,-1
 350 303 l 1,0,-1
EndSplineSet
EndChar

StartChar: H
Encoding: 72 72 11
Width: 1531
Flags: W
AnchorPoint: "Anchor-1" 1140 0 basechar 0
AnchorPoint: "Anchor-0" 1542 0 basechar 0
LayerCount: 2
Fore
SplineSet
551 0 m 1,0,-1
 551 35 l 1,1,2
 589 73 589 73 614 129 c 128,-1,3
 639 185 639 185 639 255 c 0,4,5
 639 323 639 323 607.5 376 c 128,-1,6
 576 429 576 429 517.5 459 c 128,-1,7
 459 489 459 489 379 489 c 0,8,9
 296 489 296 489 235 456.5 c 128,-1,10
 174 424 174 424 141 367 c 128,-1,11
 108 310 108 310 108 237 c 0,12,13
 108 173 108 173 136 123.5 c 128,-1,14
 164 74 164 74 216 45.5 c 128,-1,15
 268 17 268 17 339 17 c 0,16,17
 392 17 392 17 426 51 c 128,-1,18
 460 85 460 85 460 137 c 0,19,20
 460 190 460 190 426 223.5 c 128,-1,21
 392 257 392 257 339 257 c 0,22,23
 287 257 287 257 252.5 224 c 128,-1,24
 218 191 218 191 218 139 c 0,25,26
 218 86 218 86 252.5 51.5 c 128,-1,27
 287 17 287 17 339 17 c 1,28,-1
 339 -8 l 1,29,30
 292 -8 292 -8 254.5 11 c 128,-1,31
 217 30 217 30 196 63 c 128,-1,32
 175 96 175 96 175 139 c 0,33,34
 175 185 175 185 196 220 c 128,-1,35
 217 255 217 255 254.5 275.5 c 128,-1,36
 292 296 292 296 339 296 c 0,37,38
 388 296 388 296 425.5 275.5 c 128,-1,39
 463 255 463 255 485 219.5 c 128,-1,40
 507 184 507 184 507 137 c 0,41,42
 507 92 507 92 485 57 c 128,-1,43
 463 22 463 22 425.5 2 c 128,-1,44
 388 -18 388 -18 339 -18 c 0,45,46
 254 -18 254 -18 191 15 c 128,-1,47
 128 48 128 48 94 105.5 c 128,-1,48
 60 163 60 163 60 237 c 0,49,50
 60 323 60 323 99.5 389 c 128,-1,51
 139 455 139 455 210.5 493 c 128,-1,52
 282 531 282 531 379 531 c 0,53,54
 473 531 473 531 541.5 495.5 c 128,-1,55
 610 460 610 460 648 397.5 c 128,-1,56
 686 335 686 335 686 255 c 0,57,58
 686 191 686 191 666 133.5 c 128,-1,59
 646 76 646 76 612 35 c 1,60,-1
 847 35 l 1,61,-1
 847 337 l 2,62,63
 847 401 847 401 865.5 444 c 128,-1,64
 884 487 884 487 918 509 c 128,-1,65
 952 531 952 531 996 531 c 0,66,67
 1044 531 1044 531 1080 504.5 c 128,-1,68
 1116 478 1116 478 1136 433 c 1,69,70
 1156 481 1156 481 1193.5 506 c 128,-1,71
 1231 531 1231 531 1273 531 c 0,72,73
 1340 531 1340 531 1384 492.5 c 128,-1,74
 1428 454 1428 454 1449.5 386 c 128,-1,75
 1471 318 1471 318 1471 231 c 0,76,77
 1471 116 1471 116 1439.5 27 c 128,-1,78
 1408 -62 1408 -62 1338.5 -113 c 128,-1,79
 1269 -164 1269 -164 1153 -164 c 2,80,-1
 259 -164 l 2,81,82
 201 -164 201 -164 158.5 -186 c 128,-1,83
 116 -208 116 -208 94 -243 c 1,84,-1
 60 -222 l 1,85,86
 84 -181 84 -181 138 -155 c 128,-1,87
 192 -129 192 -129 259 -129 c 2,88,-1
 1153 -129 l 2,89,90
 1254 -129 1254 -129 1313.5 -82 c 128,-1,91
 1373 -35 1373 -35 1398.5 46.5 c 128,-1,92
 1424 128 1424 128 1424 231 c 0,93,94
 1424 307 1424 307 1408 365 c 128,-1,95
 1392 423 1392 423 1359.5 456 c 128,-1,96
 1327 489 1327 489 1277 489 c 0,97,98
 1225 489 1225 489 1193.5 452 c 128,-1,99
 1162 415 1162 415 1162 338 c 2,100,-1
 1162 0 l 1,101,-1
 1118 0 l 1,102,-1
 1118 320 l 2,103,104
 1118 369 1118 369 1103.5 407 c 128,-1,105
 1089 445 1089 445 1063 467 c 128,-1,106
 1037 489 1037 489 1000 489 c 0,107,108
 948 489 948 489 919.5 452 c 128,-1,109
 891 415 891 415 891 338 c 2,110,-1
 891 0 l 1,111,-1
 551 0 l 1,0,-1
EndSplineSet
EndChar

StartChar: I
Encoding: 73 73 12
Width: 741
Flags: W
LayerCount: 2
Fore
SplineSet
100 0 m 1,0,-1
 100 513 l 1,1,-1
 726 513 l 1,2,-1
 731 478 l 1,3,-1
 476 478 l 1,4,-1
 476 0 l 1,5,-1
 432 0 l 1,6,-1
 432 478 l 1,7,-1
 144 478 l 1,8,-1
 144 0 l 1,9,-1
 100 0 l 1,0,-1
288 199 m 256,10,11
 304 199 304 199 313.5 209 c 128,-1,12
 323 219 323 219 323 233 c 256,13,14
 323 247 323 247 312.5 257 c 128,-1,15
 302 267 302 267 288 267 c 0,16,17
 272 267 272 267 263 257 c 128,-1,18
 254 247 254 247 254 233 c 256,19,20
 254 219 254 219 263 209 c 128,-1,21
 272 199 272 199 288 199 c 256,10,11
620 199 m 0,22,23
 636 199 636 199 645.5 209 c 128,-1,24
 655 219 655 219 655 233 c 256,25,26
 655 247 655 247 644.5 257 c 128,-1,27
 634 267 634 267 620 267 c 0,28,29
 605 267 605 267 595.5 257 c 128,-1,30
 586 247 586 247 586 233 c 256,31,32
 586 219 586 219 595.5 209 c 128,-1,33
 605 199 605 199 620 199 c 0,22,23
EndSplineSet
EndChar

StartChar: J
Encoding: 74 74 13
Width: 841
Flags: W
AnchorPoint: "Anchor-1" 430 0 basechar 0
AnchorPoint: "Anchor-0" 880 0 basechar 0
LayerCount: 2
Fore
SplineSet
630.5 -112 m 4,0,1
 646.5 -112 646.5 -112 658 -101 c 132,-1,2
 669.5 -90 669.5 -90 669.5 -74 c 260,3,4
 669.5 -58 669.5 -58 658 -47 c 132,-1,5
 646.5 -36 646.5 -36 630.5 -36 c 4,6,7
 613.5 -36 613.5 -36 603 -47 c 132,-1,8
 592.5 -58 592.5 -58 592.5 -74 c 260,9,10
 592.5 -90 592.5 -90 603 -101 c 132,-1,11
 613.5 -112 613.5 -112 630.5 -112 c 4,0,1
630.5 -112 m 4,12,13
 646.5 -112 646.5 -112 658 -101 c 132,-1,14
 669.5 -90 669.5 -90 669.5 -74 c 260,15,16
 669.5 -58 669.5 -58 658 -47 c 132,-1,17
 646.5 -36 646.5 -36 630.5 -36 c 4,18,19
 613.5 -36 613.5 -36 603 -47 c 132,-1,20
 592.5 -58 592.5 -58 592.5 -74 c 260,21,22
 592.5 -90 592.5 -90 603 -101 c 132,-1,23
 613.5 -112 613.5 -112 630.5 -112 c 4,12,13
257.5 -53 m 0,24,25
 273.5 -53 273.5 -53 285 -42 c 128,-1,26
 296.5 -31 296.5 -31 296.5 -15 c 256,27,28
 296.5 1 296.5 1 285 12 c 128,-1,29
 273.5 23 273.5 23 257.5 23 c 0,30,31
 240.5 23 240.5 23 230 12 c 128,-1,32
 219.5 1 219.5 1 219.5 -15 c 256,33,34
 219.5 -31 219.5 -31 230 -42 c 128,-1,35
 240.5 -53 240.5 -53 257.5 -53 c 0,24,25
257.5 -53 m 0,36,37
 273.5 -53 273.5 -53 285 -42 c 128,-1,38
 296.5 -31 296.5 -31 296.5 -15 c 256,39,40
 296.5 1 296.5 1 285 12 c 128,-1,41
 273.5 23 273.5 23 257.5 23 c 0,42,43
 240.5 23 240.5 23 230 12 c 128,-1,44
 219.5 1 219.5 1 219.5 -15 c 256,45,46
 219.5 -31 219.5 -31 230 -42 c 128,-1,47
 240.5 -53 240.5 -53 257.5 -53 c 0,36,37
599.5 318 m 0,48,49
 615.5 318 615.5 318 627 329 c 128,-1,50
 638.5 340 638.5 340 638.5 356 c 256,51,52
 638.5 372 638.5 372 627 383 c 128,-1,53
 615.5 394 615.5 394 599.5 394 c 0,54,55
 582.5 394 582.5 394 572 383 c 128,-1,56
 561.5 372 561.5 372 561.5 356 c 256,57,58
 561.5 340 561.5 340 572 329 c 128,-1,59
 582.5 318 582.5 318 599.5 318 c 0,48,49
599.5 318 m 0,60,61
 615.5 318 615.5 318 627 329 c 128,-1,62
 638.5 340 638.5 340 638.5 356 c 256,63,64
 638.5 372 638.5 372 627 383 c 128,-1,65
 615.5 394 615.5 394 599.5 394 c 0,66,67
 582.5 394 582.5 394 572 383 c 128,-1,68
 561.5 372 561.5 372 561.5 356 c 256,69,70
 561.5 340 561.5 340 572 329 c 128,-1,71
 582.5 318 582.5 318 599.5 318 c 0,60,61
463 274 m 1,72,-1
 419 274 l 1,73,-1
 419 343 l 2,74,75
 419 408 419 408 377.5 448.5 c 128,-1,76
 336 489 336 489 271 489 c 0,77,78
 219 489 219 489 183 470 c 128,-1,79
 147 451 147 451 129 417.5 c 128,-1,80
 111 384 111 384 111 339 c 0,81,82
 111 314 111 314 128 297 c 128,-1,83
 145 280 145 280 170 280 c 0,84,85
 196 280 196 280 213.5 296.5 c 128,-1,86
 231 313 231 313 232 338 c 0,87,88
 232 365 232 365 215 383 c 128,-1,89
 198 401 198 401 172 401 c 0,90,91
 145 401 145 401 127.5 383 c 128,-1,92
 110 365 110 365 111 339 c 1,93,-1
 81 338 l 1,94,95
 80 382 80 382 106.5 409.5 c 128,-1,96
 133 437 133 437 173 437 c 0,97,98
 220 437 220 437 248.5 409.5 c 128,-1,99
 277 382 277 382 275 338 c 0,100,101
 274 298 274 298 244.5 271 c 128,-1,102
 215 244 215 244 170 245 c 256,103,104
 125 246 125 246 96 273 c 128,-1,105
 67 300 67 300 67 342 c 0,106,107
 67 397 67 397 93.5 439.5 c 128,-1,108
 120 482 120 482 166 506.5 c 128,-1,109
 212 531 212 531 271 531 c 0,110,111
 317 531 317 531 351.5 515 c 128,-1,112
 386 499 386 499 411.5 472.5 c 128,-1,113
 437 446 437 446 454 412 c 1,114,-1
 454 368 l 1,115,-1
 426 368 l 1,116,-1
 426 412 l 1,117,118
 452 462 452 462 495 496.5 c 128,-1,119
 538 531 538 531 605 531 c 0,120,121
 656 531 656 531 695.5 508.5 c 128,-1,122
 735 486 735 486 758 447 c 128,-1,123
 781 408 781 408 781 358 c 0,124,125
 781 296 781 296 748.5 255 c 128,-1,126
 716 214 716 214 656 190.5 c 128,-1,127
 596 167 596 167 511 156 c 2,128,-1
 330 131 l 2,129,130
 270 123 270 123 219.5 103 c 128,-1,131
 169 83 169 83 139 50 c 128,-1,132
 109 17 109 17 108 -32 c 0,133,134
 108 -90 108 -90 141 -126.5 c 128,-1,135
 174 -163 174 -163 231 -163 c 0,136,137
 271 -163 271 -163 309.5 -139.5 c 128,-1,138
 348 -116 348 -116 387 -81.5 c 128,-1,139
 426 -47 426 -47 466 -12 c 128,-1,140
 506 23 506 23 548 46.5 c 128,-1,141
 590 70 590 70 635 70 c 0,142,143
 678 70 678 70 710.5 53 c 128,-1,144
 743 36 743 36 762 5.5 c 128,-1,145
 781 -25 781 -25 781 -64 c 0,146,147
 781 -104 781 -104 759.5 -135 c 128,-1,148
 738 -166 738 -166 699.5 -184 c 128,-1,149
 661 -202 661 -202 609 -202 c 2,150,-1
 488 -202 l 1,151,-1
 488 -167 l 1,152,-1
 609 -167 l 2,153,154
 667 -167 667 -167 700 -137.5 c 128,-1,155
 733 -108 733 -108 733 -64 c 0,156,157
 733 -23 733 -23 706 2.5 c 128,-1,158
 679 28 679 28 635 28 c 0,159,160
 603 28 603 28 571.5 11 c 128,-1,161
 540 -6 540 -6 509 -32.5 c 128,-1,162
 478 -59 478 -59 445.5 -88.5 c 128,-1,163
 413 -118 413 -118 379 -144.5 c 128,-1,164
 345 -171 345 -171 308.5 -188 c 128,-1,165
 272 -205 272 -205 231 -205 c 0,166,167
 180 -205 180 -205 141.5 -182.5 c 128,-1,168
 103 -160 103 -160 81.5 -121 c 128,-1,169
 60 -82 60 -82 60 -32 c 0,170,171
 60 29 60 29 93 69.5 c 128,-1,172
 126 110 126 110 186.5 134.5 c 128,-1,173
 247 159 247 159 330 170 c 2,174,-1
 511 194 l 2,175,176
 572 202 572 202 622 222 c 128,-1,177
 672 242 672 242 702.5 276 c 128,-1,178
 733 310 733 310 733 358 c 0,179,180
 733 417 733 417 698 453 c 128,-1,181
 663 489 663 489 605 489 c 0,182,183
 564 489 564 489 532 470.5 c 128,-1,184
 500 452 500 452 481.5 419 c 128,-1,185
 463 386 463 386 463 343 c 2,186,-1
 463 274 l 1,72,-1
EndSplineSet
EndChar

StartChar: K
Encoding: 75 75 14
Width: 723
Flags: W
AnchorPoint: "Anchor-1" 381 0 basechar 0
AnchorPoint: "Anchor-0" 680 0 basechar 0
LayerCount: 2
Fore
SplineSet
250.5 101 m 4,0,1
 266.5 101 266.5 101 278 112 c 132,-1,2
 289.5 123 289.5 123 289.5 139 c 260,3,4
 289.5 155 289.5 155 278 166 c 132,-1,5
 266.5 177 266.5 177 250.5 177 c 4,6,7
 233.5 177 233.5 177 223 166 c 132,-1,8
 212.5 155 212.5 155 212.5 139 c 260,9,10
 212.5 123 212.5 123 223 112 c 132,-1,11
 233.5 101 233.5 101 250.5 101 c 4,0,1
250.5 101 m 4,12,13
 266.5 101 266.5 101 278 112 c 132,-1,14
 289.5 123 289.5 123 289.5 139 c 260,15,16
 289.5 155 289.5 155 278 166 c 132,-1,17
 266.5 177 266.5 177 250.5 177 c 4,18,19
 233.5 177 233.5 177 223 166 c 132,-1,20
 212.5 155 212.5 155 212.5 139 c 260,21,22
 212.5 123 212.5 123 223 112 c 132,-1,23
 233.5 101 233.5 101 250.5 101 c 4,12,13
453 205 m 2,24,25
 453 132 453 132 425 82 c 128,-1,26
 397 32 397 32 348 7 c 128,-1,27
 299 -18 299 -18 236 -18 c 0,28,29
 180 -18 180 -18 138 2 c 128,-1,30
 96 22 96 22 73 57 c 128,-1,31
 50 92 50 92 50 136 c 0,32,33
 50 201 50 201 96 244 c 128,-1,34
 142 287 142 287 225 287 c 2,35,-1
 504 287 l 2,36,37
 560 287 560 287 600 268 c 128,-1,38
 640 249 640 249 661.5 216 c 128,-1,39
 683 183 683 183 683 140 c 0,40,41
 683 95 683 95 660.5 59 c 128,-1,42
 638 23 638 23 595 2.5 c 128,-1,43
 552 -18 552 -18 492 -18 c 1,44,-1
 492 17 l 1,45,46
 563 17 563 17 599 51.5 c 128,-1,47
 635 86 635 86 635 140 c 0,48,49
 635 188 635 188 602.5 220 c 128,-1,50
 570 252 570 252 505 252 c 2,51,-1
 226 252 l 2,52,53
 164 252 164 252 131 219 c 128,-1,54
 98 186 98 186 98 135 c 0,55,56
 98 85 98 85 134.5 54.5 c 128,-1,57
 171 24 171 24 236 24 c 0,58,59
 286 24 286 24 325 44 c 128,-1,60
 364 64 364 64 386.5 104.5 c 128,-1,61
 409 145 409 145 409 205 c 2,62,-1
 409 478 l 1,63,-1
 211 478 l 1,64,-1
 211 263 l 1,65,-1
 167 263 l 1,66,-1
 167 513 l 1,67,-1
 622 513 l 1,68,-1
 627 478 l 1,69,-1
 453 478 l 1,70,-1
 453 205 l 2,24,25
EndSplineSet
EndChar

StartChar: L
Encoding: 76 76 15
Width: 786
Flags: W
AnchorPoint: "Anchor-1" 482 0 basechar 0
AnchorPoint: "Anchor-0" 786 0 basechar 0
LayerCount: 2
Fore
SplineSet
416 10 m 1,0,-1
 372 4 l 1,1,-1
 372 -43 l 2,2,3
 372 -83 372 -83 381 -114.5 c 128,-1,4
 390 -146 390 -146 430 -163 c 1,5,6
 410 -213 410 -213 373 -236 c 128,-1,7
 336 -259 336 -259 291 -259 c 0,8,9
 227 -259 227 -259 198 -230 c 128,-1,10
 169 -201 169 -201 169 -153 c 1,11,-1
 125 -153 l 1,12,13
 125 -196 125 -196 143.5 -229.5 c 128,-1,14
 162 -263 162 -263 198.5 -282.5 c 128,-1,15
 235 -302 235 -302 290 -302 c 0,16,17
 329 -302 329 -302 365.5 -286 c 128,-1,18
 402 -270 402 -270 429 -240.5 c 128,-1,19
 456 -211 456 -211 468 -171 c 1,20,-1
 647 -171 l 1,21,-1
 643 -136 l 1,22,-1
 474 -136 l 2,23,24
 443 -136 443 -136 429.5 -116 c 128,-1,25
 416 -96 416 -96 416 -55 c 2,26,-1
 416 10 l 1,0,-1
144 35 m 1,27,-1
 144 518 l 1,28,-1
 100 513 l 1,29,-1
 100 0 l 1,30,-1
 537 0 l 2,31,32
 605 0 605 0 646.5 30 c 128,-1,33
 688 60 688 60 707 112 c 128,-1,34
 726 164 726 164 726 231 c 0,35,36
 726 318 726 318 702 386 c 128,-1,37
 678 454 678 454 633 492.5 c 128,-1,38
 588 531 588 531 525 531 c 0,39,40
 481 531 481 531 446 512 c 128,-1,41
 411 493 411 493 391.5 454 c 128,-1,42
 372 415 372 415 372 355 c 2,43,-1
 372 21 l 1,44,-1
 416 21 l 1,45,-1
 416 356 l 2,46,47
 416 430 416 430 448 459.5 c 128,-1,48
 480 489 480 489 528 489 c 256,49,50
 576 489 576 489 609.5 456 c 128,-1,51
 643 423 643 423 660.5 364.5 c 128,-1,52
 678 306 678 306 678 231 c 0,53,54
 678 175 678 175 665.5 130.5 c 128,-1,55
 653 86 653 86 622.5 60.5 c 128,-1,56
 592 35 592 35 537 35 c 2,57,-1
 144 35 l 1,27,-1
EndSplineSet
EndChar

StartChar: M
Encoding: 77 77 16
Width: 786
Flags: W
AnchorPoint: "Anchor-1" 454 0 basechar 0
AnchorPoint: "Anchor-0" 799 0 basechar 0
LayerCount: 2
Fore
SplineSet
544.334960938 188.405273438 m 4,0,1
 565.676757812 188.405273438 565.676757812 188.405273438 581.015625 203.591796875 c 132,-1,2
 596.354492188 218.778320312 596.354492188 218.778320312 596.354492188 240.868164062 c 260,3,4
 596.354492188 262.95703125 596.354492188 262.95703125 581.015625 278.143554688 c 132,-1,5
 565.676757812 293.330078125 565.676757812 293.330078125 544.334960938 293.330078125 c 4,6,7
 521.661132812 293.330078125 521.661132812 293.330078125 507.65625 278.143554688 c 132,-1,8
 493.651367188 262.95703125 493.651367188 262.95703125 493.651367188 240.868164062 c 260,9,10
 493.651367188 218.778320312 493.651367188 218.778320312 507.65625 203.591796875 c 132,-1,11
 521.661132812 188.405273438 521.661132812 188.405273438 544.334960938 188.405273438 c 4,0,1
544.334960938 188.405273438 m 4,12,13
 565.676757812 188.405273438 565.676757812 188.405273438 581.015625 203.591796875 c 132,-1,14
 596.354492188 218.778320312 596.354492188 218.778320312 596.354492188 240.868164062 c 260,15,16
 596.354492188 262.95703125 596.354492188 262.95703125 581.015625 278.143554688 c 132,-1,17
 565.676757812 293.330078125 565.676757812 293.330078125 544.334960938 293.330078125 c 4,18,19
 521.661132812 293.330078125 521.661132812 293.330078125 507.65625 278.143554688 c 132,-1,20
 493.651367188 262.95703125 493.651367188 262.95703125 493.651367188 240.868164062 c 260,21,22
 493.651367188 218.778320312 493.651367188 218.778320312 507.65625 203.591796875 c 132,-1,23
 521.661132812 188.405273438 521.661132812 188.405273438 544.334960938 188.405273438 c 4,12,13
144 35 m 1,24,-1
 144 518 l 1,25,-1
 100 513 l 1,26,-1
 100 0 l 1,27,-1
 537 0 l 2,28,29
 605 0 605 0 646.5 30 c 128,-1,30
 688 60 688 60 707 112 c 128,-1,31
 726 164 726 164 726 231 c 0,32,33
 726 318 726 318 702 386 c 128,-1,34
 678 454 678 454 633 492.5 c 128,-1,35
 588 531 588 531 525 531 c 0,36,37
 481 531 481 531 446 512 c 128,-1,38
 411 493 411 493 391.5 454 c 128,-1,39
 372 415 372 415 372 355 c 2,40,-1
 372 10 l 1,41,-1
 416 19 l 1,42,-1
 416 356 l 2,43,44
 416 430 416 430 448 459.5 c 128,-1,45
 480 489 480 489 528 489 c 256,46,47
 576 489 576 489 609.5 456 c 128,-1,48
 643 423 643 423 660.5 364.5 c 128,-1,49
 678 306 678 306 678 231 c 0,50,51
 678 175 678 175 665.5 130.5 c 128,-1,52
 653 86 653 86 622.5 60.5 c 128,-1,53
 592 35 592 35 537 35 c 2,54,-1
 144 35 l 1,24,-1
EndSplineSet
EndChar

StartChar: N
Encoding: 78 78 17
Width: 734
Flags: W
AnchorPoint: "Anchor-1" 361 0 basechar 0
AnchorPoint: "Anchor-0" 634 0 basechar 0
LayerCount: 2
Fore
SplineSet
503.5 93 m 4,0,1
 519.5 93 519.5 93 531 104 c 132,-1,2
 542.5 115 542.5 115 542.5 131 c 260,3,4
 542.5 147 542.5 147 531 158 c 132,-1,5
 519.5 169 519.5 169 503.5 169 c 4,6,7
 486.5 169 486.5 169 476 158 c 132,-1,8
 465.5 147 465.5 147 465.5 131 c 260,9,10
 465.5 115 465.5 115 476 104 c 132,-1,11
 486.5 93 486.5 93 503.5 93 c 4,0,1
503.5 93 m 4,12,13
 519.5 93 519.5 93 531 104 c 132,-1,14
 542.5 115 542.5 115 542.5 131 c 260,15,16
 542.5 147 542.5 147 531 158 c 132,-1,17
 519.5 169 519.5 169 503.5 169 c 4,18,19
 486.5 169 486.5 169 476 158 c 132,-1,20
 465.5 147 465.5 147 465.5 131 c 260,21,22
 465.5 115 465.5 115 476 104 c 132,-1,23
 486.5 93 486.5 93 503.5 93 c 4,12,13
514 343 m 0,24,25
 568 343 568 343 603.5 315 c 128,-1,26
 639 287 639 287 656.5 237.5 c 128,-1,27
 674 188 674 188 674 123 c 0,28,29
 674 45 674 45 643.5 -20.5 c 128,-1,30
 613 -86 613 -86 551.5 -125 c 128,-1,31
 490 -164 490 -164 397 -164 c 2,32,-1
 300 -164 l 2,33,34
 242 -164 242 -164 199 -186 c 128,-1,35
 156 -208 156 -208 134 -243 c 1,36,-1
 100 -222 l 1,37,38
 124 -181 124 -181 178.5 -155 c 128,-1,39
 233 -129 233 -129 300 -129 c 2,40,-1
 397 -129 l 2,41,42
 475 -129 475 -129 526 -94 c 128,-1,43
 577 -59 577 -59 602 -1.5 c 128,-1,44
 627 56 627 56 627 125 c 0,45,46
 627 204 627 204 599 252.5 c 128,-1,47
 571 301 571 301 511 301 c 0,48,49
 456 301 456 301 421 263 c 128,-1,50
 386 225 386 225 386 166 c 2,51,-1
 386 0 l 1,52,-1
 342 0 l 1,53,-1
 342 478 l 1,54,-1
 144 478 l 1,55,-1
 144 0 l 1,56,-1
 100 0 l 1,57,-1
 100 513 l 1,58,-1
 582 513 l 1,59,-1
 587 478 l 1,60,-1
 386 478 l 1,61,-1
 386 282 l 1,62,63
 409 311 409 311 441.5 327 c 128,-1,64
 474 343 474 343 514 343 c 0,24,25
EndSplineSet
EndChar

StartChar: O
Encoding: 79 79 18
Width: 819
Flags: W
LayerCount: 2
Fore
SplineSet
409 534 m 256,0,1
 485 534 485 534 549 515.5 c 128,-1,2
 613 497 613 497 660 463 c 128,-1,3
 707 429 707 429 733 383 c 128,-1,4
 759 337 759 337 759 282 c 0,5,6
 759 237 759 237 744 201.5 c 128,-1,7
 729 166 729 166 700.5 146 c 128,-1,8
 672 126 672 126 629 126 c 0,9,10
 594 126 594 126 566 144.5 c 128,-1,11
 538 163 538 163 522 195.5 c 128,-1,12
 506 228 506 228 506 269 c 1,13,-1
 541 269 l 1,14,15
 543 224 543 224 567.5 196 c 128,-1,16
 592 168 592 168 629 168 c 0,17,18
 673 168 673 168 692 199.5 c 128,-1,19
 711 231 711 231 711 282 c 0,20,21
 711 343 711 343 671.5 390 c 128,-1,22
 632 437 632 437 564 464 c 128,-1,23
 496 491 496 491 409 491 c 0,24,25
 321 491 321 491 252 462.5 c 128,-1,26
 183 434 183 434 143.5 384 c 128,-1,27
 104 334 104 334 104 269 c 0,28,29
 104 231 104 231 118 202 c 128,-1,30
 132 173 132 173 157.5 156.5 c 128,-1,31
 183 140 183 140 217 140 c 0,32,33
 249 140 249 140 270 161 c 128,-1,34
 291 182 291 182 292 213 c 0,35,36
 292 246 292 246 271.5 267 c 128,-1,37
 251 288 251 288 219 288 c 0,38,39
 185 288 185 288 163 267 c 128,-1,40
 141 246 141 246 141 212 c 0,41,42
 141 181 141 181 162.5 160.5 c 128,-1,43
 184 140 184 140 217 140 c 1,44,-1
 217 106 l 1,45,46
 169 106 169 106 137.5 137 c 128,-1,47
 106 168 106 168 106 215 c 0,48,49
 106 265 106 265 138.5 296.5 c 128,-1,50
 171 328 171 328 220 328 c 0,51,52
 271 328 271 328 304 295.5 c 128,-1,53
 337 263 337 263 337 213 c 0,54,55
 337 165 337 165 303.5 133.5 c 128,-1,56
 270 102 270 102 217 102 c 0,57,58
 172 102 172 102 136.5 123.5 c 128,-1,59
 101 145 101 145 80.5 183 c 128,-1,60
 60 221 60 221 60 269 c 0,61,62
 60 327 60 327 86 375.5 c 128,-1,63
 112 424 112 424 159 459.5 c 128,-1,64
 206 495 206 495 269.5 514.5 c 128,-1,65
 333 534 333 534 409 534 c 256,0,1
720 -35 m 1,66,-1
 661 -35 l 2,67,68
 575 -35 575 -35 536 9.5 c 128,-1,69
 497 54 497 54 497 133 c 2,70,-1
 497 269 l 1,71,-1
 536 269 l 1,72,-1
 536 133 l 2,73,74
 536 69 536 69 565 34.5 c 128,-1,75
 594 0 594 0 661 0 c 2,76,-1
 720 0 l 1,77,-1
 720 -35 l 1,66,-1
414 -180 m 0,78,79
 473 -180 473 -180 511 -143 c 128,-1,80
 549 -106 549 -106 549 -50 c 2,81,-1
 549 19 l 1,82,-1
 593 0 l 1,83,-1
 593 -50 l 2,84,85
 593 -99 593 -99 570 -137 c 128,-1,86
 547 -175 547 -175 506.5 -197 c 128,-1,87
 466 -219 466 -219 414 -219 c 256,88,89
 362 -219 362 -219 321.5 -197 c 128,-1,90
 281 -175 281 -175 258 -137 c 128,-1,91
 235 -99 235 -99 235 -50 c 2,92,-1
 235 0 l 1,93,-1
 279 0 l 1,94,-1
 279 -50 l 2,95,96
 279 -106 279 -106 317.5 -143 c 128,-1,97
 356 -180 356 -180 414 -180 c 0,78,79
EndSplineSet
EndChar

StartChar: P
Encoding: 80 80 19
Width: 706
Flags: W
AnchorPoint: "Anchor-1" 347 0 basechar 0
AnchorPoint: "Anchor-0" 768 0 basechar 0
LayerCount: 2
Fore
SplineSet
343.334960938 257.405273438 m 4,0,1
 364.676757812 257.405273438 364.676757812 257.405273438 380.015625 272.591796875 c 132,-1,2
 395.354492188 287.778320312 395.354492188 287.778320312 395.354492188 309.868164062 c 260,3,4
 395.354492188 331.95703125 395.354492188 331.95703125 380.015625 347.143554688 c 132,-1,5
 364.676757812 362.330078125 364.676757812 362.330078125 343.334960938 362.330078125 c 4,6,7
 320.661132812 362.330078125 320.661132812 362.330078125 306.65625 347.143554688 c 132,-1,8
 292.651367188 331.95703125 292.651367188 331.95703125 292.651367188 309.868164062 c 260,9,10
 292.651367188 287.778320312 292.651367188 287.778320312 306.65625 272.591796875 c 132,-1,11
 320.661132812 257.405273438 320.661132812 257.405273438 343.334960938 257.405273438 c 4,0,1
343.334960938 257.405273438 m 4,12,13
 364.676757812 257.405273438 364.676757812 257.405273438 380.015625 272.591796875 c 132,-1,14
 395.354492188 287.778320312 395.354492188 287.778320312 395.354492188 309.868164062 c 260,15,16
 395.354492188 331.95703125 395.354492188 331.95703125 380.015625 347.143554688 c 132,-1,17
 364.676757812 362.330078125 364.676757812 362.330078125 343.334960938 362.330078125 c 4,18,19
 320.661132812 362.330078125 320.661132812 362.330078125 306.65625 347.143554688 c 132,-1,20
 292.651367188 331.95703125 292.651367188 331.95703125 292.651367188 309.868164062 c 260,21,22
 292.651367188 287.778320312 292.651367188 287.778320312 306.65625 272.591796875 c 132,-1,23
 320.661132812 257.405273438 320.661132812 257.405273438 343.334960938 257.405273438 c 4,12,13
606 513 m 1,24,-1
 606 0 l 1,25,-1
 100 0 l 1,26,-1
 100 513 l 1,27,-1
 144 518 l 1,28,-1
 144 35 l 1,29,-1
 562 35 l 1,30,-1
 562 513 l 1,31,-1
 606 513 l 1,24,-1
EndSplineSet
EndChar

StartChar: Q
Encoding: 81 81 20
Width: 723
Flags: W
AnchorPoint: "Anchor-1" 381 0 basechar 0
AnchorPoint: "Anchor-0" 680 0 basechar 0
LayerCount: 2
Fore
SplineSet
246 96 m 4,0,1
 262 96 262 96 273.5 107 c 132,-1,2
 285 118 285 118 285 134 c 260,3,4
 285 150 285 150 273.5 161 c 132,-1,5
 262 172 262 172 246 172 c 4,6,7
 229 172 229 172 218.5 161 c 132,-1,8
 208 150 208 150 208 134 c 260,9,10
 208 118 208 118 218.5 107 c 132,-1,11
 229 96 229 96 246 96 c 4,0,1
453 205 m 2,12,13
 453 132 453 132 425 82 c 128,-1,14
 397 32 397 32 348 7 c 128,-1,15
 299 -18 299 -18 236 -18 c 0,16,17
 180 -18 180 -18 138 2 c 128,-1,18
 96 22 96 22 73 57 c 128,-1,19
 50 92 50 92 50 136 c 0,20,21
 50 201 50 201 96 244 c 128,-1,22
 142 287 142 287 225 287 c 2,23,-1
 504 287 l 2,24,25
 560 287 560 287 600 268 c 128,-1,26
 640 249 640 249 661.5 216 c 128,-1,27
 683 183 683 183 683 140 c 0,28,29
 683 95 683 95 660.5 59 c 128,-1,30
 638 23 638 23 595 2.5 c 128,-1,31
 552 -18 552 -18 492 -18 c 1,32,-1
 492 17 l 1,33,34
 563 17 563 17 599 51.5 c 128,-1,35
 635 86 635 86 635 140 c 0,36,37
 635 188 635 188 602.5 220 c 128,-1,38
 570 252 570 252 505 252 c 2,39,-1
 226 252 l 2,40,41
 164 252 164 252 131 219 c 128,-1,42
 98 186 98 186 98 135 c 0,43,44
 98 85 98 85 134.5 54.5 c 128,-1,45
 171 24 171 24 236 24 c 0,46,47
 286 24 286 24 325 44 c 128,-1,48
 364 64 364 64 386.5 104.5 c 128,-1,49
 409 145 409 145 409 205 c 2,50,-1
 409 478 l 1,51,-1
 211 478 l 1,52,-1
 211 263 l 1,53,-1
 167 263 l 1,54,-1
 167 513 l 1,55,-1
 622 513 l 1,56,-1
 627 478 l 1,57,-1
 453 478 l 1,58,-1
 453 205 l 2,12,13
EndSplineSet
EndChar

StartChar: R
Encoding: 82 82 21
Width: 775
Flags: W
AnchorPoint: "Anchor-1" 377 0 basechar 0
AnchorPoint: "Anchor-0" 778 0 basechar 0
LayerCount: 2
Fore
SplineSet
517 531 m 0,0,1
 584 531 584 531 628 492.5 c 128,-1,2
 672 454 672 454 693.5 386 c 128,-1,3
 715 318 715 318 715 231 c 0,4,5
 715 116 715 116 683.5 27 c 128,-1,6
 652 -62 652 -62 582 -113 c 128,-1,7
 512 -164 512 -164 396 -164 c 2,8,-1
 290 -164 l 2,9,10
 232 -164 232 -164 189 -186 c 128,-1,11
 146 -208 146 -208 124 -243 c 1,12,-1
 90 -222 l 1,13,14
 115 -181 115 -181 169 -155 c 128,-1,15
 223 -129 223 -129 290 -129 c 2,16,-1
 396 -129 l 2,17,18
 498 -129 498 -129 557 -82 c 128,-1,19
 616 -35 616 -35 641.5 46.5 c 128,-1,20
 667 128 667 128 667 231 c 0,21,22
 667 307 667 307 651 365 c 128,-1,23
 635 423 635 423 602.5 456 c 128,-1,24
 570 489 570 489 520 489 c 0,25,26
 486 489 486 489 460 472.5 c 128,-1,27
 434 456 434 456 419.5 422.5 c 128,-1,28
 405 389 405 389 405 338 c 2,29,-1
 405 0 l 1,30,-1
 361 0 l 1,31,-1
 361 320 l 2,32,33
 361 369 361 369 347 407 c 128,-1,34
 333 445 333 445 306.5 467 c 128,-1,35
 280 489 280 489 243 489 c 0,36,37
 192 489 192 489 163 452 c 128,-1,38
 134 415 134 415 134 338 c 2,39,-1
 134 0 l 1,40,-1
 90 0 l 1,41,-1
 90 337 l 2,42,43
 90 401 90 401 108.5 444 c 128,-1,44
 127 487 127 487 161 509 c 128,-1,45
 195 531 195 531 239 531 c 0,46,47
 288 531 288 531 324 504.5 c 128,-1,48
 360 478 360 478 379 433 c 1,49,50
 399 481 399 481 436.5 506 c 128,-1,51
 474 531 474 531 517 531 c 0,0,1
EndSplineSet
EndChar

StartChar: S
Encoding: 83 83 22
Width: 998
Flags: W
AnchorPoint: "Anchor-1" 524 0 basechar 0
AnchorPoint: "Anchor-0" 963 0 basechar 0
LayerCount: 2
Fore
SplineSet
749 513 m 2,0,1
 818 513 818 513 859.5 483 c 128,-1,2
 901 453 901 453 919.5 401 c 128,-1,3
 938 349 938 349 938 282 c 0,4,5
 938 195 938 195 914 127.5 c 128,-1,6
 890 60 890 60 845 21 c 128,-1,7
 800 -18 800 -18 737 -18 c 0,8,9
 693 -18 693 -18 658 1 c 128,-1,10
 623 20 623 20 603.5 59 c 128,-1,11
 584 98 584 98 584 158 c 2,12,-1
 584 478 l 1,13,-1
 414 478 l 1,14,-1
 414 176 l 2,15,16
 414 111 414 111 393 68 c 128,-1,17
 372 25 372 25 335.5 3.5 c 128,-1,18
 299 -18 299 -18 252 -18 c 256,19,20
 205 -18 205 -18 168.5 3.5 c 128,-1,21
 132 25 132 25 111 68 c 128,-1,22
 90 111 90 111 90 176 c 2,23,-1
 90 513 l 1,24,-1
 134 518 l 1,25,-1
 134 175 l 2,26,27
 134 100 134 100 167.5 62 c 128,-1,28
 201 24 201 24 252 24 c 256,29,30
 303 24 303 24 336.5 62 c 128,-1,31
 370 100 370 100 370 175 c 2,32,-1
 370 513 l 1,33,-1
 749 513 l 2,0,1
741 24 m 0,34,35
 789 24 789 24 822 57 c 128,-1,36
 855 90 855 90 872.5 148.5 c 128,-1,37
 890 207 890 207 890 282 c 0,38,39
 890 339 890 339 878 383 c 128,-1,40
 866 427 866 427 835.5 452.5 c 128,-1,41
 805 478 805 478 749 478 c 2,42,-1
 628 478 l 1,43,-1
 628 157 l 2,44,45
 628 84 628 84 660 54 c 128,-1,46
 692 24 692 24 741 24 c 0,34,35
EndSplineSet
EndChar

StartChar: T
Encoding: 84 84 23
Width: 733
Flags: W
AnchorPoint: "Anchor-1" 376 0 basechar 0
AnchorPoint: "Anchor-0" 709 0 basechar 0
LayerCount: 2
Fore
SplineSet
477 252 m 2,0,-1
 226 252 l 2,1,2
 164 252 164 252 131 219 c 128,-1,3
 98 186 98 186 98 135 c 0,4,5
 98 85 98 85 134.5 54.5 c 128,-1,6
 171 24 171 24 236 24 c 0,7,8
 286 24 286 24 325 44 c 128,-1,9
 364 64 364 64 386.5 104.5 c 128,-1,10
 409 145 409 145 409 205 c 2,11,-1
 409 478 l 1,12,-1
 211 478 l 1,13,-1
 211 263 l 1,14,-1
 167 263 l 1,15,-1
 167 513 l 1,16,-1
 622 513 l 1,17,-1
 627 478 l 1,18,-1
 453 478 l 1,19,-1
 453 205 l 2,20,21
 453 132 453 132 425 82 c 128,-1,22
 397 32 397 32 348 7 c 128,-1,23
 299 -18 299 -18 236 -18 c 0,24,25
 180 -18 180 -18 138 2 c 128,-1,26
 96 22 96 22 73 57 c 128,-1,27
 50 92 50 92 50 136 c 0,28,29
 50 201 50 201 96 244 c 128,-1,30
 142 287 142 287 225 287 c 2,31,-1
 476 287 l 2,32,33
 537 287 537 287 583.5 260 c 128,-1,34
 630 233 630 233 656.5 185.5 c 128,-1,35
 683 138 683 138 683 77 c 0,36,37
 683 7 683 7 647 -47.5 c 128,-1,38
 611 -102 611 -102 546 -133 c 128,-1,39
 481 -164 481 -164 392 -164 c 2,40,-1
 250 -164 l 2,41,42
 192 -164 192 -164 149 -186 c 128,-1,43
 106 -208 106 -208 84 -243 c 1,44,-1
 50 -222 l 1,45,46
 74 -181 74 -181 128.5 -155 c 128,-1,47
 183 -129 183 -129 250 -129 c 2,48,-1
 392 -129 l 2,49,50
 467 -129 467 -129 521.5 -102.5 c 128,-1,51
 576 -76 576 -76 605.5 -29 c 128,-1,52
 635 18 635 18 635 77 c 0,53,54
 635 128 635 128 615 167.5 c 128,-1,55
 595 207 595 207 559.5 229.5 c 128,-1,56
 524 252 524 252 477 252 c 2,0,-1
EndSplineSet
EndChar

StartChar: U
Encoding: 85 85 24
Width: 964
Flags: W
LayerCount: 2
Fore
SplineSet
954 0 m 1,0,-1
 75 0 l 1,1,-1
 75 35 l 1,2,-1
 954 35 l 1,3,-1
 954 0 l 1,0,-1
52 273 m 1,4,5
 52 309 52 309 71.5 341 c 128,-1,6
 91 373 91 373 125.5 392.5 c 128,-1,7
 160 412 160 412 203 412 c 0,8,9
 248 412 248 412 282.5 394 c 128,-1,10
 317 376 317 376 337 344 c 128,-1,11
 357 312 357 312 357 271 c 0,12,13
 357 229 357 229 336.5 196 c 128,-1,14
 316 163 316 163 280 144 c 128,-1,15
 244 125 244 125 198 125 c 0,16,17
 153 125 153 125 117 144.5 c 128,-1,18
 81 164 81 164 60.5 198 c 128,-1,19
 40 232 40 232 40 275 c 0,20,21
 40 349 40 349 74.5 407 c 128,-1,22
 109 465 109 465 171.5 498 c 128,-1,23
 234 531 234 531 317 531 c 0,24,25
 396 531 396 531 457.5 497.5 c 128,-1,26
 519 464 519 464 554 406 c 128,-1,27
 589 348 589 348 589 273 c 0,28,29
 589 194 589 194 556.5 133.5 c 128,-1,30
 524 73 524 73 463 39 c 128,-1,31
 402 5 402 5 316 5 c 1,32,-1
 316 35 l 1,33,34
 383 35 383 35 433.5 66 c 128,-1,35
 484 97 484 97 512.5 150.5 c 128,-1,36
 541 204 541 204 541 273 c 0,37,38
 541 337 541 337 512.5 385.5 c 128,-1,39
 484 434 484 434 434 461.5 c 128,-1,40
 384 489 384 489 317 489 c 0,41,42
 247 489 247 489 195 461.5 c 128,-1,43
 143 434 143 434 114.5 385.5 c 128,-1,44
 86 337 86 337 86 273 c 0,45,46
 86 226 86 226 117.5 196.5 c 128,-1,47
 149 167 149 167 198 167 c 0,48,49
 246 167 246 167 277.5 196.5 c 128,-1,50
 309 226 309 226 309 271 c 0,51,52
 309 315 309 315 279 344.5 c 128,-1,53
 249 374 249 374 203 374 c 0,54,55
 152 374 152 374 119 345.5 c 128,-1,56
 86 317 86 317 86 273 c 1,57,-1
 52 273 l 1,4,5
EndSplineSet
EndChar

StartChar: V
Encoding: 86 86 25
Width: 1027
Flags: W
AnchorPoint: "Anchor-1" 562 0 basechar 0
AnchorPoint: "Anchor-0" 1084 0 basechar 0
LayerCount: 2
Fore
SplineSet
775.790039062 83.759765625 m 0,0,1
 796.75 83.759765625 796.75 83.759765625 811.815429688 97.83984375 c 128,-1,2
 826.879882812 111.919921875 826.879882812 111.919921875 826.879882812 132.400390625 c 256,3,4
 826.879882812 152.879882812 826.879882812 152.879882812 811.815429688 166.959960938 c 128,-1,5
 796.75 181.040039062 796.75 181.040039062 775.790039062 181.040039062 c 0,6,7
 753.51953125 181.040039062 753.51953125 181.040039062 739.764648438 166.959960938 c 128,-1,8
 726.009765625 152.879882812 726.009765625 152.879882812 726.009765625 132.400390625 c 256,9,10
 726.009765625 111.919921875 726.009765625 111.919921875 739.764648438 97.83984375 c 128,-1,11
 753.51953125 83.759765625 753.51953125 83.759765625 775.790039062 83.759765625 c 0,0,1
639 255 m 0,12,13
 639 323 639 323 608.5 376 c 128,-1,14
 578 429 578 429 520 459 c 128,-1,15
 462 489 462 489 379 489 c 256,16,17
 296 489 296 489 235 456.5 c 128,-1,18
 174 424 174 424 141 367 c 128,-1,19
 108 310 108 310 108 237 c 0,20,21
 108 173 108 173 136 123.5 c 128,-1,22
 164 74 164 74 216 45.5 c 128,-1,23
 268 17 268 17 339 17 c 0,24,25
 392 17 392 17 426 51 c 128,-1,26
 460 85 460 85 460 137 c 0,27,28
 460 190 460 190 426 223.5 c 128,-1,29
 392 257 392 257 339 257 c 0,30,31
 287 257 287 257 252.5 224 c 128,-1,32
 218 191 218 191 218 139 c 0,33,34
 218 86 218 86 252.5 51.5 c 128,-1,35
 287 17 287 17 339 17 c 1,36,-1
 339 -8 l 1,37,38
 292 -8 292 -8 254.5 11 c 128,-1,39
 217 30 217 30 196 63 c 128,-1,40
 175 96 175 96 175 139 c 0,41,42
 175 185 175 185 196 220 c 128,-1,43
 217 255 217 255 254.5 275.5 c 128,-1,44
 292 296 292 296 339 296 c 0,45,46
 388 296 388 296 425.5 275.5 c 128,-1,47
 463 255 463 255 485 219.5 c 128,-1,48
 507 184 507 184 507 137 c 0,49,50
 507 92 507 92 485 57 c 128,-1,51
 463 22 463 22 425.5 2 c 128,-1,52
 388 -18 388 -18 339 -18 c 0,53,54
 254 -18 254 -18 191 15 c 128,-1,55
 128 48 128 48 94 105.5 c 128,-1,56
 60 163 60 163 60 237 c 0,57,58
 60 323 60 323 99.5 389 c 128,-1,59
 139 455 139 455 210.5 493 c 128,-1,60
 282 531 282 531 379 531 c 0,61,62
 473 531 473 531 541.5 495.5 c 128,-1,63
 610 460 610 460 648 397.5 c 128,-1,64
 686 335 686 335 686 255 c 0,65,66
 686 191 686 191 666 133.5 c 128,-1,67
 646 76 646 76 612 35 c 1,68,-1
 883 35 l 1,69,-1
 883 513 l 1,70,-1
 927 513 l 1,71,-1
 927 0 l 1,72,-1
 551 0 l 1,73,-1
 551 35 l 1,74,75
 589 73 589 73 614 129 c 128,-1,76
 639 185 639 185 639 255 c 0,12,13
EndSplineSet
EndChar

StartChar: W
Encoding: 87 87 26
Width: 1027
Flags: W
AnchorPoint: "Anchor-1" 562 0 basechar 0
AnchorPoint: "Anchor-0" 1084 0 basechar 0
LayerCount: 2
Fore
SplineSet
775.790039062 83.759765625 m 4,0,1
 796.75 83.759765625 796.75 83.759765625 811.815429688 97.83984375 c 132,-1,2
 826.879882812 111.919921875 826.879882812 111.919921875 826.879882812 132.400390625 c 260,3,4
 826.879882812 152.879882812 826.879882812 152.879882812 811.815429688 166.959960938 c 132,-1,5
 796.75 181.040039062 796.75 181.040039062 775.790039062 181.040039062 c 4,6,7
 753.51953125 181.040039062 753.51953125 181.040039062 739.764648438 166.959960938 c 132,-1,8
 726.009765625 152.879882812 726.009765625 152.879882812 726.009765625 132.400390625 c 260,9,10
 726.009765625 111.919921875 726.009765625 111.919921875 739.764648438 97.83984375 c 132,-1,11
 753.51953125 83.759765625 753.51953125 83.759765625 775.790039062 83.759765625 c 4,0,1
337.790039062 88.759765625 m 0,12,13
 358.75 88.759765625 358.75 88.759765625 373.815429688 102.83984375 c 128,-1,14
 388.879882812 116.919921875 388.879882812 116.919921875 388.879882812 137.400390625 c 256,15,16
 388.879882812 157.879882812 388.879882812 157.879882812 373.815429688 171.959960938 c 128,-1,17
 358.75 186.040039062 358.75 186.040039062 337.790039062 186.040039062 c 0,18,19
 315.51953125 186.040039062 315.51953125 186.040039062 301.764648438 171.959960938 c 128,-1,20
 288.009765625 157.879882812 288.009765625 157.879882812 288.009765625 137.400390625 c 256,21,22
 288.009765625 116.919921875 288.009765625 116.919921875 301.764648438 102.83984375 c 128,-1,23
 315.51953125 88.759765625 315.51953125 88.759765625 337.790039062 88.759765625 c 0,12,13
639 255 m 0,24,25
 639 323 639 323 608.5 376 c 128,-1,26
 578 429 578 429 520 459 c 128,-1,27
 462 489 462 489 379 489 c 256,28,29
 296 489 296 489 235 456.5 c 128,-1,30
 174 424 174 424 141 367 c 128,-1,31
 108 310 108 310 108 237 c 0,32,33
 108 173 108 173 136 123.5 c 128,-1,34
 164 74 164 74 216 45.5 c 128,-1,35
 268 17 268 17 339 17 c 0,36,37
 392 17 392 17 426 51 c 128,-1,38
 460 85 460 85 460 137 c 0,39,40
 460 190 460 190 426 223.5 c 128,-1,41
 392 257 392 257 339 257 c 0,42,43
 287 257 287 257 252.5 224 c 128,-1,44
 218 191 218 191 218 139 c 0,45,46
 218 86 218 86 252.5 51.5 c 128,-1,47
 287 17 287 17 339 17 c 1,48,-1
 339 -8 l 1,49,50
 292 -8 292 -8 254.5 11 c 128,-1,51
 217 30 217 30 196 63 c 128,-1,52
 175 96 175 96 175 139 c 0,53,54
 175 185 175 185 196 220 c 128,-1,55
 217 255 217 255 254.5 275.5 c 128,-1,56
 292 296 292 296 339 296 c 0,57,58
 388 296 388 296 425.5 275.5 c 128,-1,59
 463 255 463 255 485 219.5 c 128,-1,60
 507 184 507 184 507 137 c 0,61,62
 507 92 507 92 485 57 c 128,-1,63
 463 22 463 22 425.5 2 c 128,-1,64
 388 -18 388 -18 339 -18 c 0,65,66
 254 -18 254 -18 191 15 c 128,-1,67
 128 48 128 48 94 105.5 c 128,-1,68
 60 163 60 163 60 237 c 0,69,70
 60 323 60 323 99.5 389 c 128,-1,71
 139 455 139 455 210.5 493 c 128,-1,72
 282 531 282 531 379 531 c 0,73,74
 473 531 473 531 541.5 495.5 c 128,-1,75
 610 460 610 460 648 397.5 c 128,-1,76
 686 335 686 335 686 255 c 0,77,78
 686 191 686 191 666 133.5 c 128,-1,79
 646 76 646 76 612 35 c 1,80,-1
 883 35 l 1,81,-1
 883 513 l 1,82,-1
 927 513 l 1,83,-1
 927 0 l 1,84,-1
 551 0 l 1,85,-1
 551 35 l 1,86,87
 589 73 589 73 614 129 c 128,-1,88
 639 185 639 185 639 255 c 0,24,25
EndSplineSet
EndChar

StartChar: X
Encoding: 88 88 27
Width: 714
Flags: W
AnchorPoint: "Anchor-1" 390 0 basechar 0
LayerCount: 2
Fore
SplineSet
410 177 m 4,0,1
 439 177 439 177 462.5 189.5 c 132,-1,2
 486 202 486 202 500 224.5 c 132,-1,3
 514 247 514 247 514 276 c 260,4,5
 514 305 514 305 499.5 327.5 c 132,-1,6
 485 350 485 350 461.5 363 c 132,-1,7
 438 376 438 376 410 376 c 4,8,9
 383 376 383 376 359.5 363 c 132,-1,10
 336 350 336 350 321 327.5 c 132,-1,11
 306 305 306 305 306 276 c 260,12,13
 306 247 306 247 320.5 224.5 c 132,-1,14
 335 202 335 202 358.5 189.5 c 132,-1,15
 382 177 382 177 410 177 c 4,0,1
410 214 m 260,16,17
 383 214 383 214 365.5 231.5 c 132,-1,18
 348 249 348 249 348 276 c 260,19,20
 348 303 348 303 365.5 320.5 c 132,-1,21
 383 338 383 338 410 338 c 260,22,23
 437 338 437 338 454.5 320.5 c 132,-1,24
 472 303 472 303 472 276 c 260,25,26
 472 249 472 249 454.5 231.5 c 132,-1,27
 437 214 437 214 410 214 c 260,16,17
699 35 m 1,28,-1
 144 35 l 1,29,-1
 144 518 l 1,30,-1
 100 513 l 1,31,-1
 100 0 l 1,32,-1
 704 0 l 1,33,-1
 699 35 l 1,28,-1
EndSplineSet
EndChar

StartChar: Y
Encoding: 89 89 28
Width: 886
Flags: W
AnchorPoint: "Anchor-1" 417 0 basechar 0
AnchorPoint: "Anchor-0" 936 0 basechar 0
LayerCount: 2
Fore
SplineSet
589.090820312 229.71484375 m 4,0,1
 608.484375 229.71484375 608.484375 229.71484375 622.423828125 242.809570312 c 132,-1,2
 636.36328125 255.905273438 636.36328125 255.905273438 636.36328125 274.952148438 c 260,3,4
 636.36328125 294 636.36328125 294 622.423828125 307.094726562 c 132,-1,5
 608.484375 320.190429688 608.484375 320.190429688 589.090820312 320.190429688 c 4,6,7
 568.485351562 320.190429688 568.485351562 320.190429688 555.7578125 307.094726562 c 132,-1,8
 543.030273438 294 543.030273438 294 543.030273438 274.952148438 c 260,9,10
 543.030273438 255.905273438 543.030273438 255.905273438 555.7578125 242.809570312 c 132,-1,11
 568.485351562 229.71484375 568.485351562 229.71484375 589.090820312 229.71484375 c 4,0,1
786 513 m 1,12,-1
 786 0 l 1,13,-1
 379 0 l 1,14,-1
 379 513 l 1,15,-1
 423 513 l 1,16,-1
 423 35 l 1,17,-1
 742 35 l 1,18,-1
 742 513 l 1,19,-1
 786 513 l 1,12,-1
90 513 m 1,20,-1
 134 518 l 1,21,-1
 134 175 l 2,22,23
 134 90 134 90 167.5 57 c 128,-1,24
 201 24 201 24 252 24 c 0,25,26
 314 24 314 24 346.5 72 c 128,-1,27
 379 120 379 120 379 193 c 1,28,-1
 414 193 l 1,29,30
 414 132 414 132 395 84 c 128,-1,31
 376 36 376 36 340 9 c 128,-1,32
 304 -18 304 -18 252 -18 c 0,33,34
 205 -18 205 -18 168.5 1.5 c 128,-1,35
 132 21 132 21 111 64 c 128,-1,36
 90 107 90 107 90 176 c 2,37,-1
 90 513 l 1,20,-1
EndSplineSet
EndChar

StartChar: Z
Encoding: 90 90 29
Width: 841
Flags: W
AnchorPoint: "Anchor-1" 430 0 basechar 0
AnchorPoint: "Anchor-0" 880 0 basechar 0
LayerCount: 2
Fore
SplineSet
601.090820312 311.71484375 m 4,0,1
 620.484375 311.71484375 620.484375 311.71484375 634.423828125 324.809570312 c 132,-1,2
 648.36328125 337.905273438 648.36328125 337.905273438 648.36328125 356.952148438 c 260,3,4
 648.36328125 376 648.36328125 376 634.423828125 389.094726562 c 132,-1,5
 620.484375 402.190429688 620.484375 402.190429688 601.090820312 402.190429688 c 4,6,7
 580.485351562 402.190429688 580.485351562 402.190429688 567.7578125 389.094726562 c 132,-1,8
 555.030273438 376 555.030273438 376 555.030273438 356.952148438 c 260,9,10
 555.030273438 337.905273438 555.030273438 337.905273438 567.7578125 324.809570312 c 132,-1,11
 580.485351562 311.71484375 580.485351562 311.71484375 601.090820312 311.71484375 c 4,0,1
463 274 m 1,12,-1
 419 274 l 1,13,-1
 419 343 l 2,14,15
 419 408 419 408 377.5 448.5 c 128,-1,16
 336 489 336 489 271 489 c 0,17,18
 219 489 219 489 183 470 c 128,-1,19
 147 451 147 451 129 417.5 c 128,-1,20
 111 384 111 384 111 339 c 0,21,22
 111 314 111 314 128 297 c 128,-1,23
 145 280 145 280 170 280 c 0,24,25
 196 280 196 280 213.5 296.5 c 128,-1,26
 231 313 231 313 232 338 c 0,27,28
 232 365 232 365 215 383 c 128,-1,29
 198 401 198 401 172 401 c 0,30,31
 145 401 145 401 127.5 383 c 128,-1,32
 110 365 110 365 111 339 c 1,33,-1
 81 338 l 1,34,35
 80 382 80 382 106.5 409.5 c 128,-1,36
 133 437 133 437 173 437 c 0,37,38
 220 437 220 437 248.5 409.5 c 128,-1,39
 277 382 277 382 275 338 c 0,40,41
 274 298 274 298 244.5 271 c 128,-1,42
 215 244 215 244 170 245 c 256,43,44
 125 246 125 246 96 273 c 128,-1,45
 67 300 67 300 67 342 c 0,46,47
 67 397 67 397 93.5 439.5 c 128,-1,48
 120 482 120 482 166 506.5 c 128,-1,49
 212 531 212 531 271 531 c 0,50,51
 317 531 317 531 351.5 515 c 128,-1,52
 386 499 386 499 411.5 472.5 c 128,-1,53
 437 446 437 446 454 412 c 1,54,-1
 454 368 l 1,55,-1
 426 368 l 1,56,-1
 426 412 l 1,57,58
 452 462 452 462 495 496.5 c 128,-1,59
 538 531 538 531 605 531 c 0,60,61
 656 531 656 531 695.5 508.5 c 128,-1,62
 735 486 735 486 758 447 c 128,-1,63
 781 408 781 408 781 358 c 0,64,65
 781 296 781 296 748.5 255 c 128,-1,66
 716 214 716 214 656 190.5 c 128,-1,67
 596 167 596 167 511 156 c 2,68,-1
 330 131 l 2,69,70
 270 123 270 123 219.5 103 c 128,-1,71
 169 83 169 83 139 50 c 128,-1,72
 109 17 109 17 108 -32 c 0,73,74
 108 -90 108 -90 141 -126.5 c 128,-1,75
 174 -163 174 -163 231 -163 c 0,76,77
 271 -163 271 -163 309.5 -139.5 c 128,-1,78
 348 -116 348 -116 387 -81.5 c 128,-1,79
 426 -47 426 -47 466 -12 c 128,-1,80
 506 23 506 23 548 46.5 c 128,-1,81
 590 70 590 70 635 70 c 0,82,83
 678 70 678 70 710.5 53 c 128,-1,84
 743 36 743 36 762 5.5 c 128,-1,85
 781 -25 781 -25 781 -64 c 0,86,87
 781 -104 781 -104 759.5 -135 c 128,-1,88
 738 -166 738 -166 699.5 -184 c 128,-1,89
 661 -202 661 -202 609 -202 c 2,90,-1
 488 -202 l 1,91,-1
 488 -167 l 1,92,-1
 609 -167 l 2,93,94
 667 -167 667 -167 700 -137.5 c 128,-1,95
 733 -108 733 -108 733 -64 c 0,96,97
 733 -23 733 -23 706 2.5 c 128,-1,98
 679 28 679 28 635 28 c 0,99,100
 603 28 603 28 571.5 11 c 128,-1,101
 540 -6 540 -6 509 -32.5 c 128,-1,102
 478 -59 478 -59 445.5 -88.5 c 128,-1,103
 413 -118 413 -118 379 -144.5 c 128,-1,104
 345 -171 345 -171 308.5 -188 c 128,-1,105
 272 -205 272 -205 231 -205 c 0,106,107
 180 -205 180 -205 141.5 -182.5 c 128,-1,108
 103 -160 103 -160 81.5 -121 c 128,-1,109
 60 -82 60 -82 60 -32 c 0,110,111
 60 29 60 29 93 69.5 c 128,-1,112
 126 110 126 110 186.5 134.5 c 128,-1,113
 247 159 247 159 330 170 c 2,114,-1
 511 194 l 2,115,116
 572 202 572 202 622 222 c 128,-1,117
 672 242 672 242 702.5 276 c 128,-1,118
 733 310 733 310 733 358 c 0,119,120
 733 417 733 417 698 453 c 128,-1,121
 663 489 663 489 605 489 c 0,122,123
 564 489 564 489 532 470.5 c 128,-1,124
 500 452 500 452 481.5 419 c 128,-1,125
 463 386 463 386 463 343 c 2,126,-1
 463 274 l 1,12,-1
EndSplineSet
EndChar

StartChar: a
Encoding: 97 97 30
Width: 649
Flags: W
AnchorPoint: "Anchor-1" 316 0 basechar 0
LayerCount: 2
Fore
SplineSet
438 478 m 1,0,-1
 438 0 l 1,1,-1
 394 0 l 1,2,-1
 394 478 l 1,3,-1
 144 478 l 1,4,-1
 144 0 l 1,5,-1
 100 0 l 1,6,-1
 100 513 l 1,7,-1
 634 513 l 1,8,-1
 639 478 l 1,9,-1
 438 478 l 1,0,-1
EndSplineSet
EndChar

StartChar: b
Encoding: 98 98 31
Width: 706
Flags: W
AnchorPoint: "Anchor-1" 347 0 basechar 0
AnchorPoint: "Anchor-0" 768 0 basechar 0
LayerCount: 2
Fore
SplineSet
489.14453125 93.0771484375 m 5,0,-1
 231.686523438 272.579101562 l 5,1,-1
 489.14453125 452.081054688 l 5,2,-1
 462.943359375 484.034179688 l 5,3,-1
 179.284179688 285.736328125 l 5,4,-1
 179.284179688 259.422851562 l 5,5,-1
 462.943359375 60.185546875 l 5,6,-1
 489.14453125 93.0771484375 l 5,0,-1
606 513 m 1,7,-1
 606 0 l 1,8,-1
 100 0 l 1,9,-1
 100 513 l 1,10,-1
 144 518 l 1,11,-1
 144 35 l 1,12,-1
 562 35 l 1,13,-1
 562 513 l 1,14,-1
 606 513 l 1,7,-1
EndSplineSet
EndChar

StartChar: c
Encoding: 99 99 32
Width: 667
Flags: W
AnchorPoint: "Anchor-1" 387 0 basechar 0
AnchorPoint: "Anchor-0" 675 0 basechar 0
LayerCount: 2
Fore
SplineSet
453 205 m 2,0,1
 453 132 453 132 425 82 c 128,-1,2
 397 32 397 32 348 7 c 128,-1,3
 299 -18 299 -18 236 -18 c 0,4,5
 180 -18 180 -18 138 2 c 128,-1,6
 96 22 96 22 73 57 c 128,-1,7
 50 92 50 92 50 136 c 0,8,9
 50 201 50 201 96 244 c 128,-1,10
 142 287 142 287 225 287 c 2,11,-1
 622 287 l 1,12,-1
 627 252 l 1,13,-1
 226 252 l 2,14,15
 164 252 164 252 131 219 c 128,-1,16
 98 186 98 186 98 135 c 0,17,18
 98 85 98 85 134.5 54.5 c 128,-1,19
 171 24 171 24 236 24 c 0,20,21
 286 24 286 24 325 44 c 128,-1,22
 364 64 364 64 386.5 104.5 c 128,-1,23
 409 145 409 145 409 205 c 2,24,-1
 409 478 l 1,25,-1
 211 478 l 1,26,-1
 211 263 l 1,27,-1
 167 263 l 1,28,-1
 167 513 l 1,29,-1
 622 513 l 1,30,-1
 627 478 l 1,31,-1
 453 478 l 1,32,-1
 453 205 l 2,0,1
EndSplineSet
EndChar

StartChar: d
Encoding: 100 100 33
Width: 512
Flags: W
LayerCount: 2
Fore
SplineSet
383 53 m 1,0,-1
 405 0 l 1,1,-1
 432 0 l 1,2,-1
 432 705 l 1,3,-1
 383 696 l 1,4,-1
 383 53 l 1,0,-1
388 99 m 1,5,6
 362 70 362 70 330.5 49 c 128,-1,7
 299 28 299 28 249 28 c 0,8,9
 195 28 195 28 160 57.5 c 128,-1,10
 125 87 125 87 108 137 c 128,-1,11
 91 187 91 187 91 246 c 0,12,13
 91 303 91 303 109.5 351 c 128,-1,14
 128 399 128 399 164.5 428 c 128,-1,15
 201 457 201 457 254 457 c 0,16,17
 300 457 300 457 334 437 c 128,-1,18
 368 417 368 417 393 393 c 1,19,-1
 413 426 l 1,20,21
 400 441 400 441 375 457.5 c 128,-1,22
 350 474 350 474 319 486 c 128,-1,23
 288 498 288 498 256 498 c 0,24,25
 185 498 185 498 136.5 465 c 128,-1,26
 88 432 88 432 64 375 c 128,-1,27
 40 318 40 318 40 245 c 0,28,29
 40 170 40 170 62.5 111.5 c 128,-1,30
 85 53 85 53 131.5 20 c 128,-1,31
 178 -13 178 -13 249 -13 c 0,32,33
 282 -13 282 -13 310.5 -3.5 c 128,-1,34
 339 6 339 6 363.5 24 c 128,-1,35
 388 42 388 42 408 65 c 1,36,-1
 388 99 l 1,5,6
EndSplineSet
EndChar

StartChar: e
Encoding: 101 101 34
Width: 664
Flags: W
LayerCount: 2
Fore
SplineSet
108 329 m 256,0,1
 108 243 108 243 144.5 173.5 c 128,-1,2
 181 104 181 104 245.5 63.5 c 128,-1,3
 310 23 310 23 393 23 c 0,4,5
 447 23 447 23 480 28.5 c 128,-1,6
 513 34 513 34 530 46.5 c 128,-1,7
 547 59 547 59 552.5 79.5 c 128,-1,8
 558 100 558 100 558 131 c 0,9,10
 558 172 558 172 532.5 198 c 128,-1,11
 507 224 507 224 468 224 c 256,12,13
 429 224 429 224 403.5 198 c 128,-1,14
 378 172 378 172 378 131 c 256,15,16
 378 90 378 90 403.5 62.5 c 128,-1,17
 429 35 429 35 469 35 c 0,18,19
 507 35 507 35 532.5 62.5 c 128,-1,20
 558 90 558 90 558 131 c 1,21,-1
 592 117 l 1,22,-1
 560 43 l 1,23,-1
 482 -2 l 1,24,-1
 470 -2 l 2,25,26
 410 -2 410 -2 371.5 35.5 c 128,-1,27
 333 73 333 73 333 131 c 0,28,29
 333 169 333 169 350 199 c 128,-1,30
 367 229 367 229 397.5 246 c 128,-1,31
 428 263 428 263 466 263 c 0,32,33
 506 263 506 263 537 246 c 128,-1,34
 568 229 568 229 586 199.5 c 128,-1,35
 604 170 604 170 604 131 c 0,36,37
 604 86 604 86 578 52.5 c 128,-1,38
 552 19 552 19 506.5 0.5 c 128,-1,39
 461 -18 461 -18 402 -18 c 0,40,41
 324 -18 324 -18 261 9 c 128,-1,42
 198 36 198 36 153 83.5 c 128,-1,43
 108 131 108 131 84 194 c 128,-1,44
 60 257 60 257 60 329 c 256,45,46
 60 401 60 401 84 463.5 c 128,-1,47
 108 526 108 526 153 573.5 c 128,-1,48
 198 621 198 621 261 648 c 128,-1,49
 324 675 324 675 402 675 c 0,50,51
 461 675 461 675 506.5 656.5 c 128,-1,52
 552 638 552 638 578 605 c 128,-1,53
 604 572 604 572 604 526 c 0,54,55
 604 488 604 488 586 458 c 128,-1,56
 568 428 568 428 537 411 c 128,-1,57
 506 394 506 394 466 394 c 0,58,59
 428 394 428 394 397.5 411 c 128,-1,60
 367 428 367 428 350 458.5 c 128,-1,61
 333 489 333 489 333 527 c 256,62,63
 333 565 333 565 350.5 595 c 128,-1,64
 368 625 368 625 399 642 c 128,-1,65
 430 659 430 659 470 659 c 2,66,-1
 482 659 l 1,67,-1
 560 614 l 1,68,-1
 592 540 l 1,69,-1
 558 526 l 1,70,71
 558 567 558 567 532.5 594.5 c 128,-1,72
 507 622 507 622 469 622 c 0,73,74
 429 622 429 622 403.5 595 c 128,-1,75
 378 568 378 568 378 527 c 0,76,77
 378 487 378 487 403.5 460 c 128,-1,78
 429 433 429 433 468 433 c 256,79,80
 507 433 507 433 532.5 459.5 c 128,-1,81
 558 486 558 486 558 526 c 0,82,83
 558 557 558 557 552.5 578 c 128,-1,84
 547 599 547 599 530 611.5 c 128,-1,85
 513 624 513 624 480 629.5 c 128,-1,86
 447 635 447 635 393 635 c 0,87,88
 310 635 310 635 245.5 594 c 128,-1,89
 181 553 181 553 144.5 484 c 128,-1,90
 108 415 108 415 108 329 c 256,0,1
EndSplineSet
EndChar

StartChar: f
Encoding: 102 102 35
Width: 706
Flags: W
AnchorPoint: "Anchor-1" 347 0 basechar 0
AnchorPoint: "Anchor-0" 768 0 basechar 0
LayerCount: 2
Fore
SplineSet
466 321 m 1,0,-1
 223 321 l 1,1,-1
 231 282 l 1,2,-1
 474 282 l 1,3,-1
 466 321 l 1,0,-1
342.26953125 96.75 m 0,4,5
 361 97 361 97 373.620117188 109.620117188 c 0,6,7
 387 122 387 122 386.73046875 141.209960938 c 256,8,9
 387 160 387 160 373.620117188 172.799804688 c 0,10,11
 361 186 361 186 342.26953125 185.669921875 c 0,12,13
 323 186 323 186 310.919921875 172.799804688 c 0,14,15
 299 160 299 160 298.950195312 141.209960938 c 256,16,17
 299 122 299 122 310.919921875 109.620117188 c 0,18,19
 323 97 323 97 342.26953125 96.75 c 0,4,5
342.26953125 96.75 m 0,20,21
 361 97 361 97 373.620117188 109.620117188 c 0,22,23
 387 122 387 122 386.73046875 141.209960938 c 256,24,25
 387 160 387 160 373.620117188 172.799804688 c 0,26,27
 361 186 361 186 342.26953125 185.669921875 c 0,28,29
 323 186 323 186 310.919921875 172.799804688 c 0,30,31
 299 160 299 160 298.950195312 141.209960938 c 256,32,33
 299 122 299 122 310.919921875 109.620117188 c 0,34,35
 323 97 323 97 342.26953125 96.75 c 0,20,21
342.26953125 426.75 m 4,36,37
 361 427 361 427 373.620117188 439.620117188 c 4,38,39
 387 452 387 452 386.73046875 471.209960938 c 260,40,41
 387 490 387 490 373.620117188 502.799804688 c 4,42,43
 361 516 361 516 342.26953125 515.669921875 c 4,44,45
 323 516 323 516 310.919921875 502.799804688 c 4,46,47
 299 490 299 490 298.950195312 471.209960938 c 260,48,49
 299 452 299 452 310.919921875 439.620117188 c 4,50,51
 323 427 323 427 342.26953125 426.75 c 4,36,37
342.26953125 426.75 m 4,52,53
 361 427 361 427 373.620117188 439.620117188 c 4,54,55
 387 452 387 452 386.73046875 471.209960938 c 260,56,57
 387 490 387 490 373.620117188 502.799804688 c 4,58,59
 361 516 361 516 342.26953125 515.669921875 c 4,60,61
 323 516 323 516 310.919921875 502.799804688 c 4,62,63
 299 490 299 490 298.950195312 471.209960938 c 260,64,65
 299 452 299 452 310.919921875 439.620117188 c 4,66,67
 323 427 323 427 342.26953125 426.75 c 4,52,53
606 513 m 1,68,-1
 606 0 l 1,69,-1
 100 0 l 1,70,-1
 100 513 l 1,71,-1
 144 518 l 1,72,-1
 144 35 l 1,73,-1
 562 35 l 1,74,-1
 562 513 l 1,75,-1
 606 513 l 1,68,-1
EndSplineSet
EndChar

StartChar: g
Encoding: 103 103 36
Width: 508
Flags: W
LayerCount: 2
Fore
SplineSet
432 485 m 1,0,-1
 405 485 l 1,1,-1
 383 412 l 1,2,-1
 383 -72 l 2,3,4
 383 -132 383 -132 341 -160.5 c 128,-1,5
 299 -189 299 -189 238 -189 c 0,6,7
 192 -189 192 -189 160 -179 c 128,-1,8
 128 -169 128 -169 94 -154 c 1,9,-1
 75 -189 l 1,10,11
 89 -198 89 -198 110.5 -205.5 c 128,-1,12
 132 -213 132 -213 156.5 -218.5 c 128,-1,13
 181 -224 181 -224 203 -227 c 128,-1,14
 225 -230 225 -230 240 -230 c 0,15,16
 304 -230 304 -230 346.5 -208 c 128,-1,17
 389 -186 389 -186 410.5 -148 c 128,-1,18
 432 -110 432 -110 432 -62 c 2,19,-1
 432 485 l 1,0,-1
388 99 m 1,20,21
 362 70 362 70 330.5 49 c 128,-1,22
 299 28 299 28 249 28 c 0,23,24
 195 28 195 28 160 57.5 c 128,-1,25
 125 87 125 87 108 137 c 128,-1,26
 91 187 91 187 91 246 c 0,27,28
 91 303 91 303 109.5 351 c 128,-1,29
 128 399 128 399 164.5 428 c 128,-1,30
 201 457 201 457 254 457 c 0,31,32
 300 457 300 457 334 437 c 128,-1,33
 368 417 368 417 393 393 c 1,34,-1
 413 426 l 1,35,36
 400 441 400 441 375 457.5 c 128,-1,37
 350 474 350 474 319 486 c 128,-1,38
 288 498 288 498 256 498 c 0,39,40
 185 498 185 498 136.5 465 c 128,-1,41
 88 432 88 432 64 375 c 128,-1,42
 40 318 40 318 40 245 c 0,43,44
 40 170 40 170 62.5 111.5 c 128,-1,45
 85 53 85 53 131.5 20 c 128,-1,46
 178 -13 178 -13 249 -13 c 0,47,48
 282 -13 282 -13 310.5 -3.5 c 128,-1,49
 339 6 339 6 363.5 24 c 128,-1,50
 388 42 388 42 408 65 c 1,51,-1
 388 99 l 1,20,21
EndSplineSet
EndChar

StartChar: h
Encoding: 104 104 37
Width: 510
Flags: W
LayerCount: 2
Fore
SplineSet
129 359 m 1,0,1
 157 388 157 388 186.5 410 c 128,-1,2
 216 432 216 432 245.5 444.5 c 128,-1,3
 275 457 275 457 304 457 c 0,4,5
 359 457 359 457 377 422 c 128,-1,6
 395 387 395 387 395 337 c 2,7,-1
 395 0 l 1,8,-1
 444 0 l 1,9,-1
 444 337 l 2,10,11
 444 384 444 384 429.5 420 c 128,-1,12
 415 456 415 456 383.5 477 c 128,-1,13
 352 498 352 498 300 498 c 0,14,15
 270 498 270 498 238 485.5 c 128,-1,16
 206 473 206 473 177.5 453 c 128,-1,17
 149 433 149 433 128 409 c 1,18,-1
 129 359 l 1,0,1
129 0 m 1,19,-1
 129 706 l 1,20,-1
 80 696 l 1,21,-1
 80 0 l 1,22,-1
 129 0 l 1,19,-1
EndSplineSet
EndChar

StartChar: i
Encoding: 105 105 38
Width: 244
Flags: W
LayerCount: 2
Fore
SplineSet
-137 797 m 0,0,1
 -51 797 -51 797 12 759 c 128,-1,2
 75 721 75 721 109.5 655 c 128,-1,3
 144 589 144 589 144 503 c 2,4,-1
 144 0 l 1,5,-1
 100 0 l 1,6,-1
 100 503 l 2,7,8
 100 578 100 578 71.5 634.5 c 128,-1,9
 43 691 43 691 -10 723 c 128,-1,10
 -63 755 -63 755 -137 755 c 0,11,12
 -221 755 -221 755 -268 720 c 128,-1,13
 -315 685 -315 685 -315 627 c 0,14,15
 -315 574 -315 574 -275.5 543.5 c 128,-1,16
 -236 513 -236 513 -163 513 c 2,17,-1
 -139 513 l 1,18,-1
 -139 477 l 1,19,-1
 -163 477 l 2,20,21
 -225 477 -225 477 -269.5 496 c 128,-1,22
 -314 515 -314 515 -338 549 c 128,-1,23
 -362 583 -362 583 -363 627 c 0,24,25
 -363 677 -363 677 -335.5 715 c 128,-1,26
 -308 753 -308 753 -257.5 775 c 128,-1,27
 -207 797 -207 797 -137 797 c 0,0,1
EndSplineSet
EndChar

StartChar: j
Encoding: 106 106 39
Width: 841
Flags: W
AnchorPoint: "Anchor-1" 430 0 basechar 0
AnchorPoint: "Anchor-0" 880 0 basechar 0
LayerCount: 2
Fore
SplineSet
244.5 -67 m 4,0,1
 260.5 -67 260.5 -67 272 -56 c 132,-1,2
 283.5 -45 283.5 -45 283.5 -29 c 260,3,4
 283.5 -13 283.5 -13 272 -2 c 132,-1,5
 260.5 9 260.5 9 244.5 9 c 4,6,7
 227.5 9 227.5 9 217 -2 c 132,-1,8
 206.5 -13 206.5 -13 206.5 -29 c 260,9,10
 206.5 -45 206.5 -45 217 -56 c 132,-1,11
 227.5 -67 227.5 -67 244.5 -67 c 4,0,1
599.5 318 m 0,12,13
 615.5 318 615.5 318 627 329 c 128,-1,14
 638.5 340 638.5 340 638.5 356 c 256,15,16
 638.5 372 638.5 372 627 383 c 128,-1,17
 615.5 394 615.5 394 599.5 394 c 0,18,19
 582.5 394 582.5 394 572 383 c 128,-1,20
 561.5 372 561.5 372 561.5 356 c 256,21,22
 561.5 340 561.5 340 572 329 c 128,-1,23
 582.5 318 582.5 318 599.5 318 c 0,12,13
463 274 m 1,24,-1
 419 274 l 1,25,-1
 419 343 l 2,26,27
 419 408 419 408 377.5 448.5 c 128,-1,28
 336 489 336 489 271 489 c 0,29,30
 219 489 219 489 183 470 c 128,-1,31
 147 451 147 451 129 417.5 c 128,-1,32
 111 384 111 384 111 339 c 0,33,34
 111 314 111 314 128 297 c 128,-1,35
 145 280 145 280 170 280 c 0,36,37
 196 280 196 280 213.5 296.5 c 128,-1,38
 231 313 231 313 232 338 c 0,39,40
 232 365 232 365 215 383 c 128,-1,41
 198 401 198 401 172 401 c 0,42,43
 145 401 145 401 127.5 383 c 128,-1,44
 110 365 110 365 111 339 c 1,45,-1
 81 338 l 1,46,47
 80 382 80 382 106.5 409.5 c 128,-1,48
 133 437 133 437 173 437 c 0,49,50
 220 437 220 437 248.5 409.5 c 128,-1,51
 277 382 277 382 275 338 c 0,52,53
 274 298 274 298 244.5 271 c 128,-1,54
 215 244 215 244 170 245 c 256,55,56
 125 246 125 246 96 273 c 128,-1,57
 67 300 67 300 67 342 c 0,58,59
 67 397 67 397 93.5 439.5 c 128,-1,60
 120 482 120 482 166 506.5 c 128,-1,61
 212 531 212 531 271 531 c 0,62,63
 317 531 317 531 351.5 515 c 128,-1,64
 386 499 386 499 411.5 472.5 c 128,-1,65
 437 446 437 446 454 412 c 1,66,-1
 454 368 l 1,67,-1
 426 368 l 1,68,-1
 426 412 l 1,69,70
 452 462 452 462 495 496.5 c 128,-1,71
 538 531 538 531 605 531 c 0,72,73
 656 531 656 531 695.5 508.5 c 128,-1,74
 735 486 735 486 758 447 c 128,-1,75
 781 408 781 408 781 358 c 0,76,77
 781 296 781 296 748.5 255 c 128,-1,78
 716 214 716 214 656 190.5 c 128,-1,79
 596 167 596 167 511 156 c 2,80,-1
 330 131 l 2,81,82
 270 123 270 123 219.5 103 c 128,-1,83
 169 83 169 83 139 50 c 128,-1,84
 109 17 109 17 108 -32 c 0,85,86
 108 -90 108 -90 141 -126.5 c 128,-1,87
 174 -163 174 -163 231 -163 c 0,88,89
 271 -163 271 -163 309.5 -139.5 c 128,-1,90
 348 -116 348 -116 387 -81.5 c 128,-1,91
 426 -47 426 -47 466 -12 c 128,-1,92
 506 23 506 23 548 46.5 c 128,-1,93
 590 70 590 70 635 70 c 0,94,95
 678 70 678 70 710.5 53 c 128,-1,96
 743 36 743 36 762 5.5 c 128,-1,97
 781 -25 781 -25 781 -64 c 0,98,99
 781 -104 781 -104 759.5 -135 c 128,-1,100
 738 -166 738 -166 699.5 -184 c 128,-1,101
 661 -202 661 -202 609 -202 c 2,102,-1
 488 -202 l 1,103,-1
 488 -167 l 1,104,-1
 609 -167 l 2,105,106
 667 -167 667 -167 700 -137.5 c 128,-1,107
 733 -108 733 -108 733 -64 c 0,108,109
 733 -23 733 -23 706 2.5 c 128,-1,110
 679 28 679 28 635 28 c 0,111,112
 603 28 603 28 571.5 11 c 128,-1,113
 540 -6 540 -6 509 -32.5 c 128,-1,114
 478 -59 478 -59 445.5 -88.5 c 128,-1,115
 413 -118 413 -118 379 -144.5 c 128,-1,116
 345 -171 345 -171 308.5 -188 c 128,-1,117
 272 -205 272 -205 231 -205 c 0,118,119
 180 -205 180 -205 141.5 -182.5 c 128,-1,120
 103 -160 103 -160 81.5 -121 c 128,-1,121
 60 -82 60 -82 60 -32 c 0,122,123
 60 29 60 29 93 69.5 c 128,-1,124
 126 110 126 110 186.5 134.5 c 128,-1,125
 247 159 247 159 330 170 c 2,126,-1
 511 194 l 2,127,128
 572 202 572 202 622 222 c 128,-1,129
 672 242 672 242 702.5 276 c 128,-1,130
 733 310 733 310 733 358 c 0,131,132
 733 417 733 417 698 453 c 128,-1,133
 663 489 663 489 605 489 c 0,134,135
 564 489 564 489 532 470.5 c 128,-1,136
 500 452 500 452 481.5 419 c 128,-1,137
 463 386 463 386 463 343 c 2,138,-1
 463 274 l 1,24,-1
EndSplineSet
EndChar

StartChar: k
Encoding: 107 107 40
Width: 723
Flags: W
AnchorPoint: "Anchor-1" 381 0 basechar 0
AnchorPoint: "Anchor-0" 680 0 basechar 0
LayerCount: 2
Fore
SplineSet
453 205 m 2,0,1
 453 132 453 132 425 82 c 128,-1,2
 397 32 397 32 348 7 c 128,-1,3
 299 -18 299 -18 236 -18 c 0,4,5
 180 -18 180 -18 138 2 c 128,-1,6
 96 22 96 22 73 57 c 128,-1,7
 50 92 50 92 50 136 c 0,8,9
 50 201 50 201 96 244 c 128,-1,10
 142 287 142 287 225 287 c 2,11,-1
 504 287 l 2,12,13
 560 287 560 287 600 268 c 128,-1,14
 640 249 640 249 661.5 216 c 128,-1,15
 683 183 683 183 683 140 c 0,16,17
 683 95 683 95 660.5 59 c 128,-1,18
 638 23 638 23 595 2.5 c 128,-1,19
 552 -18 552 -18 492 -18 c 1,20,-1
 492 17 l 1,21,22
 563 17 563 17 599 51.5 c 128,-1,23
 635 86 635 86 635 140 c 0,24,25
 635 188 635 188 602.5 220 c 128,-1,26
 570 252 570 252 505 252 c 2,27,-1
 226 252 l 2,28,29
 164 252 164 252 131 219 c 128,-1,30
 98 186 98 186 98 135 c 0,31,32
 98 85 98 85 134.5 54.5 c 128,-1,33
 171 24 171 24 236 24 c 0,34,35
 286 24 286 24 325 44 c 128,-1,36
 364 64 364 64 386.5 104.5 c 128,-1,37
 409 145 409 145 409 205 c 2,38,-1
 409 478 l 1,39,-1
 211 478 l 1,40,-1
 211 263 l 1,41,-1
 167 263 l 1,42,-1
 167 513 l 1,43,-1
 622 513 l 1,44,-1
 627 478 l 1,45,-1
 453 478 l 1,46,-1
 453 205 l 2,0,1
EndSplineSet
EndChar

StartChar: l
Encoding: 108 108 41
Width: 1007
Flags: W
AnchorPoint: "Anchor-1" 564 0 basechar 0
AnchorPoint: "Anchor-0" 1033 0 basechar 0
LayerCount: 2
Fore
SplineSet
817 513 m 1,0,-1
 862 527 l 1,1,2
 892 478 892 478 910.5 425.5 c 128,-1,3
 929 373 929 373 938 323.5 c 128,-1,4
 947 274 947 274 947 235 c 0,5,6
 947 159 947 159 926.5 102 c 128,-1,7
 906 45 906 45 867 13.5 c 128,-1,8
 828 -18 828 -18 771 -18 c 0,9,10
 723 -18 723 -18 685 5.5 c 128,-1,11
 647 29 647 29 625 79.5 c 128,-1,12
 603 130 603 130 603 210 c 2,13,-1
 603 255 l 2,14,15
 603 328 603 328 573 380.5 c 128,-1,16
 543 433 543 433 490 461 c 128,-1,17
 437 489 437 489 368 489 c 0,18,19
 285 489 285 489 226.5 456.5 c 128,-1,20
 168 424 168 424 138 367 c 128,-1,21
 108 310 108 310 108 237 c 0,22,23
 108 173 108 173 136 123.5 c 128,-1,24
 164 74 164 74 216 45.5 c 128,-1,25
 268 17 268 17 339 17 c 0,26,27
 392 17 392 17 426 51 c 128,-1,28
 460 85 460 85 460 137 c 0,29,30
 460 190 460 190 426 223.5 c 128,-1,31
 392 257 392 257 339 257 c 0,32,33
 287 257 287 257 252.5 224 c 128,-1,34
 218 191 218 191 218 139 c 0,35,36
 218 86 218 86 252.5 51.5 c 128,-1,37
 287 17 287 17 339 17 c 1,38,-1
 339 -8 l 1,39,40
 292 -8 292 -8 254.5 11 c 128,-1,41
 217 30 217 30 196 63 c 128,-1,42
 175 96 175 96 175 139 c 0,43,44
 175 185 175 185 196 220 c 128,-1,45
 217 255 217 255 254.5 275.5 c 128,-1,46
 292 296 292 296 339 296 c 0,47,48
 388 296 388 296 425.5 275.5 c 128,-1,49
 463 255 463 255 485 219.5 c 128,-1,50
 507 184 507 184 507 137 c 0,51,52
 507 92 507 92 485 57 c 128,-1,53
 463 22 463 22 425.5 2 c 128,-1,54
 388 -18 388 -18 339 -18 c 0,55,56
 254 -18 254 -18 191 15 c 128,-1,57
 128 48 128 48 94 105.5 c 128,-1,58
 60 163 60 163 60 237 c 0,59,60
 60 323 60 323 96.5 389 c 128,-1,61
 133 455 133 455 202 493 c 128,-1,62
 271 531 271 531 368 531 c 0,63,64
 449 531 449 531 512 497 c 128,-1,65
 575 463 575 463 611 401.5 c 128,-1,66
 647 340 647 340 647 255 c 2,67,-1
 647 210 l 2,68,69
 647 110 647 110 682 67 c 128,-1,70
 717 24 717 24 771 24 c 0,71,72
 832 24 832 24 865.5 80 c 128,-1,73
 899 136 899 136 899 233 c 0,74,75
 899 271 899 271 890.5 321 c 128,-1,76
 882 371 882 371 864 422 c 128,-1,77
 846 473 846 473 817 513 c 1,0,-1
EndSplineSet
EndChar

StartChar: m
Encoding: 109 109 42
Width: 786
Flags: W
AnchorPoint: "Anchor-1" 454 0 basechar 0
AnchorPoint: "Anchor-0" 799 0 basechar 0
LayerCount: 2
Fore
SplineSet
144 35 m 1,0,-1
 144 518 l 1,1,-1
 100 513 l 1,2,-1
 100 0 l 1,3,-1
 537 0 l 2,4,5
 605 0 605 0 646.5 30 c 128,-1,6
 688 60 688 60 707 112 c 128,-1,7
 726 164 726 164 726 231 c 0,8,9
 726 318 726 318 702 386 c 128,-1,10
 678 454 678 454 633 492.5 c 128,-1,11
 588 531 588 531 525 531 c 0,12,13
 481 531 481 531 446 512 c 128,-1,14
 411 493 411 493 391.5 454 c 128,-1,15
 372 415 372 415 372 355 c 2,16,-1
 372 10 l 1,17,-1
 416 19 l 1,18,-1
 416 356 l 2,19,20
 416 430 416 430 448 459.5 c 128,-1,21
 480 489 480 489 528 489 c 256,22,23
 576 489 576 489 609.5 456 c 128,-1,24
 643 423 643 423 660.5 364.5 c 128,-1,25
 678 306 678 306 678 231 c 0,26,27
 678 175 678 175 665.5 130.5 c 128,-1,28
 653 86 653 86 622.5 60.5 c 128,-1,29
 592 35 592 35 537 35 c 2,30,-1
 144 35 l 1,0,-1
EndSplineSet
EndChar

StartChar: n
Encoding: 110 110 43
Width: 734
Flags: W
AnchorPoint: "Anchor-1" 361 0 basechar 0
AnchorPoint: "Anchor-0" 634 0 basechar 0
LayerCount: 2
Fore
SplineSet
514 343 m 0,0,1
 568 343 568 343 603.5 315 c 128,-1,2
 639 287 639 287 656.5 237.5 c 128,-1,3
 674 188 674 188 674 123 c 0,4,5
 674 45 674 45 643.5 -20.5 c 128,-1,6
 613 -86 613 -86 551.5 -125 c 128,-1,7
 490 -164 490 -164 397 -164 c 2,8,-1
 300 -164 l 2,9,10
 242 -164 242 -164 199 -186 c 128,-1,11
 156 -208 156 -208 134 -243 c 1,12,-1
 100 -222 l 1,13,14
 124 -181 124 -181 178.5 -155 c 128,-1,15
 233 -129 233 -129 300 -129 c 2,16,-1
 397 -129 l 2,17,18
 475 -129 475 -129 526 -94 c 128,-1,19
 577 -59 577 -59 602 -1.5 c 128,-1,20
 627 56 627 56 627 125 c 0,21,22
 627 204 627 204 599 252.5 c 128,-1,23
 571 301 571 301 511 301 c 0,24,25
 456 301 456 301 421 263 c 128,-1,26
 386 225 386 225 386 166 c 2,27,-1
 386 0 l 1,28,-1
 342 0 l 1,29,-1
 342 478 l 1,30,-1
 144 478 l 1,31,-1
 144 0 l 1,32,-1
 100 0 l 1,33,-1
 100 513 l 1,34,-1
 582 513 l 1,35,-1
 587 478 l 1,36,-1
 386 478 l 1,37,-1
 386 282 l 1,38,39
 409 311 409 311 441.5 327 c 128,-1,40
 474 343 474 343 514 343 c 0,0,1
EndSplineSet
EndChar

StartChar: o
Encoding: 111 111 44
Width: 2494
Flags: W
LayerCount: 2
Fore
SplineSet
1030 459 m 256,0,1
 1043 459 1043 459 1051 467 c 128,-1,2
 1059 475 1059 475 1059 488 c 256,3,4
 1059 501 1059 501 1051 509.5 c 128,-1,5
 1043 518 1043 518 1030 518 c 256,6,7
 1017 518 1017 518 1009 509.5 c 128,-1,8
 1001 501 1001 501 1001 488 c 256,9,10
 1001 475 1001 475 1009 467 c 128,-1,11
 1017 459 1017 459 1030 459 c 256,0,1
1120 444 m 0,12,13
 1133 444 1133 444 1141 452 c 128,-1,14
 1149 460 1149 460 1149 473 c 256,15,16
 1149 486 1149 486 1141 494 c 128,-1,17
 1133 502 1133 502 1120 502 c 256,18,19
 1107 502 1107 502 1099 494 c 128,-1,20
 1091 486 1091 486 1091 473 c 0,21,22
 1091 444 1091 444 1120 444 c 0,12,13
941 502 m 256,23,24
 928 502 928 502 920 494 c 128,-1,25
 912 486 912 486 912 473 c 256,26,27
 912 460 912 460 920 452 c 128,-1,28
 928 444 928 444 941 444 c 256,29,30
 954 444 954 444 962 452 c 128,-1,31
 970 460 970 460 970 473 c 256,32,33
 970 486 970 486 962 494 c 128,-1,34
 954 502 954 502 941 502 c 256,23,24
1196 393 m 256,35,36
 1209 393 1209 393 1217.5 401 c 128,-1,37
 1226 409 1226 409 1226 422 c 256,38,39
 1226 435 1226 435 1217.5 443.5 c 128,-1,40
 1209 452 1209 452 1196 452 c 256,41,42
 1183 452 1183 452 1175 443.5 c 128,-1,43
 1167 435 1167 435 1167 422 c 256,44,45
 1167 409 1167 409 1175 401 c 128,-1,46
 1183 393 1183 393 1196 393 c 256,35,36
865 452 m 256,47,48
 852 452 852 452 843.5 443.5 c 128,-1,49
 835 435 835 435 835 422 c 256,50,51
 835 409 835 409 843.5 401 c 128,-1,52
 852 393 852 393 865 393 c 256,53,54
 878 393 878 393 886 401 c 128,-1,55
 894 409 894 409 894 422 c 256,56,57
 894 435 894 435 886 443.5 c 128,-1,58
 878 452 878 452 865 452 c 256,47,48
1244 314 m 256,59,60
 1257 314 1257 314 1265 322 c 128,-1,61
 1273 330 1273 330 1273 343 c 256,62,63
 1273 356 1273 356 1265 364.5 c 128,-1,64
 1257 373 1257 373 1244 373 c 256,65,66
 1231 373 1231 373 1223 364.5 c 128,-1,67
 1215 356 1215 356 1215 343 c 256,68,69
 1215 330 1215 330 1223 322 c 128,-1,70
 1231 314 1231 314 1244 314 c 256,59,60
817 373 m 256,71,72
 804 373 804 373 795.5 364.5 c 128,-1,73
 787 356 787 356 787 343 c 256,74,75
 787 330 787 330 795.5 322 c 128,-1,76
 804 314 804 314 817 314 c 256,77,78
 830 314 830 314 838 322 c 128,-1,79
 846 330 846 330 846 343 c 256,80,81
 846 356 846 356 838 364.5 c 128,-1,82
 830 373 830 373 817 373 c 256,71,72
1258 229 m 256,83,84
 1271 229 1271 229 1279.5 236.5 c 128,-1,85
 1288 244 1288 244 1288 257 c 0,86,87
 1288 271 1288 271 1279.5 279 c 128,-1,88
 1271 287 1271 287 1258 287 c 256,89,90
 1245 287 1245 287 1237 279 c 128,-1,91
 1229 271 1229 271 1229 257 c 0,92,93
 1229 244 1229 244 1237 236.5 c 128,-1,94
 1245 229 1245 229 1258 229 c 256,83,84
803 287 m 256,95,96
 790 287 790 287 781.5 279 c 128,-1,97
 773 271 773 271 773 257 c 0,98,99
 773 244 773 244 781.5 236.5 c 128,-1,100
 790 229 790 229 803 229 c 256,101,102
 816 229 816 229 824 236.5 c 128,-1,103
 832 244 832 244 832 257 c 0,104,105
 832 271 832 271 824 279 c 128,-1,106
 816 287 816 287 803 287 c 256,95,96
1244 145 m 256,107,108
 1257 145 1257 145 1265 153 c 128,-1,109
 1273 161 1273 161 1273 174 c 256,110,111
 1273 187 1273 187 1265 195 c 128,-1,112
 1257 203 1257 203 1244 203 c 256,113,114
 1231 203 1231 203 1223 195 c 128,-1,115
 1215 187 1215 187 1215 174 c 256,116,117
 1215 161 1215 161 1223 153 c 128,-1,118
 1231 145 1231 145 1244 145 c 256,107,108
817 203 m 256,119,120
 804 203 804 203 795.5 195 c 128,-1,121
 787 187 787 187 787 174 c 256,122,123
 787 161 787 161 795.5 153 c 128,-1,124
 804 145 804 145 817 145 c 256,125,126
 830 145 830 145 838 153 c 128,-1,127
 846 161 846 161 846 174 c 256,128,129
 846 187 846 187 838 195 c 128,-1,130
 830 203 830 203 817 203 c 256,119,120
1197 65 m 256,131,132
 1210 65 1210 65 1218.5 73 c 128,-1,133
 1227 81 1227 81 1227 94 c 256,134,135
 1227 107 1227 107 1218.5 115 c 128,-1,136
 1210 123 1210 123 1197 123 c 256,137,138
 1184 123 1184 123 1176 115 c 128,-1,139
 1168 107 1168 107 1168 94 c 256,140,141
 1168 81 1168 81 1176 73 c 128,-1,142
 1184 65 1184 65 1197 65 c 256,131,132
864 123 m 256,143,144
 851 123 851 123 842.5 115 c 128,-1,145
 834 107 834 107 834 94 c 256,146,147
 834 81 834 81 842.5 73 c 128,-1,148
 851 65 851 65 864 65 c 256,149,150
 877 65 877 65 885 73 c 128,-1,151
 893 81 893 81 893 94 c 256,152,153
 893 107 893 107 885 115 c 128,-1,154
 877 123 877 123 864 123 c 256,143,144
941 74 m 256,155,156
 928 74 928 74 920 65.5 c 128,-1,157
 912 57 912 57 912 44 c 256,158,159
 912 31 912 31 920 23 c 128,-1,160
 928 15 928 15 941 15 c 256,161,162
 954 15 954 15 962 23 c 128,-1,163
 970 31 970 31 970 44 c 256,164,165
 970 57 970 57 962 65.5 c 128,-1,166
 954 74 954 74 941 74 c 256,155,156
1120 15 m 256,167,168
 1133 15 1133 15 1141 23 c 128,-1,169
 1149 31 1149 31 1149 44 c 256,170,171
 1149 57 1149 57 1141 65.5 c 128,-1,172
 1133 74 1133 74 1120 74 c 256,173,174
 1107 74 1107 74 1099 65.5 c 128,-1,175
 1091 57 1091 57 1091 44 c 256,176,177
 1091 31 1091 31 1099 23 c 128,-1,178
 1107 15 1107 15 1120 15 c 256,167,168
1030 0 m 256,179,180
 1043 0 1043 0 1051 8 c 128,-1,181
 1059 16 1059 16 1059 29 c 256,182,183
 1059 42 1059 42 1051 50.5 c 128,-1,184
 1043 59 1043 59 1030 59 c 256,185,186
 1017 59 1017 59 1009 50.5 c 128,-1,187
 1001 42 1001 42 1001 29 c 256,188,189
 1001 16 1001 16 1009 8 c 128,-1,190
 1017 0 1017 0 1030 0 c 256,179,180
1403 237 m 0,191,192
 1403 173 1403 173 1431 123.5 c 128,-1,193
 1459 74 1459 74 1511 45.5 c 128,-1,194
 1563 17 1563 17 1634 17 c 0,195,196
 1687 17 1687 17 1721 51 c 128,-1,197
 1755 85 1755 85 1755 137 c 0,198,199
 1755 190 1755 190 1721 223.5 c 128,-1,200
 1687 257 1687 257 1634 257 c 0,201,202
 1582 257 1582 257 1547.5 224 c 128,-1,203
 1513 191 1513 191 1513 139 c 0,204,205
 1513 86 1513 86 1547.5 51.5 c 128,-1,206
 1582 17 1582 17 1634 17 c 1,207,-1
 1634 -8 l 1,208,209
 1587 -8 1587 -8 1549.5 11 c 128,-1,210
 1512 30 1512 30 1491 63 c 128,-1,211
 1470 96 1470 96 1470 139 c 0,212,213
 1470 185 1470 185 1491 220 c 128,-1,214
 1512 255 1512 255 1549.5 275.5 c 128,-1,215
 1587 296 1587 296 1634 296 c 0,216,217
 1683 296 1683 296 1720.5 275.5 c 128,-1,218
 1758 255 1758 255 1780 219.5 c 128,-1,219
 1802 184 1802 184 1802 137 c 0,220,221
 1802 92 1802 92 1780 57 c 128,-1,222
 1758 22 1758 22 1720.5 2 c 128,-1,223
 1683 -18 1683 -18 1634 -18 c 0,224,225
 1549 -18 1549 -18 1486 15 c 128,-1,226
 1423 48 1423 48 1389 105.5 c 128,-1,227
 1355 163 1355 163 1355 237 c 0,228,229
 1355 323 1355 323 1392 389 c 128,-1,230
 1429 455 1429 455 1498.5 493 c 128,-1,231
 1568 531 1568 531 1665 531 c 0,232,233
 1752 531 1752 531 1820 491.5 c 128,-1,234
 1888 452 1888 452 1925 384 c 1,235,-1
 1925 513 l 1,236,-1
 2479 513 l 1,237,-1
 2484 478 l 1,238,-1
 2283 478 l 1,239,-1
 2283 0 l 1,240,-1
 2239 0 l 1,241,-1
 2239 478 l 1,242,-1
 1969 478 l 1,243,-1
 1969 0 l 1,244,-1
 1925 0 l 1,245,-1
 1925 228 l 2,246,247
 1925 304 1925 304 1891.5 362.5 c 128,-1,248
 1858 421 1858 421 1799.5 455 c 128,-1,249
 1741 489 1741 489 1665 489 c 0,250,251
 1582 489 1582 489 1523 456.5 c 128,-1,252
 1464 424 1464 424 1433.5 367 c 128,-1,253
 1403 310 1403 310 1403 237 c 0,191,192
683 345 m 2,254,-1
 683 0 l 1,255,-1
 639 0 l 1,256,-1
 639 345 l 2,257,258
 639 439 639 439 607.5 503 c 128,-1,259
 576 567 576 567 517.5 600 c 128,-1,260
 459 633 459 633 379 633 c 0,261,262
 296 633 296 633 235 594 c 128,-1,263
 174 555 174 555 141 486 c 128,-1,264
 108 417 108 417 108 327 c 256,265,266
 108 237 108 237 138 167 c 128,-1,267
 168 97 168 97 220 57 c 128,-1,268
 272 17 272 17 339 17 c 0,269,270
 392 17 392 17 426 51 c 128,-1,271
 460 85 460 85 460 137 c 0,272,273
 460 190 460 190 426 223.5 c 128,-1,274
 392 257 392 257 339 257 c 0,275,276
 287 257 287 257 252.5 224 c 128,-1,277
 218 191 218 191 218 139 c 0,278,279
 218 86 218 86 252.5 51.5 c 128,-1,280
 287 17 287 17 339 17 c 1,281,-1
 339 -8 l 1,282,283
 292 -8 292 -8 254.5 11 c 128,-1,284
 217 30 217 30 196 63 c 128,-1,285
 175 96 175 96 175 139 c 0,286,287
 175 185 175 185 196 220 c 128,-1,288
 217 255 217 255 254.5 275.5 c 128,-1,289
 292 296 292 296 339 296 c 0,290,291
 388 296 388 296 425.5 275.5 c 128,-1,292
 463 255 463 255 485 219.5 c 128,-1,293
 507 184 507 184 507 137 c 0,294,295
 507 92 507 92 485 57 c 128,-1,296
 463 22 463 22 425.5 2 c 128,-1,297
 388 -18 388 -18 339 -18 c 0,298,299
 258 -18 258 -18 195 26.5 c 128,-1,300
 132 71 132 71 96 149 c 128,-1,301
 60 227 60 227 60 327 c 0,302,303
 60 428 60 428 99.5 506.5 c 128,-1,304
 139 585 139 585 210.5 630 c 128,-1,305
 282 675 282 675 379 675 c 0,306,307
 472 675 472 675 540 636 c 128,-1,308
 608 597 608 597 645.5 523.5 c 128,-1,309
 683 450 683 450 683 345 c 2,254,-1
EndSplineSet
EndChar

StartChar: p
Encoding: 112 112 45
Width: 706
Flags: W
AnchorPoint: "Anchor-1" 347 0 basechar 0
AnchorPoint: "Anchor-0" 768 0 basechar 0
LayerCount: 2
Fore
SplineSet
606 513 m 1,0,-1
 606 0 l 1,1,-1
 100 0 l 1,2,-1
 100 513 l 1,3,-1
 144 518 l 1,4,-1
 144 35 l 1,5,-1
 562 35 l 1,6,-1
 562 513 l 1,7,-1
 606 513 l 1,0,-1
EndSplineSet
EndChar

StartChar: q
Encoding: 113 113 46
Width: 508
Flags: W
LayerCount: 2
Fore
SplineSet
405 485 m 1,0,-1
 383 419 l 1,1,-1
 383 -219 l 1,2,-1
 432 -208 l 1,3,-1
 432 485 l 1,4,-1
 405 485 l 1,0,-1
388 99 m 1,5,6
 362 70 362 70 330.5 49 c 128,-1,7
 299 28 299 28 249 28 c 0,8,9
 195 28 195 28 160 57.5 c 128,-1,10
 125 87 125 87 108 137 c 128,-1,11
 91 187 91 187 91 246 c 0,12,13
 91 303 91 303 109.5 351 c 128,-1,14
 128 399 128 399 164.5 428 c 128,-1,15
 201 457 201 457 254 457 c 0,16,17
 300 457 300 457 334 437 c 128,-1,18
 368 417 368 417 393 393 c 1,19,-1
 413 426 l 1,20,21
 400 441 400 441 375 457.5 c 128,-1,22
 350 474 350 474 319 486 c 128,-1,23
 288 498 288 498 256 498 c 0,24,25
 185 498 185 498 136.5 465 c 128,-1,26
 88 432 88 432 64 375 c 128,-1,27
 40 318 40 318 40 245 c 0,28,29
 40 170 40 170 62.5 111.5 c 128,-1,30
 85 53 85 53 131.5 20 c 128,-1,31
 178 -13 178 -13 249 -13 c 0,32,33
 282 -13 282 -13 310.5 -3.5 c 128,-1,34
 339 6 339 6 363.5 24 c 128,-1,35
 388 42 388 42 408 65 c 1,36,-1
 388 99 l 1,5,6
EndSplineSet
EndChar

StartChar: r
Encoding: 114 114 47
Width: 669
Flags: W
AnchorPoint: "Anchor-1" 330 0 basechar 0
AnchorPoint: "Anchor-0" 692 0 basechar 0
LayerCount: 2
Fore
SplineSet
659 478 m 1,0,-1
 458 478 l 1,1,-1
 458 26 l 2,2,3
 458 -13 458 -13 453 -37.5 c 128,-1,4
 448 -62 448 -62 433.5 -79.5 c 128,-1,5
 419 -97 419 -97 390 -115 c 2,6,-1
 163 -250 l 1,7,-1
 142 -215 l 1,8,-1
 365 -80 l 2,9,10
 386 -67 386 -67 396.5 -53 c 128,-1,11
 407 -39 407 -39 410.5 -19 c 128,-1,12
 414 1 414 1 414 33 c 2,13,-1
 414 478 l 1,14,-1
 144 478 l 1,15,-1
 144 0 l 1,16,-1
 100 0 l 1,17,-1
 100 513 l 1,18,-1
 654 513 l 1,19,-1
 659 478 l 1,0,-1
EndSplineSet
EndChar

StartChar: s
Encoding: 115 115 48
Width: 1277
Flags: W
AnchorPoint: "Anchor-1" 596 0 basechar 0
AnchorPoint: "Anchor-0" 1305 0 basechar 0
LayerCount: 2
Fore
SplineSet
603 0 m 1,0,-1
 603 255 l 2,1,2
 603 328 603 328 573 380.5 c 128,-1,3
 543 433 543 433 490 461 c 128,-1,4
 437 489 437 489 368 489 c 0,5,6
 285 489 285 489 226.5 456.5 c 128,-1,7
 168 424 168 424 138 367 c 128,-1,8
 108 310 108 310 108 237 c 0,9,10
 108 173 108 173 136 123.5 c 128,-1,11
 164 74 164 74 216 45.5 c 128,-1,12
 268 17 268 17 339 17 c 0,13,14
 392 17 392 17 426 51 c 128,-1,15
 460 85 460 85 460 137 c 0,16,17
 460 190 460 190 426 223.5 c 128,-1,18
 392 257 392 257 339 257 c 0,19,20
 287 257 287 257 252.5 224 c 128,-1,21
 218 191 218 191 218 139 c 0,22,23
 218 86 218 86 252.5 51.5 c 128,-1,24
 287 17 287 17 339 17 c 1,25,-1
 339 -8 l 1,26,27
 292 -8 292 -8 254.5 11 c 128,-1,28
 217 30 217 30 196 63 c 128,-1,29
 175 96 175 96 175 139 c 0,30,31
 175 185 175 185 196 220 c 128,-1,32
 217 255 217 255 254.5 275.5 c 128,-1,33
 292 296 292 296 339 296 c 0,34,35
 388 296 388 296 425.5 275.5 c 128,-1,36
 463 255 463 255 485 219.5 c 128,-1,37
 507 184 507 184 507 137 c 0,38,39
 507 92 507 92 485 57 c 128,-1,40
 463 22 463 22 425.5 2 c 128,-1,41
 388 -18 388 -18 339 -18 c 0,42,43
 254 -18 254 -18 191 15 c 128,-1,44
 128 48 128 48 94 105.5 c 128,-1,45
 60 163 60 163 60 237 c 0,46,47
 60 323 60 323 96.5 389 c 128,-1,48
 133 455 133 455 202 493 c 128,-1,49
 271 531 271 531 368 531 c 0,50,51
 454 531 454 531 519 493.5 c 128,-1,52
 584 456 584 456 618 388 c 1,53,54
 635 453 635 453 671.5 492 c 128,-1,55
 708 531 708 531 769 531 c 0,56,57
 812 531 812 531 845.5 511.5 c 128,-1,58
 879 492 879 492 898.5 449 c 128,-1,59
 918 406 918 406 918 337 c 2,60,-1
 918 210 l 2,61,62
 918 110 918 110 953 67 c 128,-1,63
 988 24 988 24 1042 24 c 0,64,65
 1103 24 1103 24 1136.5 80 c 128,-1,66
 1170 136 1170 136 1170 233 c 0,67,68
 1170 271 1170 271 1161.5 321 c 128,-1,69
 1153 371 1153 371 1135 422 c 128,-1,70
 1117 473 1117 473 1088 513 c 1,71,-1
 1133 527 l 1,72,73
 1163 478 1163 478 1181.5 425.5 c 128,-1,74
 1200 373 1200 373 1208.5 323.5 c 128,-1,75
 1217 274 1217 274 1217 235 c 0,76,77
 1217 159 1217 159 1197 102 c 128,-1,78
 1177 45 1177 45 1138 13.5 c 128,-1,79
 1099 -18 1099 -18 1042 -18 c 0,80,81
 994 -18 994 -18 956 5.5 c 128,-1,82
 918 29 918 29 896 79.5 c 128,-1,83
 874 130 874 130 874 210 c 2,84,-1
 874 338 l 2,85,86
 874 424 874 424 844 456.5 c 128,-1,87
 814 489 814 489 769 489 c 0,88,89
 726 489 726 489 699 459 c 128,-1,90
 672 429 672 429 659.5 376 c 128,-1,91
 647 323 647 323 647 255 c 2,92,-1
 647 0 l 1,93,-1
 603 0 l 1,0,-1
EndSplineSet
EndChar

StartChar: t
Encoding: 116 116 49
Width: 714
Flags: W
AnchorPoint: "Anchor-1" 390 0 basechar 0
LayerCount: 2
Fore
SplineSet
699 35 m 1,0,-1
 144 35 l 1,1,-1
 144 518 l 1,2,-1
 100 513 l 1,3,-1
 100 0 l 1,4,-1
 704 0 l 1,5,-1
 699 35 l 1,0,-1
EndSplineSet
EndChar

StartChar: u
Encoding: 117 117 50
Width: 460
Flags: W
LayerCount: 2
Fore
SplineSet
252 478 m 2,0,-1
 -144 478 l 1,1,-1
 -144 513 l 1,2,-1
 252 513 l 2,3,4
 301 513 301 513 338.5 493 c 128,-1,5
 376 473 376 473 398 438 c 128,-1,6
 420 403 420 403 420 358 c 0,7,8
 420 312 420 312 398 276 c 128,-1,9
 376 240 376 240 338.5 219.5 c 128,-1,10
 301 199 301 199 252 199 c 0,11,12
 205 199 205 199 167.5 219.5 c 128,-1,13
 130 240 130 240 109 275.5 c 128,-1,14
 88 311 88 311 88 356 c 256,15,16
 88 401 88 401 109 436.5 c 128,-1,17
 130 472 130 472 167.5 492 c 128,-1,18
 205 512 205 512 252 512 c 1,19,-1
 252 478 l 1,20,21
 200 478 200 478 165.5 443.5 c 128,-1,22
 131 409 131 409 131 356 c 0,23,24
 131 304 131 304 165.5 271 c 128,-1,25
 200 238 200 238 252 238 c 0,26,27
 305 238 305 238 339 272 c 128,-1,28
 373 306 373 306 373 358 c 0,29,30
 373 411 373 411 339 444.5 c 128,-1,31
 305 478 305 478 252 478 c 2,0,-1
EndSplineSet
EndChar

StartChar: v
Encoding: 118 118 51
Width: 1027
Flags: W
AnchorPoint: "Anchor-1" 562 0 basechar 0
AnchorPoint: "Anchor-0" 1084 0 basechar 0
LayerCount: 2
Fore
SplineSet
639 255 m 0,0,1
 639 323 639 323 608.5 376 c 128,-1,2
 578 429 578 429 520 459 c 128,-1,3
 462 489 462 489 379 489 c 256,4,5
 296 489 296 489 235 456.5 c 128,-1,6
 174 424 174 424 141 367 c 128,-1,7
 108 310 108 310 108 237 c 0,8,9
 108 173 108 173 136 123.5 c 128,-1,10
 164 74 164 74 216 45.5 c 128,-1,11
 268 17 268 17 339 17 c 0,12,13
 392 17 392 17 426 51 c 128,-1,14
 460 85 460 85 460 137 c 0,15,16
 460 190 460 190 426 223.5 c 128,-1,17
 392 257 392 257 339 257 c 0,18,19
 287 257 287 257 252.5 224 c 128,-1,20
 218 191 218 191 218 139 c 0,21,22
 218 86 218 86 252.5 51.5 c 128,-1,23
 287 17 287 17 339 17 c 1,24,-1
 339 -8 l 1,25,26
 292 -8 292 -8 254.5 11 c 128,-1,27
 217 30 217 30 196 63 c 128,-1,28
 175 96 175 96 175 139 c 0,29,30
 175 185 175 185 196 220 c 128,-1,31
 217 255 217 255 254.5 275.5 c 128,-1,32
 292 296 292 296 339 296 c 0,33,34
 388 296 388 296 425.5 275.5 c 128,-1,35
 463 255 463 255 485 219.5 c 128,-1,36
 507 184 507 184 507 137 c 0,37,38
 507 92 507 92 485 57 c 128,-1,39
 463 22 463 22 425.5 2 c 128,-1,40
 388 -18 388 -18 339 -18 c 0,41,42
 254 -18 254 -18 191 15 c 128,-1,43
 128 48 128 48 94 105.5 c 128,-1,44
 60 163 60 163 60 237 c 0,45,46
 60 323 60 323 99.5 389 c 128,-1,47
 139 455 139 455 210.5 493 c 128,-1,48
 282 531 282 531 379 531 c 0,49,50
 473 531 473 531 541.5 495.5 c 128,-1,51
 610 460 610 460 648 397.5 c 128,-1,52
 686 335 686 335 686 255 c 0,53,54
 686 191 686 191 666 133.5 c 128,-1,55
 646 76 646 76 612 35 c 1,56,-1
 883 35 l 1,57,-1
 883 513 l 1,58,-1
 927 513 l 1,59,-1
 927 0 l 1,60,-1
 551 0 l 1,61,-1
 551 35 l 1,62,63
 589 73 589 73 614 129 c 128,-1,64
 639 185 639 185 639 255 c 0,0,1
EndSplineSet
EndChar

StartChar: w
Encoding: 119 119 52
Width: 1027
Flags: W
AnchorPoint: "Anchor-1" 562 0 basechar 0
AnchorPoint: "Anchor-0" 1084 0 basechar 0
LayerCount: 2
Fore
SplineSet
337.790039062 88.759765625 m 0,0,1
 358.75 88.759765625 358.75 88.759765625 373.815429688 102.83984375 c 128,-1,2
 388.879882812 116.919921875 388.879882812 116.919921875 388.879882812 137.400390625 c 256,3,4
 388.879882812 157.879882812 388.879882812 157.879882812 373.815429688 171.959960938 c 128,-1,5
 358.75 186.040039062 358.75 186.040039062 337.790039062 186.040039062 c 0,6,7
 315.51953125 186.040039062 315.51953125 186.040039062 301.764648438 171.959960938 c 128,-1,8
 288.009765625 157.879882812 288.009765625 157.879882812 288.009765625 137.400390625 c 256,9,10
 288.009765625 116.919921875 288.009765625 116.919921875 301.764648438 102.83984375 c 128,-1,11
 315.51953125 88.759765625 315.51953125 88.759765625 337.790039062 88.759765625 c 0,0,1
639 255 m 0,12,13
 639 323 639 323 608.5 376 c 128,-1,14
 578 429 578 429 520 459 c 128,-1,15
 462 489 462 489 379 489 c 256,16,17
 296 489 296 489 235 456.5 c 128,-1,18
 174 424 174 424 141 367 c 128,-1,19
 108 310 108 310 108 237 c 0,20,21
 108 173 108 173 136 123.5 c 128,-1,22
 164 74 164 74 216 45.5 c 128,-1,23
 268 17 268 17 339 17 c 0,24,25
 392 17 392 17 426 51 c 128,-1,26
 460 85 460 85 460 137 c 0,27,28
 460 190 460 190 426 223.5 c 128,-1,29
 392 257 392 257 339 257 c 0,30,31
 287 257 287 257 252.5 224 c 128,-1,32
 218 191 218 191 218 139 c 0,33,34
 218 86 218 86 252.5 51.5 c 128,-1,35
 287 17 287 17 339 17 c 1,36,-1
 339 -8 l 1,37,38
 292 -8 292 -8 254.5 11 c 128,-1,39
 217 30 217 30 196 63 c 128,-1,40
 175 96 175 96 175 139 c 0,41,42
 175 185 175 185 196 220 c 128,-1,43
 217 255 217 255 254.5 275.5 c 128,-1,44
 292 296 292 296 339 296 c 0,45,46
 388 296 388 296 425.5 275.5 c 128,-1,47
 463 255 463 255 485 219.5 c 128,-1,48
 507 184 507 184 507 137 c 0,49,50
 507 92 507 92 485 57 c 128,-1,51
 463 22 463 22 425.5 2 c 128,-1,52
 388 -18 388 -18 339 -18 c 0,53,54
 254 -18 254 -18 191 15 c 128,-1,55
 128 48 128 48 94 105.5 c 128,-1,56
 60 163 60 163 60 237 c 0,57,58
 60 323 60 323 99.5 389 c 128,-1,59
 139 455 139 455 210.5 493 c 128,-1,60
 282 531 282 531 379 531 c 0,61,62
 473 531 473 531 541.5 495.5 c 128,-1,63
 610 460 610 460 648 397.5 c 128,-1,64
 686 335 686 335 686 255 c 0,65,66
 686 191 686 191 666 133.5 c 128,-1,67
 646 76 646 76 612 35 c 1,68,-1
 883 35 l 1,69,-1
 883 513 l 1,70,-1
 927 513 l 1,71,-1
 927 0 l 1,72,-1
 551 0 l 1,73,-1
 551 35 l 1,74,75
 589 73 589 73 614 129 c 128,-1,76
 639 185 639 185 639 255 c 0,12,13
EndSplineSet
EndChar

StartChar: x
Encoding: 120 120 53
Width: 733
Flags: W
AnchorPoint: "Anchor-1" 376 0 basechar 0
AnchorPoint: "Anchor-0" 709 0 basechar 0
LayerCount: 2
Fore
SplineSet
242.5 104 m 4,0,1
 258.5 104 258.5 104 270 115 c 132,-1,2
 281.5 126 281.5 126 281.5 142 c 260,3,4
 281.5 158 281.5 158 270 169 c 132,-1,5
 258.5 180 258.5 180 242.5 180 c 4,6,7
 225.5 180 225.5 180 215 169 c 132,-1,8
 204.5 158 204.5 158 204.5 142 c 260,9,10
 204.5 126 204.5 126 215 115 c 132,-1,11
 225.5 104 225.5 104 242.5 104 c 4,0,1
242.5 104 m 4,12,13
 258.5 104 258.5 104 270 115 c 132,-1,14
 281.5 126 281.5 126 281.5 142 c 260,15,16
 281.5 158 281.5 158 270 169 c 132,-1,17
 258.5 180 258.5 180 242.5 180 c 4,18,19
 225.5 180 225.5 180 215 169 c 132,-1,20
 204.5 158 204.5 158 204.5 142 c 260,21,22
 204.5 126 204.5 126 215 115 c 132,-1,23
 225.5 104 225.5 104 242.5 104 c 4,12,13
477 252 m 2,24,-1
 226 252 l 2,25,26
 164 252 164 252 131 219 c 128,-1,27
 98 186 98 186 98 135 c 0,28,29
 98 85 98 85 134.5 54.5 c 128,-1,30
 171 24 171 24 236 24 c 0,31,32
 286 24 286 24 325 44 c 128,-1,33
 364 64 364 64 386.5 104.5 c 128,-1,34
 409 145 409 145 409 205 c 2,35,-1
 409 478 l 1,36,-1
 211 478 l 1,37,-1
 211 263 l 1,38,-1
 167 263 l 1,39,-1
 167 513 l 1,40,-1
 622 513 l 1,41,-1
 627 478 l 1,42,-1
 453 478 l 1,43,-1
 453 205 l 2,44,45
 453 132 453 132 425 82 c 128,-1,46
 397 32 397 32 348 7 c 128,-1,47
 299 -18 299 -18 236 -18 c 0,48,49
 180 -18 180 -18 138 2 c 128,-1,50
 96 22 96 22 73 57 c 128,-1,51
 50 92 50 92 50 136 c 0,52,53
 50 201 50 201 96 244 c 128,-1,54
 142 287 142 287 225 287 c 2,55,-1
 476 287 l 2,56,57
 537 287 537 287 583.5 260 c 128,-1,58
 630 233 630 233 656.5 185.5 c 128,-1,59
 683 138 683 138 683 77 c 0,60,61
 683 7 683 7 647 -47.5 c 128,-1,62
 611 -102 611 -102 546 -133 c 128,-1,63
 481 -164 481 -164 392 -164 c 2,64,-1
 250 -164 l 2,65,66
 192 -164 192 -164 149 -186 c 128,-1,67
 106 -208 106 -208 84 -243 c 1,68,-1
 50 -222 l 1,69,70
 74 -181 74 -181 128.5 -155 c 128,-1,71
 183 -129 183 -129 250 -129 c 2,72,-1
 392 -129 l 2,73,74
 467 -129 467 -129 521.5 -102.5 c 128,-1,75
 576 -76 576 -76 605.5 -29 c 128,-1,76
 635 18 635 18 635 77 c 0,77,78
 635 128 635 128 615 167.5 c 128,-1,79
 595 207 595 207 559.5 229.5 c 128,-1,80
 524 252 524 252 477 252 c 2,24,-1
EndSplineSet
EndChar

StartChar: y
Encoding: 121 121 54
Width: 886
Flags: W
AnchorPoint: "Anchor-1" 417 0 basechar 0
AnchorPoint: "Anchor-0" 936 0 basechar 0
LayerCount: 2
Fore
SplineSet
786 513 m 1,0,-1
 786 0 l 1,1,-1
 379 0 l 1,2,-1
 379 513 l 1,3,-1
 423 513 l 1,4,-1
 423 35 l 1,5,-1
 742 35 l 1,6,-1
 742 513 l 1,7,-1
 786 513 l 1,0,-1
90 513 m 1,8,-1
 134 518 l 1,9,-1
 134 175 l 2,10,11
 134 90 134 90 167.5 57 c 128,-1,12
 201 24 201 24 252 24 c 0,13,14
 314 24 314 24 346.5 72 c 128,-1,15
 379 120 379 120 379 193 c 1,16,-1
 414 193 l 1,17,18
 414 132 414 132 395 84 c 128,-1,19
 376 36 376 36 340 9 c 128,-1,20
 304 -18 304 -18 252 -18 c 0,21,22
 205 -18 205 -18 168.5 1.5 c 128,-1,23
 132 21 132 21 111 64 c 128,-1,24
 90 107 90 107 90 176 c 2,25,-1
 90 513 l 1,8,-1
EndSplineSet
EndChar

StartChar: z
Encoding: 122 122 55
Width: 841
Flags: W
AnchorPoint: "Anchor-1" 430 0 basechar 0
AnchorPoint: "Anchor-0" 880 0 basechar 0
LayerCount: 2
Fore
SplineSet
463 274 m 1,0,-1
 419 274 l 1,1,-1
 419 343 l 2,2,3
 419 408 419 408 377.5 448.5 c 128,-1,4
 336 489 336 489 271 489 c 0,5,6
 219 489 219 489 183 470 c 128,-1,7
 147 451 147 451 129 417.5 c 128,-1,8
 111 384 111 384 111 339 c 0,9,10
 111 314 111 314 128 297 c 128,-1,11
 145 280 145 280 170 280 c 0,12,13
 196 280 196 280 213.5 296.5 c 128,-1,14
 231 313 231 313 232 338 c 0,15,16
 232 365 232 365 215 383 c 128,-1,17
 198 401 198 401 172 401 c 0,18,19
 145 401 145 401 127.5 383 c 128,-1,20
 110 365 110 365 111 339 c 1,21,-1
 81 338 l 1,22,23
 80 382 80 382 106.5 409.5 c 128,-1,24
 133 437 133 437 173 437 c 0,25,26
 220 437 220 437 248.5 409.5 c 128,-1,27
 277 382 277 382 275 338 c 0,28,29
 274 298 274 298 244.5 271 c 128,-1,30
 215 244 215 244 170 245 c 256,31,32
 125 246 125 246 96 273 c 128,-1,33
 67 300 67 300 67 342 c 0,34,35
 67 397 67 397 93.5 439.5 c 128,-1,36
 120 482 120 482 166 506.5 c 128,-1,37
 212 531 212 531 271 531 c 0,38,39
 317 531 317 531 351.5 515 c 128,-1,40
 386 499 386 499 411.5 472.5 c 128,-1,41
 437 446 437 446 454 412 c 1,42,-1
 454 368 l 1,43,-1
 426 368 l 1,44,-1
 426 412 l 1,45,46
 452 462 452 462 495 496.5 c 128,-1,47
 538 531 538 531 605 531 c 0,48,49
 656 531 656 531 695.5 508.5 c 128,-1,50
 735 486 735 486 758 447 c 128,-1,51
 781 408 781 408 781 358 c 0,52,53
 781 296 781 296 748.5 255 c 128,-1,54
 716 214 716 214 656 190.5 c 128,-1,55
 596 167 596 167 511 156 c 2,56,-1
 330 131 l 2,57,58
 270 123 270 123 219.5 103 c 128,-1,59
 169 83 169 83 139 50 c 128,-1,60
 109 17 109 17 108 -32 c 0,61,62
 108 -90 108 -90 141 -126.5 c 128,-1,63
 174 -163 174 -163 231 -163 c 0,64,65
 271 -163 271 -163 309.5 -139.5 c 128,-1,66
 348 -116 348 -116 387 -81.5 c 128,-1,67
 426 -47 426 -47 466 -12 c 128,-1,68
 506 23 506 23 548 46.5 c 128,-1,69
 590 70 590 70 635 70 c 0,70,71
 678 70 678 70 710.5 53 c 128,-1,72
 743 36 743 36 762 5.5 c 128,-1,73
 781 -25 781 -25 781 -64 c 0,74,75
 781 -104 781 -104 759.5 -135 c 128,-1,76
 738 -166 738 -166 699.5 -184 c 128,-1,77
 661 -202 661 -202 609 -202 c 2,78,-1
 488 -202 l 1,79,-1
 488 -167 l 1,80,-1
 609 -167 l 2,81,82
 667 -167 667 -167 700 -137.5 c 128,-1,83
 733 -108 733 -108 733 -64 c 0,84,85
 733 -23 733 -23 706 2.5 c 128,-1,86
 679 28 679 28 635 28 c 0,87,88
 603 28 603 28 571.5 11 c 128,-1,89
 540 -6 540 -6 509 -32.5 c 128,-1,90
 478 -59 478 -59 445.5 -88.5 c 128,-1,91
 413 -118 413 -118 379 -144.5 c 128,-1,92
 345 -171 345 -171 308.5 -188 c 128,-1,93
 272 -205 272 -205 231 -205 c 0,94,95
 180 -205 180 -205 141.5 -182.5 c 128,-1,96
 103 -160 103 -160 81.5 -121 c 128,-1,97
 60 -82 60 -82 60 -32 c 0,98,99
 60 29 60 29 93 69.5 c 128,-1,100
 126 110 126 110 186.5 134.5 c 128,-1,101
 247 159 247 159 330 170 c 2,102,-1
 511 194 l 2,103,104
 572 202 572 202 622 222 c 128,-1,105
 672 242 672 242 702.5 276 c 128,-1,106
 733 310 733 310 733 358 c 0,107,108
 733 417 733 417 698 453 c 128,-1,109
 663 489 663 489 605 489 c 0,110,111
 564 489 564 489 532 470.5 c 128,-1,112
 500 452 500 452 481.5 419 c 128,-1,113
 463 386 463 386 463 343 c 2,114,-1
 463 274 l 1,0,-1
EndSplineSet
EndChar

StartChar: zero
Encoding: 48 48 56
Width: 570
Flags: W
LayerCount: 2
Fore
SplineSet
40 288 m 0,0,1
 40 201 40 201 71.5 133 c 128,-1,2
 103 65 103 65 159 26 c 128,-1,3
 215 -13 215 -13 286 -13 c 256,4,5
 357 -13 357 -13 412 26 c 128,-1,6
 467 65 467 65 498.5 133.5 c 128,-1,7
 530 202 530 202 530 289 c 0,8,9
 530 373 530 373 498.5 438.5 c 128,-1,10
 467 504 467 504 412 541.5 c 128,-1,11
 357 579 357 579 286 579 c 256,12,13
 215 579 215 579 159 541.5 c 128,-1,14
 103 504 103 504 71.5 438.5 c 128,-1,15
 40 373 40 373 40 288 c 0,0,1
91 291 m 0,16,17
 91 363 91 363 116 418.5 c 128,-1,18
 141 474 141 474 185.5 506 c 128,-1,19
 230 538 230 538 286 538 c 256,20,21
 342 538 342 538 385.5 505.5 c 128,-1,22
 429 473 429 473 454 416 c 128,-1,23
 479 359 479 359 479 286 c 0,24,25
 479 211 479 211 454 152.5 c 128,-1,26
 429 94 429 94 385.5 61 c 128,-1,27
 342 28 342 28 286 28 c 256,28,29
 230 28 230 28 185.5 62 c 128,-1,30
 141 96 141 96 116 155.5 c 128,-1,31
 91 215 91 215 91 291 c 0,16,17
EndSplineSet
EndChar

StartChar: one
Encoding: 49 49 57
Width: 300
Flags: W
LayerCount: 2
Fore
SplineSet
220 0 m 1,0,-1
 220 566 l 1,1,-1
 185 566 l 1,2,-1
 10 481 l 1,3,-1
 28 445 l 1,4,-1
 171 508 l 1,5,-1
 171 0 l 1,6,-1
 220 0 l 1,0,-1
EndSplineSet
EndChar

StartChar: two
Encoding: 50 50 58
Width: 470
Flags: W
LayerCount: 2
Fore
SplineSet
219 579 m 0,0,1
 155 579 155 579 110.5 561.5 c 128,-1,2
 66 544 66 544 38 527 c 1,3,-1
 60 493 l 1,4,5
 78 503 78 503 100.5 513.5 c 128,-1,6
 123 524 123 524 152 531.5 c 128,-1,7
 181 539 181 539 217 539 c 0,8,9
 282 539 282 539 324.5 504.5 c 128,-1,10
 367 470 367 470 367 417 c 0,11,12
 367 385 367 385 356.5 358.5 c 128,-1,13
 346 332 346 332 320.5 304 c 128,-1,14
 295 276 295 276 250 238 c 2,15,-1
 25 50 l 1,16,-1
 25 0 l 1,17,-1
 450 0 l 1,18,-1
 442 39 l 1,19,-1
 75 39 l 1,20,-1
 270 196 l 2,21,22
 320 236 320 236 353 272.5 c 128,-1,23
 386 309 386 309 402.5 345 c 128,-1,24
 419 381 419 381 419 418 c 0,25,26
 419 465 419 465 393 501 c 128,-1,27
 367 537 367 537 322 558 c 128,-1,28
 277 579 277 579 219 579 c 0,0,1
EndSplineSet
EndChar

StartChar: three
Encoding: 51 51 59
Width: 447
Flags: W
LayerCount: 2
Fore
SplineSet
205 579 m 0,0,1
 145 579 145 579 97.5 562 c 128,-1,2
 50 545 50 545 11 520 c 1,3,-1
 42 489 l 1,4,5
 66 505 66 505 107 521.5 c 128,-1,6
 148 538 148 538 202 538 c 0,7,8
 244 538 244 538 275 520 c 128,-1,9
 306 502 306 502 322.5 474 c 128,-1,10
 339 446 339 446 339 416 c 0,11,12
 339 359 339 359 291.5 322.5 c 128,-1,13
 244 286 244 286 160 286 c 2,14,-1
 126 286 l 1,15,-1
 136 247 l 1,16,-1
 154 247 l 2,17,18
 258 247 258 247 304.5 207.5 c 128,-1,19
 351 168 351 168 351 104 c 0,20,21
 351 64 351 64 328 32.5 c 128,-1,22
 305 1 305 1 269 -17 c 128,-1,23
 233 -35 233 -35 193 -35 c 0,24,25
 138 -35 138 -35 103 -23 c 128,-1,26
 68 -11 68 -11 33 10 c 1,27,-1
 0 -24 l 1,28,29
 34 -43 34 -43 84 -59.5 c 128,-1,30
 134 -76 134 -76 190 -76 c 0,31,32
 255 -76 255 -76 302.5 -52 c 128,-1,33
 350 -28 350 -28 376 13.5 c 128,-1,34
 402 55 402 55 402 106 c 0,35,36
 402 147 402 147 386 180.5 c 128,-1,37
 370 214 370 214 342 237 c 128,-1,38
 314 260 314 260 276 268 c 1,39,40
 308 278 308 278 333.5 299.5 c 128,-1,41
 359 321 359 321 374.5 351 c 128,-1,42
 390 381 390 381 390 417 c 0,43,44
 390 459 390 459 369.5 496 c 128,-1,45
 349 533 349 533 308 556 c 128,-1,46
 267 579 267 579 205 579 c 0,0,1
EndSplineSet
EndChar

StartChar: four
Encoding: 52 52 60
Width: 512
Flags: W
LayerCount: 2
Fore
SplineSet
492 113 m 1,0,-1
 375 113 l 1,1,-1
 375 571 l 1,2,-1
 347 571 l 1,3,-1
 10 125 l 1,4,-1
 19 74 l 1,5,-1
 326 74 l 1,6,-1
 326 -69 l 1,7,-1
 375 -69 l 1,8,-1
 375 74 l 1,9,-1
 484 74 l 1,10,-1
 492 113 l 1,0,-1
326 470 m 1,11,-1
 326 113 l 1,12,-1
 60 113 l 1,13,-1
 326 470 l 1,11,-1
EndSplineSet
EndChar

StartChar: five
Encoding: 53 53 61
Width: 491
Flags: W
LayerCount: 2
Fore
SplineSet
116 230 m 1,0,1
 136 252 136 252 171.5 270.5 c 128,-1,2
 207 289 207 289 247 289 c 0,3,4
 316 289 316 289 357.5 245.5 c 128,-1,5
 399 202 399 202 399 130 c 256,6,7
 399 58 399 58 353.5 11.5 c 128,-1,8
 308 -35 308 -35 224 -35 c 0,9,10
 178 -35 178 -35 138.5 -23 c 128,-1,11
 99 -11 99 -11 64 10 c 1,12,-1
 40 -26 l 1,13,14
 64 -38 64 -38 91.5 -49.5 c 128,-1,15
 119 -61 119 -61 151.5 -68.5 c 128,-1,16
 184 -76 184 -76 220 -76 c 0,17,18
 296 -76 296 -76 347 -47.5 c 128,-1,19
 398 -19 398 -19 424.5 28 c 128,-1,20
 451 75 451 75 451 130 c 0,21,22
 451 184 451 184 429.5 229.5 c 128,-1,23
 408 275 408 275 362.5 302.5 c 128,-1,24
 317 330 317 330 243 330 c 0,25,26
 218 330 218 330 187 319.5 c 128,-1,27
 156 309 156 309 129 289 c 1,28,-1
 140 527 l 1,29,-1
 409 527 l 1,30,-1
 412 566 l 1,31,-1
 95 566 l 1,32,-1
 80 230 l 1,33,-1
 116 230 l 1,0,1
EndSplineSet
EndChar

StartChar: six
Encoding: 54 54 62
Width: 492
Flags: W
LayerCount: 2
Fore
SplineSet
65 285 m 1,0,-1
 82 248 l 1,1,2
 97 272 97 272 123 294.5 c 128,-1,3
 149 317 149 317 183 331.5 c 128,-1,4
 217 346 217 346 253 346 c 0,5,6
 300 346 300 346 333 324.5 c 128,-1,7
 366 303 366 303 383.5 266.5 c 128,-1,8
 401 230 401 230 401 185 c 0,9,10
 401 147 401 147 383.5 111 c 128,-1,11
 366 75 366 75 333 51.5 c 128,-1,12
 300 28 300 28 252 28 c 0,13,14
 199 28 199 28 162 56.5 c 128,-1,15
 125 85 125 85 106 139 c 128,-1,16
 87 193 87 193 87 270 c 0,17,18
 87 328 87 328 106 377 c 128,-1,19
 125 426 125 426 157 465.5 c 128,-1,20
 189 505 189 505 229 533 c 128,-1,21
 269 561 269 561 311.5 576.5 c 128,-1,22
 354 592 354 592 393 594 c 1,23,-1
 375 634 l 1,24,25
 327 628 327 628 279 609 c 128,-1,26
 231 590 231 590 188 558.5 c 128,-1,27
 145 527 145 527 111.5 483 c 128,-1,28
 78 439 78 439 59 383.5 c 128,-1,29
 40 328 40 328 40 260 c 0,30,31
 40 172 40 172 67 111 c 128,-1,32
 94 50 94 50 142.5 18.5 c 128,-1,33
 191 -13 191 -13 254 -13 c 0,34,35
 313 -13 313 -13 357.5 16 c 128,-1,36
 402 45 402 45 427 91.5 c 128,-1,37
 452 138 452 138 452 190 c 0,38,39
 452 241 452 241 429 286 c 128,-1,40
 406 331 406 331 361.5 359 c 128,-1,41
 317 387 317 387 253 387 c 0,42,43
 202 387 202 387 165.5 369 c 128,-1,44
 129 351 129 351 104.5 327.5 c 128,-1,45
 80 304 80 304 65 285 c 1,0,-1
EndSplineSet
EndChar

StartChar: seven
Encoding: 55 55 63
Width: 429
Flags: W
LayerCount: 2
Fore
SplineSet
169 -69 m 1,0,-1
 409 537 l 1,1,-1
 387 566 l 1,2,-1
 10 566 l 1,3,-1
 18 527 l 1,4,-1
 360 527 l 1,5,-1
 123 -49 l 1,6,-1
 169 -69 l 1,0,-1
EndSplineSet
EndChar

StartChar: eight
Encoding: 56 56 64
Width: 501
Flags: W
LayerCount: 2
Fore
SplineSet
251 643 m 0,0,1
 187 643 187 643 146.5 620 c 128,-1,2
 106 597 106 597 87 560 c 128,-1,3
 68 523 68 523 68 481 c 0,4,5
 68 431 68 431 99.5 394 c 128,-1,6
 131 357 131 357 177 339 c 1,7,8
 139 331 139 331 108 304 c 128,-1,9
 77 277 77 277 58.5 241 c 128,-1,10
 40 205 40 205 40 169 c 0,11,12
 40 119 40 119 63 77.5 c 128,-1,13
 86 36 86 36 133 11.5 c 128,-1,14
 180 -13 180 -13 251 -13 c 256,15,16
 322 -13 322 -13 368.5 12.5 c 128,-1,17
 415 38 415 38 438 79.5 c 128,-1,18
 461 121 461 121 461 169 c 0,19,20
 461 211 461 211 442 246.5 c 128,-1,21
 423 282 423 282 392 306.5 c 128,-1,22
 361 331 361 331 325 339 c 1,23,24
 352 351 352 351 376.5 371.5 c 128,-1,25
 401 392 401 392 417 419.5 c 128,-1,26
 433 447 433 447 433 481 c 0,27,28
 433 521 433 521 414.5 558 c 128,-1,29
 396 595 396 595 356 619 c 128,-1,30
 316 643 316 643 251 643 c 0,0,1
248 602 m 0,31,32
 318 602 318 602 351 566 c 128,-1,33
 384 530 384 530 384 484 c 0,34,35
 384 458 384 458 368 431.5 c 128,-1,36
 352 405 352 405 322.5 385.5 c 128,-1,37
 293 366 293 366 251 360 c 1,38,39
 187 369 187 369 152.5 405.5 c 128,-1,40
 118 442 118 442 118 484 c 0,41,42
 118 514 118 514 132 541 c 128,-1,43
 146 568 146 568 175 585 c 128,-1,44
 204 602 204 602 248 602 c 0,31,32
251 316 m 1,45,46
 330 306 330 306 370 262.5 c 128,-1,47
 410 219 410 219 410 162 c 0,48,49
 410 124 410 124 388.5 93.5 c 128,-1,50
 367 63 367 63 331 45.5 c 128,-1,51
 295 28 295 28 251 28 c 0,52,53
 206 28 206 28 169.5 45.5 c 128,-1,54
 133 63 133 63 112 93.5 c 128,-1,55
 91 124 91 124 91 162 c 0,56,57
 91 219 91 219 131 262.5 c 128,-1,58
 171 306 171 306 251 316 c 1,45,46
EndSplineSet
EndChar

StartChar: nine
Encoding: 57 57 65
Width: 492
Flags: W
LayerCount: 2
Fore
SplineSet
427 280 m 1,0,-1
 410 317 l 1,1,2
 396 294 396 294 369.5 271 c 128,-1,3
 343 248 343 248 309.5 233.5 c 128,-1,4
 276 219 276 219 239 219 c 0,5,6
 193 219 193 219 159.5 240.5 c 128,-1,7
 126 262 126 262 108.5 299 c 128,-1,8
 91 336 91 336 91 380 c 0,9,10
 91 418 91 418 108.5 454 c 128,-1,11
 126 490 126 490 159.5 513.5 c 128,-1,12
 193 537 193 537 240 537 c 0,13,14
 294 537 294 537 330.5 508.5 c 128,-1,15
 367 480 367 480 386 426 c 128,-1,16
 405 372 405 372 405 295 c 0,17,18
 405 237 405 237 386 188 c 128,-1,19
 367 139 367 139 335 99.5 c 128,-1,20
 303 60 303 60 263 32 c 128,-1,21
 223 4 223 4 180.5 -11.5 c 128,-1,22
 138 -27 138 -27 99 -29 c 1,23,-1
 117 -69 l 1,24,25
 165 -63 165 -63 213 -44 c 128,-1,26
 261 -25 261 -25 304 6.5 c 128,-1,27
 347 38 347 38 380.5 82 c 128,-1,28
 414 126 414 126 433 182 c 128,-1,29
 452 238 452 238 452 305 c 0,30,31
 452 394 452 394 425 454.5 c 128,-1,32
 398 515 398 515 350 546.5 c 128,-1,33
 302 578 302 578 238 578 c 0,34,35
 180 578 180 578 135 549 c 128,-1,36
 90 520 90 520 65 473.5 c 128,-1,37
 40 427 40 427 40 375 c 0,38,39
 40 325 40 325 63 279.5 c 128,-1,40
 86 234 86 234 130.5 206 c 128,-1,41
 175 178 175 178 239 178 c 0,42,43
 290 178 290 178 326.5 196 c 128,-1,44
 363 214 363 214 388 238 c 128,-1,45
 413 262 413 262 427 280 c 1,0,-1
EndSplineSet
EndChar

StartChar: grave
Encoding: 96 96 66
Width: 137
Flags: W
LayerCount: 2
Fore
SplineSet
95 589 m 1,0,-1
 127 600 l 1,1,-1
 71 742 l 1,2,-1
 10 742 l 1,3,-1
 95 589 l 1,0,-1
EndSplineSet
EndChar

StartChar: dieresis
Encoding: 168 168 67
Width: 790
Flags: W
LayerCount: 2
Fore
SplineSet
740 252 m 1,0,-1
 696 257 l 1,1,-1
 696 513 l 1,2,-1
 740 513 l 1,3,-1
 740 252 l 1,0,-1
453 205 m 2,4,5
 453 132 453 132 425 82 c 128,-1,6
 397 32 397 32 348 7 c 128,-1,7
 299 -18 299 -18 236 -18 c 0,8,9
 180 -18 180 -18 138 2 c 128,-1,10
 96 22 96 22 73 57 c 128,-1,11
 50 92 50 92 50 136 c 0,12,13
 50 201 50 201 96 244 c 128,-1,14
 142 287 142 287 225 287 c 2,15,-1
 736 287 l 1,16,-1
 740 252 l 1,17,-1
 226 252 l 2,18,19
 164 252 164 252 131 219 c 128,-1,20
 98 186 98 186 98 135 c 0,21,22
 98 85 98 85 134.5 54.5 c 128,-1,23
 171 24 171 24 236 24 c 0,24,25
 286 24 286 24 325 44 c 128,-1,26
 364 64 364 64 386.5 104.5 c 128,-1,27
 409 145 409 145 409 205 c 2,28,-1
 409 478 l 1,29,-1
 211 478 l 1,30,-1
 211 263 l 1,31,-1
 167 263 l 1,32,-1
 167 513 l 1,33,-1
 622 513 l 1,34,-1
 627 478 l 1,35,-1
 453 478 l 1,36,-1
 453 205 l 2,4,5
EndSplineSet
EndChar

StartChar: cedilla
Encoding: 184 184 68
Width: 741
Flags: W
LayerCount: 2
Fore
SplineSet
100 0 m 1,0,-1
 100 513 l 1,1,-1
 726 513 l 1,2,-1
 731 478 l 1,3,-1
 476 478 l 1,4,-1
 476 0 l 1,5,-1
 432 0 l 1,6,-1
 432 478 l 1,7,-1
 144 478 l 1,8,-1
 144 0 l 1,9,-1
 100 0 l 1,0,-1
288 199 m 256,10,11
 304 199 304 199 313.5 209 c 128,-1,12
 323 219 323 219 323 233 c 256,13,14
 323 247 323 247 312.5 257 c 128,-1,15
 302 267 302 267 288 267 c 0,16,17
 272 267 272 267 263 257 c 128,-1,18
 254 247 254 247 254 233 c 256,19,20
 254 219 254 219 263 209 c 128,-1,21
 272 199 272 199 288 199 c 256,10,11
620 199 m 0,22,23
 636 199 636 199 645.5 209 c 128,-1,24
 655 219 655 219 655 233 c 256,25,26
 655 247 655 247 644.5 257 c 128,-1,27
 634 267 634 267 620 267 c 0,28,29
 605 267 605 267 595.5 257 c 128,-1,30
 586 247 586 247 586 233 c 256,31,32
 586 219 586 219 595.5 209 c 128,-1,33
 605 199 605 199 620 199 c 0,22,23
EndSplineSet
EndChar

StartChar: softhyphen
Encoding: 173 173 69
Width: 924
Flags: W
LayerCount: 2
Fore
SplineSet
558 287 m 2,0,1
 619 287 619 287 662 261.5 c 128,-1,2
 705 236 705 236 728.5 194.5 c 128,-1,3
 752 153 752 153 752 104 c 0,4,5
 752 71 752 71 738.5 43 c 128,-1,6
 725 15 725 15 701 -1.5 c 128,-1,7
 677 -18 677 -18 645 -18 c 0,8,9
 611 -18 611 -18 585.5 -1.5 c 128,-1,10
 560 15 560 15 546 43 c 128,-1,11
 532 71 532 71 532 104 c 0,12,13
 532 149 532 149 546.5 187.5 c 128,-1,14
 561 226 561 226 587.5 254 c 128,-1,15
 614 282 614 282 649.5 297.5 c 128,-1,16
 685 313 685 313 728 313 c 0,17,18
 774 313 774 313 809 291 c 128,-1,19
 844 269 844 269 864 231.5 c 128,-1,20
 884 194 884 194 884 145 c 0,21,22
 884 100 884 100 874 66 c 128,-1,23
 864 32 864 32 847 -6 c 1,24,-1
 802 0 l 1,25,26
 818 33 818 33 827.5 73.5 c 128,-1,27
 837 114 837 114 837 145 c 0,28,29
 837 203 837 203 807 237 c 128,-1,30
 777 271 777 271 728 271 c 0,31,32
 684 271 684 271 650 250.5 c 128,-1,33
 616 230 616 230 596.5 192.5 c 128,-1,34
 577 155 577 155 577 104 c 0,35,36
 577 70 577 70 596 47 c 128,-1,37
 615 24 615 24 645 24 c 0,38,39
 671 24 671 24 687.5 47 c 128,-1,40
 704 70 704 70 704 104 c 0,41,42
 704 147 704 147 685.5 180.5 c 128,-1,43
 667 214 667 214 634.5 233 c 128,-1,44
 602 252 602 252 559 252 c 2,45,-1
 226 252 l 2,46,47
 164 252 164 252 131 219 c 128,-1,48
 98 186 98 186 98 135 c 0,49,50
 98 85 98 85 134.5 54.5 c 128,-1,51
 171 24 171 24 236 24 c 0,52,53
 286 24 286 24 325 44 c 128,-1,54
 364 64 364 64 386.5 104.5 c 128,-1,55
 409 145 409 145 409 205 c 2,56,-1
 409 478 l 1,57,-1
 211 478 l 1,58,-1
 211 263 l 1,59,-1
 167 263 l 1,60,-1
 167 513 l 1,61,-1
 622 513 l 1,62,-1
 627 478 l 1,63,-1
 453 478 l 1,64,-1
 453 205 l 2,65,66
 453 132 453 132 425 82 c 128,-1,67
 397 32 397 32 348 7 c 128,-1,68
 299 -18 299 -18 236 -18 c 0,69,70
 180 -18 180 -18 138 2 c 128,-1,71
 96 22 96 22 73 57 c 128,-1,72
 50 92 50 92 50 136 c 0,73,74
 50 201 50 201 96 244 c 128,-1,75
 142 287 142 287 225 287 c 2,76,-1
 558 287 l 2,0,1
EndSplineSet
EndChar

StartChar: mu
Encoding: 181 181 70
Width: 1055
Flags: W
LayerCount: 2
Fore
SplineSet
955 -126 m 1,0,-1
 955 513 l 1,1,-1
 911 513 l 1,2,-1
 911 -126 l 1,3,-1
 955 -126 l 1,0,-1
471 531 m 0,4,5
 405 531 405 531 353 505 c 128,-1,6
 301 479 301 479 271 434.5 c 128,-1,7
 241 390 241 390 241 332 c 0,8,9
 241 283 241 283 274.5 250 c 128,-1,10
 308 217 308 217 360 216 c 0,11,12
 414 215 414 215 449 247 c 128,-1,13
 484 279 484 279 485 329 c 0,14,15
 486 377 486 377 450.5 409 c 128,-1,16
 415 441 415 441 361 441 c 0,17,18
 332 441 332 441 307 426.5 c 128,-1,19
 282 412 282 412 267.5 387 c 128,-1,20
 253 362 253 362 253 329 c 1,21,-1
 280 329 l 1,22,23
 280 362 280 362 303.5 383 c 128,-1,24
 327 404 327 404 361 404 c 0,25,26
 396 404 396 404 418.5 383 c 128,-1,27
 441 362 441 362 441 329 c 0,28,29
 441 295 441 295 418 274 c 128,-1,30
 395 253 395 253 360 254 c 0,31,32
 326 256 326 256 303 277 c 128,-1,33
 280 298 280 298 280 329 c 0,34,35
 280 378 280 378 304.5 413.5 c 128,-1,36
 329 449 329 449 372.5 469 c 128,-1,37
 416 489 416 489 471 489 c 0,38,39
 542 489 542 489 592 456 c 128,-1,40
 642 423 642 423 669 364.5 c 128,-1,41
 696 306 696 306 696 230 c 0,42,43
 696 133 696 133 648.5 58 c 128,-1,44
 601 -17 601 -17 518 -59.5 c 128,-1,45
 435 -102 435 -102 327 -102 c 0,46,47
 257 -102 257 -102 203 -85 c 128,-1,48
 149 -68 149 -68 118.5 -38 c 128,-1,49
 88 -8 88 -8 88 32 c 0,50,51
 88 58 88 58 102 74 c 128,-1,52
 116 90 116 90 150 90 c 2,53,-1
 911 90 l 1,54,-1
 911 125 l 1,55,-1
 146 125 l 2,56,57
 94 125 94 125 67 99 c 128,-1,58
 40 73 40 73 40 32 c 0,59,60
 40 -18 40 -18 77 -58 c 128,-1,61
 114 -98 114 -98 179 -121 c 128,-1,62
 244 -144 244 -144 327 -144 c 0,63,64
 418 -144 418 -144 494 -116.5 c 128,-1,65
 570 -89 570 -89 626 -38.5 c 128,-1,66
 682 12 682 12 713 80.5 c 128,-1,67
 744 149 744 149 744 230 c 0,68,69
 744 317 744 317 711 385 c 128,-1,70
 678 453 678 453 616.5 492 c 128,-1,71
 555 531 555 531 471 531 c 0,4,5
EndSplineSet
EndChar

StartChar: cent
Encoding: 162 162 71
Width: 706
Flags: W
AnchorPoint: "Anchor-1" 347 0 basechar 0
AnchorPoint: "Anchor-0" 768 0 basechar 0
LayerCount: 2
Fore
SplineSet
351 286 m 5,0,-1
 491 141 l 5,1,-1
 512 172 l 5,2,-1
 389 302 l 5,3,-1
 512 432 l 5,4,-1
 491 463 l 5,5,-1
 351 318 l 5,6,-1
 351 286 l 5,0,-1
199 286 m 5,7,-1
 339 141 l 5,8,-1
 360 172 l 5,9,-1
 238 302 l 5,10,-1
 360 432 l 5,11,-1
 339 463 l 5,12,-1
 199 318 l 5,13,-1
 199 286 l 5,7,-1
606 513 m 1,14,-1
 606 0 l 1,15,-1
 100 0 l 1,16,-1
 100 513 l 1,17,-1
 144 518 l 1,18,-1
 144 35 l 1,19,-1
 562 35 l 1,20,-1
 562 513 l 1,21,-1
 606 513 l 1,14,-1
EndSplineSet
EndChar

StartChar: sterling
Encoding: 163 163 72
Width: 706
Flags: W
AnchorPoint: "Anchor-1" 347 0 basechar 0
AnchorPoint: "Anchor-0" 768 0 basechar 0
LayerCount: 2
Fore
SplineSet
489.14453125 93.0771484375 m 5,0,-1
 231.686523438 272.579101562 l 5,1,-1
 489.14453125 452.081054688 l 5,2,-1
 462.943359375 484.034179688 l 5,3,-1
 179.284179688 285.736328125 l 5,4,-1
 179.284179688 259.422851562 l 5,5,-1
 462.943359375 60.185546875 l 5,6,-1
 489.14453125 93.0771484375 l 5,0,-1
606 513 m 1,7,-1
 606 0 l 1,8,-1
 100 0 l 1,9,-1
 100 513 l 1,10,-1
 144 518 l 1,11,-1
 144 35 l 1,12,-1
 562 35 l 1,13,-1
 562 513 l 1,14,-1
 606 513 l 1,7,-1
EndSplineSet
EndChar

StartChar: currency
Encoding: 164 164 73
Width: 728
Flags: W
LayerCount: 2
Fore
SplineSet
364 531 m 256,0,1
 454 531 454 531 522.5 496 c 128,-1,2
 591 461 591 461 629.5 399 c 128,-1,3
 668 337 668 337 668 257 c 256,4,5
 668 177 668 177 629.5 114.5 c 128,-1,6
 591 52 591 52 522.5 17 c 128,-1,7
 454 -18 454 -18 364 -18 c 256,8,9
 274 -18 274 -18 206 17 c 128,-1,10
 138 52 138 52 99.5 114.5 c 128,-1,11
 61 177 61 177 60 257 c 0,12,13
 61 337 61 337 99.5 399 c 128,-1,14
 138 461 138 461 206 496 c 128,-1,15
 274 531 274 531 364 531 c 256,0,1
364 24 m 0,16,17
 443 24 443 24 500.5 54.5 c 128,-1,18
 558 85 558 85 589.5 137.5 c 128,-1,19
 621 190 621 190 621 257 c 0,20,21
 622 324 622 324 590 376 c 128,-1,22
 558 428 558 428 500.5 458.5 c 128,-1,23
 443 489 443 489 364 489 c 0,24,25
 286 489 286 489 228.5 458.5 c 128,-1,26
 171 428 171 428 139.5 376 c 128,-1,27
 108 324 108 324 108 257 c 0,28,29
 109 190 109 190 140 137.5 c 128,-1,30
 171 85 171 85 228.5 54.5 c 128,-1,31
 286 24 286 24 364 24 c 0,16,17
EndSplineSet
EndChar

StartChar: yen
Encoding: 165 165 74
Width: 723
Flags: W
LayerCount: 2
Fore
SplineSet
453 205 m 2,0,1
 453 132 453 132 425 82 c 128,-1,2
 397 32 397 32 348 7 c 128,-1,3
 299 -18 299 -18 236 -18 c 0,4,5
 180 -18 180 -18 138 2 c 128,-1,6
 96 22 96 22 73 57 c 128,-1,7
 50 92 50 92 50 136 c 0,8,9
 50 201 50 201 96 244 c 128,-1,10
 142 287 142 287 225 287 c 2,11,-1
 504 287 l 2,12,13
 560 287 560 287 600 268 c 128,-1,14
 640 249 640 249 661.5 216 c 128,-1,15
 683 183 683 183 683 140 c 0,16,17
 683 95 683 95 660.5 59 c 128,-1,18
 638 23 638 23 595 2.5 c 128,-1,19
 552 -18 552 -18 492 -18 c 1,20,-1
 492 17 l 1,21,22
 563 17 563 17 599 51.5 c 128,-1,23
 635 86 635 86 635 140 c 0,24,25
 635 188 635 188 602.5 220 c 128,-1,26
 570 252 570 252 505 252 c 2,27,-1
 226 252 l 2,28,29
 164 252 164 252 131 219 c 128,-1,30
 98 186 98 186 98 135 c 0,31,32
 98 85 98 85 134.5 54.5 c 128,-1,33
 171 24 171 24 236 24 c 0,34,35
 286 24 286 24 325 44 c 128,-1,36
 364 64 364 64 386.5 104.5 c 128,-1,37
 409 145 409 145 409 205 c 2,38,-1
 409 478 l 1,39,-1
 211 478 l 1,40,-1
 211 263 l 1,41,-1
 167 263 l 1,42,-1
 167 513 l 1,43,-1
 622 513 l 1,44,-1
 627 478 l 1,45,-1
 453 478 l 1,46,-1
 453 205 l 2,0,1
EndSplineSet
EndChar

StartChar: dollar
Encoding: 36 36 75
Width: 534
Flags: W
LayerCount: 2
Fore
SplineSet
193 -111 m 1,0,-1
 193 -10 l 1,1,2
 166 -6 166 -6 137.5 0 c 128,-1,3
 109 6 109 6 86.5 14 c 128,-1,4
 64 22 64 22 55 29 c 1,5,-1
 70 68 l 1,6,7
 88 60 88 60 114 50.5 c 128,-1,8
 140 41 140 41 171.5 35 c 128,-1,9
 203 29 203 29 236 29 c 0,10,11
 294 29 294 29 333 47.5 c 128,-1,12
 372 66 372 66 392.5 96 c 128,-1,13
 413 126 413 126 413 160 c 0,14,15
 413 197 413 197 393 226 c 128,-1,16
 373 255 373 255 333 280 c 128,-1,17
 293 305 293 305 232 330 c 0,18,19
 188 348 188 348 154 369 c 128,-1,20
 120 390 120 390 97 414.5 c 128,-1,21
 74 439 74 439 62 469 c 128,-1,22
 50 499 50 499 50 535 c 0,23,24
 50 592 50 592 88 634 c 128,-1,25
 126 676 126 676 193 690 c 1,26,-1
 193 787 l 1,27,-1
 233 797 l 1,28,-1
 233 694 l 1,29,30
 237 695 237 695 243.5 695.5 c 128,-1,31
 250 696 250 696 256 696 c 0,32,33
 267 696 267 696 278.5 695.5 c 128,-1,34
 290 695 290 695 300 693 c 1,35,-1
 300 790 l 1,36,-1
 341 800 l 1,37,-1
 341 686 l 1,38,39
 365 681 365 681 386.5 673 c 128,-1,40
 408 665 408 665 424 657 c 1,41,-1
 402 621 l 1,42,43
 385 629 385 629 364.5 637 c 128,-1,44
 344 645 344 645 318.5 650 c 128,-1,45
 293 655 293 655 258 655 c 0,46,47
 186 655 186 655 144 618.5 c 128,-1,48
 102 582 102 582 102 530 c 0,49,50
 102 492 102 492 122.5 462 c 128,-1,51
 143 432 143 432 183.5 406 c 128,-1,52
 224 380 224 380 283 355 c 0,53,54
 328 336 328 336 362 315.5 c 128,-1,55
 396 295 396 295 418.5 271 c 128,-1,56
 441 247 441 247 452.5 219 c 128,-1,57
 464 191 464 191 464 157 c 0,58,59
 464 102 464 102 433 61.5 c 128,-1,60
 402 21 402 21 341 1 c 1,61,-1
 341 -111 l 1,62,-1
 300 -111 l 1,63,-1
 300 -8 l 1,64,65
 286 -10 286 -10 270 -11.5 c 128,-1,66
 254 -13 254 -13 237 -13 c 2,67,-1
 233 -13 l 1,68,-1
 233 -111 l 1,69,-1
 193 -111 l 1,0,-1
EndSplineSet
EndChar

StartChar: comma
Encoding: 44 44 76
Width: 152
Flags: W
LayerCount: 2
Fore
SplineSet
83 76 m 0,0,1
 71 76 71 76 62.5 70.5 c 128,-1,2
 54 65 54 65 49.5 56 c 128,-1,3
 45 47 45 47 45 37 c 0,4,5
 45 30 45 30 49 21.5 c 128,-1,6
 53 13 53 13 61 6 c 128,-1,7
 69 -1 69 -1 81 -1 c 1,8,9
 80 -28 80 -28 63 -48.5 c 128,-1,10
 46 -69 46 -69 20 -83 c 1,11,-1
 36 -108 l 1,12,13
 64 -94 64 -94 83 -73 c 128,-1,14
 102 -52 102 -52 112 -25 c 128,-1,15
 122 2 122 2 122 33 c 0,16,17
 122 48 122 48 111.5 62 c 128,-1,18
 101 76 101 76 83 76 c 0,0,1
EndSplineSet
EndChar

StartChar: period
Encoding: 46 46 77
Width: 137
Flags: W
LayerCount: 2
Fore
SplineSet
68 0 m 0,0,1
 84 0 84 0 95.5 11 c 128,-1,2
 107 22 107 22 107 38 c 256,3,4
 107 54 107 54 95.5 65 c 128,-1,5
 84 76 84 76 68 76 c 0,6,7
 51 76 51 76 40.5 65 c 128,-1,8
 30 54 30 54 30 38 c 256,9,10
 30 22 30 22 40.5 11 c 128,-1,11
 51 0 51 0 68 0 c 0,0,1
EndSplineSet
EndChar

StartChar: exclam
Encoding: 33 33 78
Width: 138
Flags: W
LayerCount: 2
Fore
SplineSet
54 185 m 1,0,-1
 99 164 l 1,1,-1
 108 702 l 1,2,-1
 54 702 l 1,3,-1
 54 185 l 1,0,-1
68 76 m 0,4,5
 51 76 51 76 40.5 65 c 128,-1,6
 30 54 30 54 30 38 c 256,7,8
 30 22 30 22 40.5 11 c 128,-1,9
 51 0 51 0 68 0 c 0,10,11
 84 0 84 0 95.5 11 c 128,-1,12
 107 22 107 22 107 38 c 256,13,14
 107 54 107 54 95.5 65 c 128,-1,15
 84 76 84 76 68 76 c 0,4,5
EndSplineSet
EndChar

StartChar: colon
Encoding: 58 58 79
Width: 137
Flags: W
LayerCount: 2
Fore
SplineSet
68 365 m 0,0,1
 84 365 84 365 95.5 376 c 128,-1,2
 107 387 107 387 107 403 c 256,3,4
 107 419 107 419 95.5 430 c 128,-1,5
 84 441 84 441 68 441 c 0,6,7
 51 441 51 441 40.5 430 c 128,-1,8
 30 419 30 419 30 403 c 256,9,10
 30 387 30 387 40.5 376 c 128,-1,11
 51 365 51 365 68 365 c 0,0,1
68 46 m 0,12,13
 84 46 84 46 95.5 57 c 128,-1,14
 107 68 107 68 107 84 c 256,15,16
 107 100 107 100 95.5 111 c 128,-1,17
 84 122 84 122 68 122 c 0,18,19
 51 122 51 122 40.5 111 c 128,-1,20
 30 100 30 100 30 84 c 256,21,22
 30 68 30 68 40.5 57 c 128,-1,23
 51 46 51 46 68 46 c 0,12,13
EndSplineSet
EndChar

StartChar: semicolon
Encoding: 59 59 80
Width: 152
Flags: W
LayerCount: 2
Fore
SplineSet
83 365 m 0,0,1
 99 365 99 365 110.5 376 c 128,-1,2
 122 387 122 387 122 403 c 256,3,4
 122 419 122 419 110.5 430 c 128,-1,5
 99 441 99 441 83 441 c 0,6,7
 66 441 66 441 55.5 430 c 128,-1,8
 45 419 45 419 45 403 c 256,9,10
 45 387 45 387 55.5 376 c 128,-1,11
 66 365 66 365 83 365 c 0,0,1
83 122 m 0,12,13
 71 122 71 122 62.5 116.5 c 128,-1,14
 54 111 54 111 49.5 102 c 128,-1,15
 45 93 45 93 45 83 c 0,16,17
 45 77 45 77 49 68 c 128,-1,18
 53 59 53 59 61 52 c 128,-1,19
 69 45 69 45 81 45 c 1,20,21
 80 18 80 18 63 -2.5 c 128,-1,22
 46 -23 46 -23 20 -37 c 1,23,-1
 36 -62 l 1,24,25
 64 -48 64 -48 83 -27 c 128,-1,26
 102 -6 102 -6 112 21.5 c 128,-1,27
 122 49 122 49 122 79 c 0,28,29
 122 94 122 94 111.5 108 c 128,-1,30
 101 122 101 122 83 122 c 0,12,13
EndSplineSet
EndChar

StartChar: question
Encoding: 63 63 81
Width: 392
Flags: W
LayerCount: 2
Fore
SplineSet
186 702 m 0,0,1
 127 702 127 702 81.5 683 c 128,-1,2
 36 664 36 664 10 641 c 1,3,-1
 18 600 l 1,4,5
 57 628 57 628 93.5 644.5 c 128,-1,6
 130 661 130 661 184 661 c 0,7,8
 241 661 241 661 275 629 c 128,-1,9
 309 597 309 597 309 537 c 0,10,11
 309 480 309 480 263 434 c 128,-1,12
 217 388 217 388 139 363 c 1,13,-1
 146 158 l 1,14,-1
 179 137 l 1,15,-1
 189 332 l 1,16,17
 245 357 245 357 283.5 390.5 c 128,-1,18
 322 424 322 424 342 462 c 128,-1,19
 362 500 362 500 362 538 c 0,20,21
 362 586 362 586 343 623 c 128,-1,22
 324 660 324 660 285 681 c 128,-1,23
 246 702 246 702 186 702 c 0,0,1
154 76 m 0,24,25
 137 76 137 76 126.5 65 c 128,-1,26
 116 54 116 54 116 38 c 256,27,28
 116 22 116 22 126.5 11 c 128,-1,29
 137 0 137 0 154 0 c 0,30,31
 170 0 170 0 181.5 11 c 128,-1,32
 193 22 193 22 193 38 c 256,33,34
 193 54 193 54 181.5 65 c 128,-1,35
 170 76 170 76 154 76 c 0,24,25
EndSplineSet
EndChar

StartChar: asterisk
Encoding: 42 42 82
Width: 313
Flags: W
LayerCount: 2
Fore
SplineSet
172 774 m 1,0,-1
 137 774 l 1,1,-1
 137 654 l 1,2,-1
 22 685 l 1,3,-1
 10 653 l 1,4,-1
 125 624 l 1,5,-1
 46 505 l 1,6,-1
 82 489 l 1,7,-1
 156 602 l 1,8,-1
 235 489 l 1,9,-1
 266 505 l 1,10,-1
 187 624 l 1,11,-1
 303 653 l 1,12,-1
 290 685 l 1,13,-1
 172 654 l 1,14,-1
 172 774 l 1,0,-1
EndSplineSet
EndChar

StartChar: quotedbl
Encoding: 34 34 83
Width: 275
Flags: W
LayerCount: 2
Fore
SplineSet
206 702 m 0,0,1
 194 702 194 702 185.5 696.5 c 128,-1,2
 177 691 177 691 172.5 682 c 128,-1,3
 168 673 168 673 168 663 c 256,4,5
 168 653 168 653 177 639 c 128,-1,6
 186 625 186 625 204 625 c 1,7,8
 203 598 203 598 186 577.5 c 128,-1,9
 169 557 169 557 143 543 c 1,10,-1
 159 518 l 1,11,12
 187 532 187 532 206 553 c 128,-1,13
 225 574 225 574 235 601.5 c 128,-1,14
 245 629 245 629 245 659 c 0,15,16
 245 674 245 674 234.5 688 c 128,-1,17
 224 702 224 702 206 702 c 0,0,1
83 702 m 0,18,19
 71 702 71 702 62.5 696.5 c 128,-1,20
 54 691 54 691 49.5 682 c 128,-1,21
 45 673 45 673 45 663 c 0,22,23
 45 657 45 657 49 648 c 128,-1,24
 53 639 53 639 61 632 c 128,-1,25
 69 625 69 625 81 625 c 1,26,27
 80 598 80 598 63 577.5 c 128,-1,28
 46 557 46 557 20 543 c 1,29,-1
 36 518 l 1,30,31
 64 532 64 532 83 553 c 128,-1,32
 102 574 102 574 112 601.5 c 128,-1,33
 122 629 122 629 122 659 c 0,34,35
 122 674 122 674 111.5 688 c 128,-1,36
 101 702 101 702 83 702 c 0,18,19
EndSplineSet
EndChar

StartChar: quotesingle
Encoding: 39 39 84
Width: 152
Flags: W
LayerCount: 2
Fore
SplineSet
83 702 m 0,0,1
 71 702 71 702 62.5 696.5 c 128,-1,2
 54 691 54 691 49.5 682 c 128,-1,3
 45 673 45 673 45 663 c 0,4,5
 45 657 45 657 49 648 c 128,-1,6
 53 639 53 639 61 632 c 128,-1,7
 69 625 69 625 81 625 c 1,8,9
 80 598 80 598 63 577.5 c 128,-1,10
 46 557 46 557 20 543 c 1,11,-1
 36 518 l 1,12,13
 64 532 64 532 83 553 c 128,-1,14
 102 574 102 574 112 601.5 c 128,-1,15
 122 629 122 629 122 659 c 0,16,17
 122 674 122 674 111.5 688 c 128,-1,18
 101 702 101 702 83 702 c 0,0,1
EndSplineSet
EndChar

StartChar: periodcentered
Encoding: 183 183 85
Width: 1030
Flags: W
LayerCount: 2
Fore
SplineSet
490 531 m 0,0,1
 428 531 428 531 380 505 c 128,-1,2
 332 479 332 479 305 434.5 c 128,-1,3
 278 390 278 390 278 332 c 0,4,5
 278 283 278 283 311.5 250 c 128,-1,6
 345 217 345 217 397 216 c 0,7,8
 451 215 451 215 486 247 c 128,-1,9
 521 279 521 279 522 329 c 0,10,11
 523 377 523 377 487.5 409 c 128,-1,12
 452 441 452 441 398 441 c 0,13,14
 369 441 369 441 344 426.5 c 128,-1,15
 319 412 319 412 304.5 387 c 128,-1,16
 290 362 290 362 290 329 c 1,17,-1
 317 329 l 1,18,19
 317 362 317 362 340.5 383 c 128,-1,20
 364 404 364 404 398 404 c 0,21,22
 433 404 433 404 455.5 383 c 128,-1,23
 478 362 478 362 478 329 c 0,24,25
 478 295 478 295 455 274 c 128,-1,26
 432 253 432 253 397 254 c 0,27,28
 363 256 363 256 340 277 c 128,-1,29
 317 298 317 298 317 329 c 0,30,31
 317 402 317 402 365.5 445.5 c 128,-1,32
 414 489 414 489 490 489 c 0,33,34
 578 489 578 489 619.5 441.5 c 128,-1,35
 661 394 661 394 661 320 c 0,36,37
 661 263 661 263 632 198.5 c 128,-1,38
 603 134 603 134 554 71 c 128,-1,39
 505 8 505 8 443 -43 c 128,-1,40
 381 -94 381 -94 314 -125 c 128,-1,41
 247 -156 247 -156 183 -156 c 0,42,43
 133 -156 133 -156 110.5 -139.5 c 128,-1,44
 88 -123 88 -123 88 -95 c 0,45,46
 88 -50 88 -50 117 -12.5 c 128,-1,47
 146 25 146 25 196 52.5 c 128,-1,48
 246 80 246 80 310 95 c 128,-1,49
 374 110 374 110 444 110 c 0,50,51
 505 110 505 110 560.5 95 c 128,-1,52
 616 80 616 80 660 52.5 c 128,-1,53
 704 25 704 25 729.5 -12.5 c 128,-1,54
 755 -50 755 -50 755 -95 c 0,55,56
 755 -123 755 -123 732.5 -139.5 c 128,-1,57
 710 -156 710 -156 659 -156 c 0,58,59
 585 -156 585 -156 514 -130 c 128,-1,60
 443 -104 443 -104 381 -57 c 128,-1,61
 319 -10 319 -10 272.5 53.5 c 128,-1,62
 226 117 226 117 199.5 192 c 128,-1,63
 173 267 173 267 173 349 c 0,64,65
 173 452 173 452 220 523 c 128,-1,66
 267 594 267 594 350.5 631.5 c 128,-1,67
 434 669 434 669 542 669 c 0,68,69
 643 669 643 669 720.5 630.5 c 128,-1,70
 798 592 798 592 842 522 c 128,-1,71
 886 452 886 452 886 356 c 2,72,-1
 886 -148 l 1,73,-1
 930 -148 l 1,74,-1
 930 358 l 2,75,76
 930 438 930 438 901.5 503 c 128,-1,77
 873 568 873 568 820.5 614.5 c 128,-1,78
 768 661 768 661 697 686 c 128,-1,79
 626 711 626 711 542 711 c 0,80,81
 451 711 451 711 375 686.5 c 128,-1,82
 299 662 299 662 243 615.5 c 128,-1,83
 187 569 187 569 156.5 502 c 128,-1,84
 126 435 126 435 126 349 c 256,85,86
 126 263 126 263 155 182.5 c 128,-1,87
 184 102 184 102 235 33 c 128,-1,88
 286 -36 286 -36 353.5 -88 c 128,-1,89
 421 -140 421 -140 499 -169 c 128,-1,90
 577 -198 577 -198 659 -198 c 0,91,92
 729 -198 729 -198 765.5 -169 c 128,-1,93
 802 -140 802 -140 802 -95 c 0,94,95
 802 -41 802 -41 773 4 c 128,-1,96
 744 49 744 49 694 82.5 c 128,-1,97
 644 116 644 116 579.5 134 c 128,-1,98
 515 152 515 152 444 152 c 0,99,100
 363 152 363 152 290.5 134 c 128,-1,101
 218 116 218 116 161.5 82.5 c 128,-1,102
 105 49 105 49 72.5 4 c 128,-1,103
 40 -41 40 -41 40 -95 c 0,104,105
 40 -140 40 -140 76.5 -169 c 128,-1,106
 113 -198 113 -198 183 -198 c 0,107,108
 242 -198 242 -198 304 -174.5 c 128,-1,109
 366 -151 366 -151 424.5 -110.5 c 128,-1,110
 483 -70 483 -70 534.5 -18 c 128,-1,111
 586 34 586 34 625.5 92.5 c 128,-1,112
 665 151 665 151 687 209.5 c 128,-1,113
 709 268 709 268 709 320 c 0,114,115
 709 381 709 381 684.5 428.5 c 128,-1,116
 660 476 660 476 611.5 503.5 c 128,-1,117
 563 531 563 531 490 531 c 0,0,1
EndSplineSet
EndChar

StartChar: parenleft
Encoding: 40 40 86
Width: 239
Flags: W
LayerCount: 2
Fore
SplineSet
209 -19 m 1,0,1
 187 4 187 4 167.5 45.5 c 128,-1,2
 148 87 148 87 133 137.5 c 128,-1,3
 118 188 118 188 109.5 236.5 c 128,-1,4
 101 285 101 285 101 321 c 256,5,6
 101 357 101 357 109.5 404.5 c 128,-1,7
 118 452 118 452 133 501 c 128,-1,8
 148 550 148 550 167.5 591.5 c 128,-1,9
 187 633 187 633 209 657 c 1,10,-1
 169 675 l 1,11,12
 127 622 127 622 101 559.5 c 128,-1,13
 75 497 75 497 62.5 435 c 128,-1,14
 50 373 50 373 50 320 c 256,15,16
 50 267 50 267 62.5 204.5 c 128,-1,17
 75 142 75 142 101 79.5 c 128,-1,18
 127 17 127 17 169 -37 c 1,19,-1
 209 -19 l 1,0,1
EndSplineSet
EndChar

StartChar: parenright
Encoding: 41 41 87
Width: 239
Flags: W
LayerCount: 2
Fore
SplineSet
30 657 m 1,0,1
 51 633 51 633 70.5 591.5 c 128,-1,2
 90 550 90 550 105.5 500.5 c 128,-1,3
 121 451 121 451 129.5 403 c 128,-1,4
 138 355 138 355 138 319 c 256,5,6
 138 283 138 283 129.5 235 c 128,-1,7
 121 187 121 187 105.5 137 c 128,-1,8
 90 87 90 87 70.5 45.5 c 128,-1,9
 51 4 51 4 30 -19 c 1,10,-1
 70 -37 l 1,11,12
 111 17 111 17 137 79.5 c 128,-1,13
 163 142 163 142 176 204.5 c 128,-1,14
 189 267 189 267 189 320 c 256,15,16
 189 373 189 373 176 435 c 128,-1,17
 163 497 163 497 137 559.5 c 128,-1,18
 111 622 111 622 70 675 c 1,19,-1
 30 657 l 1,0,1
EndSplineSet
EndChar

StartChar: bracketleft
Encoding: 91 91 88
Width: 265
Flags: W
LayerCount: 2
Fore
SplineSet
100 -88 m 1,0,-1
 255 -88 l 1,1,-1
 247 -49 l 1,2,-1
 149 -49 l 1,3,-1
 149 657 l 1,4,-1
 247 657 l 1,5,-1
 255 696 l 1,6,-1
 100 696 l 1,7,-1
 100 -88 l 1,0,-1
EndSplineSet
EndChar

StartChar: bracketright
Encoding: 93 93 89
Width: 265
Flags: W
LayerCount: 2
Fore
SplineSet
165 696 m 1,0,-1
 10 696 l 1,1,-1
 18 657 l 1,2,-1
 116 657 l 1,3,-1
 116 -49 l 1,4,-1
 18 -49 l 1,5,-1
 10 -88 l 1,6,-1
 165 -88 l 1,7,-1
 165 696 l 1,0,-1
EndSplineSet
EndChar

StartChar: braceleft
Encoding: 123 123 90
Width: 265
Flags: W
LayerCount: 2
Fore
SplineSet
129 307 m 1,0,1
 154 319 154 319 173.5 347 c 128,-1,2
 193 375 193 375 193 419 c 0,3,4
 193 432 193 432 188.5 449.5 c 128,-1,5
 184 467 184 467 174 489 c 256,6,7
 164 511 164 511 159.5 529 c 128,-1,8
 155 547 155 547 155 560 c 0,9,10
 155 581 155 581 172.5 600.5 c 128,-1,11
 190 620 190 620 227 620 c 2,12,-1
 246 620 l 1,13,-1
 255 659 l 1,14,-1
 229 659 l 2,15,16
 166 659 166 659 135.5 630.5 c 128,-1,17
 105 602 105 602 105 554 c 0,18,19
 105 538 105 538 109.5 520 c 128,-1,20
 114 502 114 502 123 482 c 256,21,22
 132 462 132 462 136.5 444 c 128,-1,23
 141 426 141 426 141 410 c 0,24,25
 141 373 141 373 117 349.5 c 128,-1,26
 93 326 93 326 63 326 c 2,27,-1
 30 326 l 1,28,-1
 30 288 l 1,29,-1
 63 288 l 2,30,31
 93 288 93 288 117 264.5 c 128,-1,32
 141 241 141 241 141 204 c 0,33,34
 141 188 141 188 136.5 170 c 128,-1,35
 132 152 132 152 123 132 c 256,36,37
 114 112 114 112 109.5 94 c 128,-1,38
 105 76 105 76 105 60 c 0,39,40
 105 12 105 12 135.5 -16.5 c 128,-1,41
 166 -45 166 -45 229 -45 c 2,42,-1
 255 -45 l 1,43,-1
 246 -6 l 1,44,-1
 227 -6 l 2,45,46
 190 -6 190 -6 172.5 13.5 c 128,-1,47
 155 33 155 33 155 54 c 0,48,49
 155 68 155 68 159.5 85.5 c 128,-1,50
 164 103 164 103 174 125 c 256,51,52
 184 147 184 147 188.5 164.5 c 128,-1,53
 193 182 193 182 193 195 c 0,54,55
 193 239 193 239 173.5 267 c 128,-1,56
 154 295 154 295 129 307 c 1,0,1
EndSplineSet
EndChar

StartChar: braceright
Encoding: 125 125 91
Width: 265
Flags: W
LayerCount: 2
Fore
SplineSet
136 307 m 1,0,1
 111 295 111 295 91.5 267 c 128,-1,2
 72 239 72 239 72 195 c 0,3,4
 72 182 72 182 76.5 164.5 c 128,-1,5
 81 147 81 147 91 125 c 256,6,7
 101 103 101 103 105.5 85.5 c 128,-1,8
 110 68 110 68 110 54 c 0,9,10
 110 33 110 33 92.5 13.5 c 128,-1,11
 75 -6 75 -6 38 -6 c 2,12,-1
 19 -6 l 1,13,-1
 10 -45 l 1,14,-1
 36 -45 l 2,15,16
 99 -45 99 -45 129.5 -16.5 c 128,-1,17
 160 12 160 12 160 60 c 0,18,19
 160 76 160 76 155.5 94 c 128,-1,20
 151 112 151 112 142 132 c 256,21,22
 133 152 133 152 128.5 170 c 128,-1,23
 124 188 124 188 124 204 c 0,24,25
 124 241 124 241 148 264.5 c 128,-1,26
 172 288 172 288 202 288 c 2,27,-1
 235 288 l 1,28,-1
 235 326 l 1,29,-1
 202 326 l 2,30,31
 172 326 172 326 148 349.5 c 128,-1,32
 124 373 124 373 124 410 c 0,33,34
 124 426 124 426 128.5 444 c 128,-1,35
 133 462 133 462 142 482 c 256,36,37
 151 502 151 502 155.5 520 c 128,-1,38
 160 538 160 538 160 554 c 0,39,40
 160 602 160 602 129.5 630.5 c 128,-1,41
 99 659 99 659 36 659 c 2,42,-1
 10 659 l 1,43,-1
 19 620 l 1,44,-1
 38 620 l 2,45,46
 75 620 75 620 92.5 600.5 c 128,-1,47
 110 581 110 581 110 560 c 0,48,49
 110 547 110 547 105.5 529 c 128,-1,50
 101 511 101 511 91 489 c 256,51,52
 81 467 81 467 76.5 449.5 c 128,-1,53
 72 432 72 432 72 419 c 0,54,55
 72 375 72 375 91.5 347 c 128,-1,56
 111 319 111 319 136 307 c 1,0,1
EndSplineSet
EndChar

StartChar: slash
Encoding: 47 47 92
Width: 375
Flags: W
LayerCount: 2
Fore
SplineSet
318 710 m 1,0,-1
 10 0 l 1,1,-1
 56 -4 l 1,2,-1
 365 706 l 1,3,-1
 318 710 l 1,0,-1
EndSplineSet
EndChar

StartChar: backslash
Encoding: 92 92 93
Width: 375
Flags: W
LayerCount: 2
Fore
SplineSet
365 0 m 1,0,-1
 57 710 l 1,1,-1
 10 706 l 1,2,-1
 318 -4 l 1,3,-1
 365 0 l 1,0,-1
EndSplineSet
EndChar

StartChar: bar
Encoding: 124 124 94
Width: 249
Flags: W
LayerCount: 2
Fore
SplineSet
100 710 m 1,0,-1
 100 0 l 1,1,-1
 149 -4 l 1,2,-1
 149 706 l 1,3,-1
 100 710 l 1,0,-1
EndSplineSet
EndChar

StartChar: brokenbar
Encoding: 166 166 95
Width: 739
Flags: W
LayerCount: 2
Fore
SplineSet
729 0 m 1,0,-1
 75 0 l 1,1,-1
 75 35 l 1,2,-1
 729 35 l 1,3,-1
 729 0 l 1,0,-1
52 273 m 1,4,5
 52 309 52 309 71.5 341 c 128,-1,6
 91 373 91 373 125.5 392.5 c 128,-1,7
 160 412 160 412 203 412 c 0,8,9
 248 412 248 412 282.5 394 c 128,-1,10
 317 376 317 376 337 344 c 128,-1,11
 357 312 357 312 357 271 c 0,12,13
 357 229 357 229 336.5 196 c 128,-1,14
 316 163 316 163 280 144 c 128,-1,15
 244 125 244 125 198 125 c 0,16,17
 153 125 153 125 117 144.5 c 128,-1,18
 81 164 81 164 60.5 198 c 128,-1,19
 40 232 40 232 40 275 c 0,20,21
 40 349 40 349 74.5 407 c 128,-1,22
 109 465 109 465 171.5 498 c 128,-1,23
 234 531 234 531 317 531 c 0,24,25
 396 531 396 531 457.5 497.5 c 128,-1,26
 519 464 519 464 554 406 c 128,-1,27
 589 348 589 348 589 273 c 0,28,29
 589 194 589 194 556.5 133.5 c 128,-1,30
 524 73 524 73 463 39 c 128,-1,31
 402 5 402 5 316 5 c 1,32,-1
 316 35 l 1,33,34
 383 35 383 35 433.5 66 c 128,-1,35
 484 97 484 97 512.5 150.5 c 128,-1,36
 541 204 541 204 541 273 c 0,37,38
 541 337 541 337 512.5 385.5 c 128,-1,39
 484 434 484 434 434 461.5 c 128,-1,40
 384 489 384 489 317 489 c 0,41,42
 247 489 247 489 195 461.5 c 128,-1,43
 143 434 143 434 114.5 385.5 c 128,-1,44
 86 337 86 337 86 273 c 0,45,46
 86 226 86 226 117.5 196.5 c 128,-1,47
 149 167 149 167 198 167 c 0,48,49
 246 167 246 167 277.5 196.5 c 128,-1,50
 309 226 309 226 309 271 c 0,51,52
 309 315 309 315 279 344.5 c 128,-1,53
 249 374 249 374 203 374 c 0,54,55
 152 374 152 374 119 345.5 c 128,-1,56
 86 317 86 317 86 273 c 1,57,-1
 52 273 l 1,4,5
EndSplineSet
EndChar

StartChar: guillemotleft
Encoding: 171 171 96
Width: 728
Flags: W
LayerCount: 2
Fore
SplineSet
628 513 m 1,0,-1
 628 0 l 1,1,-1
 584 0 l 1,2,-1
 584 478 l 1,3,-1
 469 478 l 1,4,-1
 468 513 l 1,5,-1
 628 513 l 1,0,-1
108 237 m 0,6,7
 108 173 108 173 136 123.5 c 128,-1,8
 164 74 164 74 216 45.5 c 128,-1,9
 268 17 268 17 339 17 c 0,10,11
 392 17 392 17 426 51 c 128,-1,12
 460 85 460 85 460 137 c 0,13,14
 460 190 460 190 426 223.5 c 128,-1,15
 392 257 392 257 339 257 c 0,16,17
 287 257 287 257 252.5 224 c 128,-1,18
 218 191 218 191 218 139 c 0,19,20
 218 86 218 86 252.5 51.5 c 128,-1,21
 287 17 287 17 339 17 c 1,22,-1
 339 -8 l 1,23,24
 292 -8 292 -8 254.5 11 c 128,-1,25
 217 30 217 30 196 63 c 128,-1,26
 175 96 175 96 175 139 c 0,27,28
 175 185 175 185 196 220 c 128,-1,29
 217 255 217 255 254.5 275.5 c 128,-1,30
 292 296 292 296 339 296 c 0,31,32
 388 296 388 296 425.5 275.5 c 128,-1,33
 463 255 463 255 485 219.5 c 128,-1,34
 507 184 507 184 507 137 c 0,35,36
 507 92 507 92 485 57 c 128,-1,37
 463 22 463 22 425.5 2 c 128,-1,38
 388 -18 388 -18 339 -18 c 0,39,40
 254 -18 254 -18 191 15 c 128,-1,41
 128 48 128 48 94 105.5 c 128,-1,42
 60 163 60 163 60 237 c 0,43,44
 60 320 60 320 97 382 c 128,-1,45
 134 444 134 444 206.5 478.5 c 128,-1,46
 279 513 279 513 385 513 c 2,47,-1
 565 513 l 1,48,-1
 565 478 l 1,49,-1
 394 478 l 2,50,51
 300 478 300 478 236 448 c 128,-1,52
 172 418 172 418 140 364 c 128,-1,53
 108 310 108 310 108 237 c 0,6,7
EndSplineSet
EndChar

StartChar: hyphen
Encoding: 45 45 97
Width: 311
Flags: W
LayerCount: 2
Fore
SplineSet
273 292 m 5,0,-1
 30 292 l 5,1,-1
 38 253 l 5,2,-1
 281 253 l 5,3,-1
 273 292 l 5,0,-1
EndSplineSet
EndChar

StartChar: underscore
Encoding: 95 95 98
Width: 429
Flags: W
LayerCount: 2
Fore
SplineSet
391 39 m 5,0,-1
 30 39 l 5,1,-1
 38 0 l 5,2,-1
 399 0 l 5,3,-1
 391 39 l 5,0,-1
EndSplineSet
EndChar

StartChar: numbersign
Encoding: 35 35 99
Width: 497
Flags: W
LayerCount: 2
Fore
SplineSet
380 502 m 1,0,-1
 347 371 l 1,1,-1
 216 371 l 1,2,-1
 249 502 l 1,3,-1
 202 502 l 1,4,-1
 169 371 l 1,5,-1
 30 371 l 1,6,-1
 38 332 l 1,7,-1
 159 332 l 1,8,-1
 121 179 l 1,9,-1
 30 179 l 1,10,-1
 38 140 l 1,11,-1
 111 140 l 1,12,-1
 77 4 l 1,13,-1
 123 0 l 1,14,-1
 158 140 l 1,15,-1
 289 140 l 1,16,-1
 255 4 l 1,17,-1
 301 0 l 1,18,-1
 336 140 l 1,19,-1
 467 140 l 1,20,-1
 460 179 l 1,21,-1
 346 179 l 1,22,-1
 384 332 l 1,23,-1
 467 332 l 1,24,-1
 460 371 l 1,25,-1
 394 371 l 1,26,-1
 427 502 l 1,27,-1
 380 502 l 1,0,-1
337 332 m 1,28,-1
 299 179 l 1,29,-1
 168 179 l 1,30,-1
 206 332 l 1,31,-1
 337 332 l 1,28,-1
EndSplineSet
EndChar

StartChar: percent
Encoding: 37 37 100
Width: 809
Flags: W
LayerCount: 2
Fore
SplineSet
526 710 m 1,0,-1
 218 0 l 1,1,-1
 264 -4 l 1,2,-1
 573 706 l 1,3,-1
 526 710 l 1,0,-1
192 702 m 0,4,5
 150 702 150 702 115.5 681 c 128,-1,6
 81 660 81 660 60.5 622 c 128,-1,7
 40 584 40 584 40 532 c 0,8,9
 40 478 40 478 60 440.5 c 128,-1,10
 80 403 80 403 114.5 383 c 128,-1,11
 149 363 149 363 193 363 c 0,12,13
 234 363 234 363 268 383.5 c 128,-1,14
 302 404 302 404 323 442 c 128,-1,15
 344 480 344 480 344 532 c 0,16,17
 344 586 344 586 325 624 c 128,-1,18
 306 662 306 662 272 682 c 128,-1,19
 238 702 238 702 192 702 c 0,4,5
192 665 m 0,20,21
 238 665 238 665 267.5 630 c 128,-1,22
 297 595 297 595 297 532 c 0,23,24
 297 489 297 489 282 459.5 c 128,-1,25
 267 430 267 430 243.5 415 c 128,-1,26
 220 400 220 400 193 400 c 0,27,28
 151 400 151 400 119 435 c 128,-1,29
 87 470 87 470 87 532 c 0,30,31
 87 576 87 576 102.5 605.5 c 128,-1,32
 118 635 118 635 142 650 c 128,-1,33
 166 665 166 665 192 665 c 0,20,21
617 338 m 0,34,35
 575 338 575 338 540.5 317 c 128,-1,36
 506 296 506 296 485.5 258 c 128,-1,37
 465 220 465 220 465 168 c 0,38,39
 465 114 465 114 485 76 c 128,-1,40
 505 38 505 38 539.5 18.5 c 128,-1,41
 574 -1 574 -1 618 -1 c 0,42,43
 659 -1 659 -1 693 19.5 c 128,-1,44
 727 40 727 40 748 78 c 128,-1,45
 769 116 769 116 769 168 c 0,46,47
 769 222 769 222 750 260 c 128,-1,48
 731 298 731 298 697 318 c 128,-1,49
 663 338 663 338 617 338 c 0,34,35
617 300 m 0,50,51
 663 300 663 300 692.5 265.5 c 128,-1,52
 722 231 722 231 722 168 c 0,53,54
 722 125 722 125 707 95.5 c 128,-1,55
 692 66 692 66 668.5 51 c 128,-1,56
 645 36 645 36 618 36 c 0,57,58
 576 36 576 36 544 71 c 128,-1,59
 512 106 512 106 512 168 c 0,60,61
 512 212 512 212 527.5 241 c 128,-1,62
 543 270 543 270 567 285 c 128,-1,63
 591 300 591 300 617 300 c 0,50,51
EndSplineSet
EndChar

StartChar: plus
Encoding: 43 43 101
Width: 527
Flags: W
LayerCount: 2
Fore
SplineSet
487 292 m 1,0,-1
 287 292 l 1,1,-1
 287 531 l 1,2,-1
 238 534 l 1,3,-1
 238 292 l 1,4,-1
 30 292 l 1,5,-1
 38 255 l 1,6,-1
 238 255 l 1,7,-1
 238 8 l 1,8,-1
 287 4 l 1,9,-1
 287 255 l 1,10,-1
 497 255 l 1,11,-1
 487 292 l 1,0,-1
EndSplineSet
EndChar

StartChar: less
Encoding: 60 60 102
Width: 322
Flags: W
LayerCount: 2
Fore
SplineSet
302 54 m 1,0,-1
 76 245 l 1,1,-1
 302 436 l 1,2,-1
 279 470 l 1,3,-1
 30 259 l 1,4,-1
 30 231 l 1,5,-1
 279 19 l 1,6,-1
 302 54 l 1,0,-1
EndSplineSet
EndChar

StartChar: equal
Encoding: 61 61 103
Width: 497
Flags: W
LayerCount: 2
Fore
SplineSet
460 371 m 1,0,-1
 30 371 l 1,1,-1
 38 332 l 1,2,-1
 467 332 l 1,3,-1
 460 371 l 1,0,-1
460 179 m 1,4,-1
 30 179 l 1,5,-1
 38 140 l 1,6,-1
 467 140 l 1,7,-1
 460 179 l 1,4,-1
EndSplineSet
EndChar

StartChar: greater
Encoding: 62 62 104
Width: 322
Flags: W
LayerCount: 2
Fore
SplineSet
292 258 m 1,0,-1
 43 470 l 1,1,-1
 20 435 l 1,2,-1
 246 244 l 1,3,-1
 20 53 l 1,4,-1
 43 19 l 1,5,-1
 292 230 l 1,6,-1
 292 258 l 1,0,-1
EndSplineSet
EndChar

StartChar: onesuperior
Encoding: 185 185 105
Width: 964
Flags: W
LayerCount: 2
Fore
SplineSet
954 0 m 1,0,-1
 75 0 l 1,1,-1
 75 35 l 1,2,-1
 954 35 l 1,3,-1
 954 0 l 1,0,-1
52 273 m 1,4,5
 52 309 52 309 71.5 341 c 128,-1,6
 91 373 91 373 125.5 392.5 c 128,-1,7
 160 412 160 412 203 412 c 0,8,9
 248 412 248 412 282.5 394 c 128,-1,10
 317 376 317 376 337 344 c 128,-1,11
 357 312 357 312 357 271 c 0,12,13
 357 229 357 229 336.5 196 c 128,-1,14
 316 163 316 163 280 144 c 128,-1,15
 244 125 244 125 198 125 c 0,16,17
 153 125 153 125 117 144.5 c 128,-1,18
 81 164 81 164 60.5 198 c 128,-1,19
 40 232 40 232 40 275 c 0,20,21
 40 349 40 349 74.5 407 c 128,-1,22
 109 465 109 465 171.5 498 c 128,-1,23
 234 531 234 531 317 531 c 0,24,25
 396 531 396 531 457.5 497.5 c 128,-1,26
 519 464 519 464 554 406 c 128,-1,27
 589 348 589 348 589 273 c 0,28,29
 589 194 589 194 556.5 133.5 c 128,-1,30
 524 73 524 73 463 39 c 128,-1,31
 402 5 402 5 316 5 c 1,32,-1
 316 35 l 1,33,34
 383 35 383 35 433.5 66 c 128,-1,35
 484 97 484 97 512.5 150.5 c 128,-1,36
 541 204 541 204 541 273 c 0,37,38
 541 337 541 337 512.5 385.5 c 128,-1,39
 484 434 484 434 434 461.5 c 128,-1,40
 384 489 384 489 317 489 c 0,41,42
 247 489 247 489 195 461.5 c 128,-1,43
 143 434 143 434 114.5 385.5 c 128,-1,44
 86 337 86 337 86 273 c 0,45,46
 86 226 86 226 117.5 196.5 c 128,-1,47
 149 167 149 167 198 167 c 0,48,49
 246 167 246 167 277.5 196.5 c 128,-1,50
 309 226 309 226 309 271 c 0,51,52
 309 315 309 315 279 344.5 c 128,-1,53
 249 374 249 374 203 374 c 0,54,55
 152 374 152 374 119 345.5 c 128,-1,56
 86 317 86 317 86 273 c 1,57,-1
 52 273 l 1,4,5
EndSplineSet
EndChar

StartChar: twosuperior
Encoding: 178 178 106
Width: 0
Flags: W
AnchorPoint: "Anchor-1" 0 0 mark 0
LayerCount: 2
Fore
SplineSet
0 638 m 0,0,1
 30 638 30 638 53.5 651 c 128,-1,2
 77 664 77 664 90.5 686.5 c 128,-1,3
 104 709 104 709 104 737 c 0,4,5
 104 767 104 767 90 789.5 c 128,-1,6
 76 812 76 812 52.5 824.5 c 128,-1,7
 29 837 29 837 0 837 c 0,8,9
 -27 837 -27 837 -50.5 824.5 c 128,-1,10
 -74 812 -74 812 -89 789.5 c 128,-1,11
 -104 767 -104 767 -104 737 c 0,12,13
 -104 709 -104 709 -89.5 686.5 c 128,-1,14
 -75 664 -75 664 -51.5 651 c 128,-1,15
 -28 638 -28 638 0 638 c 0,0,1
0 675 m 0,16,17
 -26 675 -26 675 -43.5 692.5 c 128,-1,18
 -61 710 -61 710 -61 737 c 256,19,20
 -61 764 -61 764 -43.5 781.5 c 128,-1,21
 -26 799 -26 799 0 799 c 0,22,23
 27 799 27 799 44.5 781.5 c 128,-1,24
 62 764 62 764 62 737 c 256,25,26
 62 710 62 710 44.5 692.5 c 128,-1,27
 27 675 27 675 0 675 c 0,16,17
EndSplineSet
EndChar

StartChar: threesuperior
Encoding: 179 179 107
Width: 670
Flags: W
LayerCount: 2
Fore
SplineSet
335 328 m 0,0,1
 364 328 364 328 387.5 340.5 c 128,-1,2
 411 353 411 353 425 375.5 c 128,-1,3
 439 398 439 398 439 427 c 256,4,5
 439 456 439 456 424.5 478.5 c 128,-1,6
 410 501 410 501 386.5 514 c 128,-1,7
 363 527 363 527 335 527 c 0,8,9
 308 527 308 527 284.5 514 c 128,-1,10
 261 501 261 501 246 478.5 c 128,-1,11
 231 456 231 456 231 427 c 256,12,13
 231 398 231 398 245.5 375.5 c 128,-1,14
 260 353 260 353 283.5 340.5 c 128,-1,15
 307 328 307 328 335 328 c 0,0,1
335 365 m 256,16,17
 308 365 308 365 290.5 382.5 c 128,-1,18
 273 400 273 400 273 427 c 256,19,20
 273 454 273 454 290.5 471.5 c 128,-1,21
 308 489 308 489 335 489 c 256,22,23
 362 489 362 489 379.5 471.5 c 128,-1,24
 397 454 397 454 397 427 c 256,25,26
 397 400 397 400 379.5 382.5 c 128,-1,27
 362 365 362 365 335 365 c 256,16,17
164 -14 m 0,28,29
 193 -14 193 -14 216.5 -1 c 128,-1,30
 240 12 240 12 254 34.5 c 128,-1,31
 268 57 268 57 268 86 c 256,32,33
 268 115 268 115 253.5 137.5 c 128,-1,34
 239 160 239 160 215.5 172.5 c 128,-1,35
 192 185 192 185 164 185 c 0,36,37
 137 185 137 185 113.5 172.5 c 128,-1,38
 90 160 90 160 75 137.5 c 128,-1,39
 60 115 60 115 60 86 c 256,40,41
 60 57 60 57 74.5 34.5 c 128,-1,42
 89 12 89 12 112.5 -1 c 128,-1,43
 136 -14 136 -14 164 -14 c 0,28,29
506 -14 m 0,44,45
 535 -14 535 -14 558.5 -1 c 128,-1,46
 582 12 582 12 596 34.5 c 128,-1,47
 610 57 610 57 610 86 c 256,48,49
 610 115 610 115 595.5 137.5 c 128,-1,50
 581 160 581 160 557.5 172.5 c 128,-1,51
 534 185 534 185 506 185 c 0,52,53
 479 185 479 185 455.5 172.5 c 128,-1,54
 432 160 432 160 417 137.5 c 128,-1,55
 402 115 402 115 402 86 c 256,56,57
 402 57 402 57 416.5 34.5 c 128,-1,58
 431 12 431 12 454.5 -1 c 128,-1,59
 478 -14 478 -14 506 -14 c 0,44,45
164 23 m 256,60,61
 137 23 137 23 119.5 41 c 128,-1,62
 102 59 102 59 102 86 c 256,63,64
 102 113 102 113 119.5 131 c 128,-1,65
 137 149 137 149 164 149 c 256,66,67
 191 149 191 149 208.5 131 c 128,-1,68
 226 113 226 113 226 86 c 256,69,70
 226 59 226 59 208.5 41 c 128,-1,71
 191 23 191 23 164 23 c 256,60,61
506 23 m 256,72,73
 479 23 479 23 461.5 41 c 128,-1,74
 444 59 444 59 444 86 c 256,75,76
 444 113 444 113 461.5 130.5 c 128,-1,77
 479 148 479 148 506 148 c 256,78,79
 533 148 533 148 550.5 130.5 c 128,-1,80
 568 113 568 113 568 86 c 256,81,82
 568 59 568 59 550.5 41 c 128,-1,83
 533 23 533 23 506 23 c 256,72,73
EndSplineSet
EndChar

StartChar: copyright
Encoding: 169 169 108
Width: 1221
Flags: W
LayerCount: 2
Fore
SplineSet
633 0 m 1,0,-1
 633 478 l 1,1,-1
 419 478 l 1,2,-1
 419 0 l 1,3,-1
 375 0 l 1,4,-1
 375 513 l 1,5,-1
 874 513 l 1,6,-1
 878 478 l 1,7,-1
 677 478 l 1,8,-1
 677 282 l 1,9,10
 700 311 700 311 732.5 327 c 128,-1,11
 765 343 765 343 805 343 c 0,12,13
 856 343 856 343 892 314.5 c 128,-1,14
 928 286 928 286 946.5 236.5 c 128,-1,15
 965 187 965 187 965 123 c 0,16,17
 965 36 965 36 935.5 -32 c 128,-1,18
 906 -100 906 -100 851 -148 c 128,-1,19
 796 -196 796 -196 720.5 -221 c 128,-1,20
 645 -246 645 -246 553 -246 c 0,21,22
 444 -246 444 -246 356.5 -210.5 c 128,-1,23
 269 -175 269 -175 207 -109.5 c 128,-1,24
 145 -44 145 -44 112.5 47 c 128,-1,25
 80 138 80 138 80 249 c 0,26,27
 80 363 80 363 117 461 c 128,-1,28
 154 559 154 559 225.5 632.5 c 128,-1,29
 297 706 297 706 399.5 747 c 128,-1,30
 502 788 502 788 634 788 c 0,31,32
 736 788 736 788 824.5 757.5 c 128,-1,33
 913 727 913 727 979.5 669 c 128,-1,34
 1046 611 1046 611 1083.5 527.5 c 128,-1,35
 1121 444 1121 444 1121 338 c 2,36,-1
 1121 0 l 1,37,-1
 1077 0 l 1,38,-1
 1077 336 l 2,39,40
 1077 433 1077 433 1043 509 c 128,-1,41
 1009 585 1009 585 948 638 c 128,-1,42
 887 691 887 691 807 718.5 c 128,-1,43
 727 746 727 746 634 746 c 0,44,45
 513 746 513 746 419 708 c 128,-1,46
 325 670 325 670 260 602 c 128,-1,47
 195 534 195 534 161.5 443 c 128,-1,48
 128 352 128 352 128 247 c 0,49,50
 128 146 128 146 157 63 c 128,-1,51
 186 -20 186 -20 241.5 -79.5 c 128,-1,52
 297 -139 297 -139 375.5 -171.5 c 128,-1,53
 454 -204 454 -204 553 -204 c 0,54,55
 662 -204 662 -204 744 -165 c 128,-1,56
 826 -126 826 -126 872 -52.5 c 128,-1,57
 918 21 918 21 918 125 c 0,58,59
 918 176 918 176 905 215.5 c 128,-1,60
 892 255 892 255 866.5 278 c 128,-1,61
 841 301 841 301 803 301 c 0,62,63
 748 301 748 301 712.5 263 c 128,-1,64
 677 225 677 225 677 166 c 2,65,-1
 677 0 l 1,66,-1
 633 0 l 1,0,-1
EndSplineSet
EndChar

StartChar: registered
Encoding: 174 174 109
Width: 764
Flags: W
LayerCount: 2
Fore
SplineSet
619 527 m 1,0,1
 649 478 649 478 667.5 425.5 c 128,-1,2
 686 373 686 373 695 323.5 c 128,-1,3
 704 274 704 274 704 235 c 0,4,5
 704 159 704 159 683.5 102 c 128,-1,6
 663 45 663 45 624 13.5 c 128,-1,7
 585 -18 585 -18 528 -18 c 0,8,9
 479 -18 479 -18 441 5.5 c 128,-1,10
 403 29 403 29 382 80 c 1,11,12
 360 29 360 29 322 5.5 c 128,-1,13
 284 -18 284 -18 236 -18 c 0,14,15
 179 -18 179 -18 139.5 13.5 c 128,-1,16
 100 45 100 45 80 102 c 128,-1,17
 60 159 60 159 60 235 c 0,18,19
 60 274 60 274 68.5 323.5 c 128,-1,20
 77 373 77 373 96 425.5 c 128,-1,21
 115 478 115 478 145 527 c 1,22,-1
 190 513 l 1,23,24
 162 473 162 473 143.5 422 c 128,-1,25
 125 371 125 371 116.5 321 c 128,-1,26
 108 271 108 271 108 233 c 0,27,28
 108 136 108 136 141.5 80 c 128,-1,29
 175 24 175 24 236 24 c 0,30,31
 290 24 290 24 325 67 c 128,-1,32
 360 110 360 110 360 210 c 2,33,-1
 360 338 l 1,34,-1
 404 338 l 1,35,-1
 404 210 l 2,36,37
 404 110 404 110 439 67 c 128,-1,38
 474 24 474 24 528 24 c 0,39,40
 589 24 589 24 622.5 80 c 128,-1,41
 656 136 656 136 656 233 c 0,42,43
 656 271 656 271 647.5 321 c 128,-1,44
 639 371 639 371 621 422 c 128,-1,45
 603 473 603 473 574 513 c 1,46,-1
 619 527 l 1,0,1
EndSplineSet
EndChar

StartChar: ampersand
Encoding: 38 38 110
Width: 647
Flags: W
LayerCount: 2
Fore
SplineSet
453 117 m 1,0,1
 424 78 424 78 382 53 c 128,-1,2
 340 28 340 28 289 28 c 0,3,4
 241 28 241 28 197 49 c 128,-1,5
 153 70 153 70 125 109.5 c 128,-1,6
 97 149 97 149 97 202 c 0,7,8
 97 253 97 253 118 296.5 c 128,-1,9
 139 340 139 340 182 371 c 1,10,11
 195 355 195 355 210.5 339.5 c 128,-1,12
 226 324 226 324 242 310 c 2,13,-1
 453 117 l 1,0,1
582 0 m 1,14,-1
 607 27 l 1,15,-1
 507 120 l 1,16,17
 535 166 535 166 549 220 c 128,-1,18
 563 274 563 274 563 328 c 1,19,-1
 527 339 l 1,20,21
 527 293 527 293 513.5 243 c 128,-1,22
 500 193 500 193 475 150 c 1,23,-1
 277 335 l 2,24,25
 243 368 243 368 218.5 398 c 128,-1,26
 194 428 194 428 181 459 c 128,-1,27
 168 490 168 490 168 526 c 0,28,29
 168 560 168 560 185 589.5 c 128,-1,30
 202 619 202 619 232 637 c 128,-1,31
 262 655 262 655 299 655 c 0,32,33
 345 655 345 655 370.5 644.5 c 128,-1,34
 396 634 396 634 421 622 c 1,35,-1
 441 657 l 1,36,37
 418 671 418 671 379 683.5 c 128,-1,38
 340 696 340 696 290 696 c 0,39,40
 242 696 242 696 203.5 672.5 c 128,-1,41
 165 649 165 649 143 609.5 c 128,-1,42
 121 570 121 570 121 522 c 0,43,44
 121 488 121 488 131 459 c 128,-1,45
 141 430 141 430 158 404 c 1,46,47
 110 372 110 372 80 319 c 128,-1,48
 50 266 50 266 50 200 c 256,49,50
 50 134 50 134 81.5 86 c 128,-1,51
 113 38 113 38 166.5 12.5 c 128,-1,52
 220 -13 220 -13 286 -13 c 0,53,54
 349 -13 349 -13 400 14.5 c 128,-1,55
 451 42 451 42 485 88 c 1,56,-1
 582 0 l 1,14,-1
EndSplineSet
EndChar

StartChar: at
Encoding: 64 64 111
Width: 760
Flags: W
LayerCount: 2
Fore
SplineSet
527 384 m 1,0,-1
 511 404 l 1,1,-1
 440 404 l 2,2,3
 397 404 397 404 358 389.5 c 128,-1,4
 319 375 319 375 290 349.5 c 128,-1,5
 261 324 261 324 244 288.5 c 128,-1,6
 227 253 227 253 227 211 c 0,7,8
 227 147 227 147 270.5 106.5 c 128,-1,9
 314 66 314 66 384 66 c 0,10,11
 407 66 407 66 433 75.5 c 128,-1,12
 459 85 459 85 478 99 c 1,13,14
 491 82 491 82 511 71.5 c 128,-1,15
 531 61 531 61 558 61 c 0,16,17
 596 61 596 61 625.5 76.5 c 128,-1,18
 655 92 655 92 676.5 123 c 128,-1,19
 698 154 698 154 709 199 c 128,-1,20
 720 244 720 244 720 304 c 0,21,22
 720 367 720 367 698 419.5 c 128,-1,23
 676 472 676 472 636 511.5 c 128,-1,24
 596 551 596 551 540.5 572.5 c 128,-1,25
 485 594 485 594 417 594 c 0,26,27
 326 594 326 594 255.5 564 c 128,-1,28
 185 534 185 534 137 481 c 128,-1,29
 89 428 89 428 64.5 359.5 c 128,-1,30
 40 291 40 291 40 213 c 0,31,32
 40 141 40 141 64.5 84 c 128,-1,33
 89 27 89 27 132.5 -13.5 c 128,-1,34
 176 -54 176 -54 231.5 -75 c 128,-1,35
 287 -96 287 -96 348 -96 c 0,36,37
 397 -96 397 -96 445 -88 c 128,-1,38
 493 -80 493 -80 535 -58 c 1,39,-1
 522 -20 l 1,40,41
 502 -31 502 -31 474.5 -39 c 128,-1,42
 447 -47 447 -47 417.5 -51 c 128,-1,43
 388 -55 388 -55 359 -55 c 0,44,45
 285 -55 285 -55 224 -22.5 c 128,-1,46
 163 10 163 10 127 70.5 c 128,-1,47
 91 131 91 131 91 214 c 0,48,49
 91 291 91 291 115 353 c 128,-1,50
 139 415 139 415 182.5 460 c 128,-1,51
 226 505 226 505 285 529 c 128,-1,52
 344 553 344 553 414 553 c 0,53,54
 495 553 495 553 552.5 520.5 c 128,-1,55
 610 488 610 488 641 430.5 c 128,-1,56
 672 373 672 373 672 297 c 0,57,58
 672 231 672 231 656.5 188 c 128,-1,59
 641 145 641 145 616 123.5 c 128,-1,60
 591 102 591 102 560 102 c 256,61,62
 529 102 529 102 513.5 121 c 128,-1,63
 498 140 498 140 503 183 c 2,64,-1
 527 384 l 1,0,-1
384 103 m 0,65,66
 352 103 352 103 328 116 c 128,-1,67
 304 129 304 129 291 153 c 128,-1,68
 278 177 278 177 278 211 c 0,69,70
 278 259 278 259 300 294 c 128,-1,71
 322 329 322 329 357.5 348 c 128,-1,72
 393 367 393 367 435 367 c 2,73,-1
 480 367 l 1,74,-1
 457 190 l 2,75,76
 456 176 456 176 455.5 159 c 128,-1,77
 455 142 455 142 462 125 c 1,78,79
 449 116 449 116 427.5 109.5 c 128,-1,80
 406 103 406 103 384 103 c 0,65,66
EndSplineSet
EndChar

StartChar: asciicircum
Encoding: 94 94 112
Width: 417
Flags: W
LayerCount: 2
Fore
SplineSet
204 348 m 1,0,-1
 349 143 l 1,1,-1
 397 143 l 1,2,-1
 225 390 l 1,3,-1
 182 390 l 1,4,-1
 10 143 l 1,5,-1
 58 143 l 1,6,-1
 204 348 l 1,0,-1
EndSplineSet
EndChar

StartChar: asciitilde
Encoding: 126 126 113
Width: 374
Flags: W
LayerCount: 2
Fore
SplineSet
30 215 m 1,0,-1
 70 215 l 1,1,2
 70 234 70 234 84 245.5 c 128,-1,3
 98 257 98 257 117 257 c 0,4,5
 134 257 134 257 152 251 c 128,-1,6
 170 245 170 245 188 233 c 256,7,8
 206 221 206 221 223.5 215 c 128,-1,9
 241 209 241 209 258 209 c 0,10,11
 284 209 284 209 303.5 219 c 128,-1,12
 323 229 323 229 333.5 247.5 c 128,-1,13
 344 266 344 266 344 289 c 1,14,-1
 304 289 l 1,15,16
 304 270 304 270 290 258.5 c 128,-1,17
 276 247 276 247 257 247 c 0,18,19
 244 247 244 247 228.5 253 c 128,-1,20
 213 259 213 259 195 271 c 256,21,22
 177 283 177 283 157.5 289 c 128,-1,23
 138 295 138 295 117 295 c 0,24,25
 91 295 91 295 71 285 c 128,-1,26
 51 275 51 275 40.5 257 c 128,-1,27
 30 239 30 239 30 215 c 1,0,-1
EndSplineSet
EndChar

StartChar: section
Encoding: 167 167 114
Width: 814
Flags: W
LayerCount: 2
Fore
SplineSet
386 478 m 1,0,-1
 386 142 l 1,1,-1
 342 142 l 1,2,-1
 342 478 l 1,3,-1
 144 478 l 1,4,-1
 144 0 l 1,5,-1
 100 0 l 1,6,-1
 100 513 l 1,7,-1
 582 513 l 1,8,-1
 587 478 l 1,9,-1
 386 478 l 1,0,-1
804 35 m 1,10,-1
 804 0 l 1,11,-1
 342 0 l 1,12,-1
 342 35 l 1,13,-1
 460 35 l 2,14,15
 507 35 507 35 543.5 56 c 128,-1,16
 580 77 580 77 600.5 114 c 128,-1,17
 621 151 621 151 621 197 c 0,18,19
 621 250 621 250 592.5 286 c 128,-1,20
 564 322 564 322 511 322 c 0,21,22
 456 322 456 322 421 284 c 128,-1,23
 386 246 386 246 386 187 c 1,24,-1
 348 187 l 1,25,26
 348 239 348 239 369.5 279 c 128,-1,27
 391 319 391 319 428.5 342 c 128,-1,28
 466 365 466 365 514 365 c 0,29,30
 563 365 563 365 597.5 342.5 c 128,-1,31
 632 320 632 320 650.5 281.5 c 128,-1,32
 669 243 669 243 669 195 c 0,33,34
 669 140 669 140 647 99.5 c 128,-1,35
 625 59 625 59 586 35 c 1,36,-1
 804 35 l 1,10,-1
EndSplineSet
EndChar

StartChar: ordfeminine
Encoding: 170 170 115
Width: 1029
Flags: W
LayerCount: 2
Fore
SplineSet
1019 0 m 1,0,-1
 721 0 l 1,1,-1
 721 35 l 1,2,-1
 1019 35 l 1,3,-1
 1019 0 l 1,0,-1
865 158 m 0,4,5
 865 207 865 207 836 239 c 128,-1,6
 807 271 807 271 750 271 c 0,7,8
 695 271 695 271 661.5 235 c 128,-1,9
 628 199 628 199 628 140 c 1,10,-1
 584 140 l 1,11,12
 584 190 584 190 606 229 c 128,-1,13
 628 268 628 268 666 290.5 c 128,-1,14
 704 313 704 313 753 313 c 0,15,16
 804 313 804 313 840 293 c 128,-1,17
 876 273 876 273 894.5 238 c 128,-1,18
 913 203 913 203 913 157 c 0,19,20
 913 113 913 113 892 78.5 c 128,-1,21
 871 44 871 44 828.5 24.5 c 128,-1,22
 786 5 786 5 721 5 c 1,23,-1
 721 35 l 1,24,25
 797 35 797 35 831 70 c 128,-1,26
 865 105 865 105 865 158 c 0,4,5
453 205 m 2,27,28
 453 132 453 132 425 82 c 128,-1,29
 397 32 397 32 348 7 c 128,-1,30
 299 -18 299 -18 236 -18 c 0,31,32
 180 -18 180 -18 138 2 c 128,-1,33
 96 22 96 22 73 57 c 128,-1,34
 50 92 50 92 50 136 c 0,35,36
 50 201 50 201 96 244 c 128,-1,37
 142 287 142 287 225 287 c 2,38,-1
 452 287 l 2,39,40
 509 287 509 287 548 268 c 128,-1,41
 587 249 587 249 607.5 216 c 128,-1,42
 628 183 628 183 628 140 c 2,43,-1
 628 0 l 1,44,-1
 584 0 l 1,45,-1
 584 140 l 2,46,47
 584 188 584 188 550.5 220 c 128,-1,48
 517 252 517 252 452 252 c 2,49,-1
 226 252 l 2,50,51
 164 252 164 252 131 219 c 128,-1,52
 98 186 98 186 98 135 c 0,53,54
 98 85 98 85 134.5 54.5 c 128,-1,55
 171 24 171 24 236 24 c 0,56,57
 286 24 286 24 325 44 c 128,-1,58
 364 64 364 64 386.5 104.5 c 128,-1,59
 409 145 409 145 409 205 c 2,60,-1
 409 478 l 1,61,-1
 211 478 l 1,62,-1
 211 263 l 1,63,-1
 167 263 l 1,64,-1
 167 513 l 1,65,-1
 622 513 l 1,66,-1
 627 478 l 1,67,-1
 453 478 l 1,68,-1
 453 205 l 2,27,28
EndSplineSet
EndChar

StartChar: logicalnot
Encoding: 172 172 116
Width: 1055
Flags: W
LayerCount: 2
Fore
SplineSet
955 -126 m 1,0,-1
 955 513 l 1,1,-1
 911 513 l 1,2,-1
 911 -126 l 1,3,-1
 955 -126 l 1,0,-1
911 90 m 1,4,-1
 717 90 l 1,5,6
 689 20 689 20 632.5 -33 c 128,-1,7
 576 -86 576 -86 498 -115 c 128,-1,8
 420 -144 420 -144 327 -144 c 0,9,10
 244 -144 244 -144 179 -121 c 128,-1,11
 114 -98 114 -98 77 -58.5 c 128,-1,12
 40 -19 40 -19 40 31 c 0,13,14
 40 72 40 72 67 98.5 c 128,-1,15
 94 125 94 125 146 125 c 2,16,-1
 336 125 l 1,17,18
 290 153 290 153 263 200 c 128,-1,19
 236 247 236 247 236 305 c 0,20,21
 236 371 236 371 266.5 422 c 128,-1,22
 297 473 297 473 350 502 c 128,-1,23
 403 531 403 531 471 531 c 0,24,25
 534 531 534 531 584.5 508.5 c 128,-1,26
 635 486 635 486 670.5 445.5 c 128,-1,27
 706 405 706 405 725 350 c 128,-1,28
 744 295 744 295 744 230 c 0,29,30
 744 202 744 202 740.5 176 c 128,-1,31
 737 150 737 150 729 125 c 1,32,-1
 911 125 l 1,33,-1
 911 90 l 1,4,-1
284 305 m 0,34,35
 284 253 284 253 307.5 212.5 c 128,-1,36
 331 172 331 172 372 148.5 c 128,-1,37
 413 125 413 125 466 125 c 2,38,-1
 680 125 l 1,39,40
 688 149 688 149 692 175.5 c 128,-1,41
 696 202 696 202 696 230 c 0,42,43
 696 306 696 306 669 364.5 c 128,-1,44
 642 423 642 423 592 456 c 128,-1,45
 542 489 542 489 471 489 c 0,46,47
 417 489 417 489 374.5 465 c 128,-1,48
 332 441 332 441 308 399.5 c 128,-1,49
 284 358 284 358 284 305 c 0,34,35
327 -102 m 0,50,51
 447 -102 447 -102 536.5 -50 c 128,-1,52
 626 2 626 2 666 90 c 1,53,-1
 150 90 l 2,54,55
 116 90 116 90 102 73.5 c 128,-1,56
 88 57 88 57 88 31 c 0,57,58
 88 -8 88 -8 118.5 -38 c 128,-1,59
 149 -68 149 -68 203 -85 c 128,-1,60
 257 -102 257 -102 327 -102 c 0,50,51
EndSplineSet
EndChar

StartChar: paragraph
Encoding: 182 182 117
Width: 1248
Flags: W
LayerCount: 2
Fore
SplineSet
931 90 m 1,0,-1
 150 90 l 2,1,2
 116 90 116 90 102 74 c 128,-1,3
 88 58 88 58 88 32 c 0,4,5
 88 -8 88 -8 118.5 -38 c 128,-1,6
 149 -68 149 -68 203 -85 c 128,-1,7
 257 -102 257 -102 327 -102 c 0,8,9
 435 -102 435 -102 518 -59.5 c 128,-1,10
 601 -17 601 -17 648.5 58 c 128,-1,11
 696 133 696 133 696 230 c 0,12,13
 696 306 696 306 669 364.5 c 128,-1,14
 642 423 642 423 592 456 c 128,-1,15
 542 489 542 489 471 489 c 0,16,17
 416 489 416 489 372.5 469 c 128,-1,18
 329 449 329 449 304.5 413.5 c 128,-1,19
 280 378 280 378 280 329 c 0,20,21
 280 298 280 298 303 277 c 128,-1,22
 326 256 326 256 360 254 c 0,23,24
 395 253 395 253 418 274 c 128,-1,25
 441 295 441 295 441 329 c 0,26,27
 441 362 441 362 418.5 383 c 128,-1,28
 396 404 396 404 361 404 c 0,29,30
 327 404 327 404 303.5 383 c 128,-1,31
 280 362 280 362 280 329 c 1,32,-1
 253 329 l 1,33,34
 253 362 253 362 267.5 387 c 128,-1,35
 282 412 282 412 307 426.5 c 128,-1,36
 332 441 332 441 361 441 c 0,37,38
 415 441 415 441 450.5 409 c 128,-1,39
 486 377 486 377 485 329 c 0,40,41
 484 279 484 279 449 247 c 128,-1,42
 414 215 414 215 360 216 c 0,43,44
 308 217 308 217 274.5 250 c 128,-1,45
 241 283 241 283 241 332 c 0,46,47
 241 390 241 390 271 434.5 c 128,-1,48
 301 479 301 479 353 505 c 128,-1,49
 405 531 405 531 471 531 c 0,50,51
 555 531 555 531 616.5 492 c 128,-1,52
 678 453 678 453 711 385 c 128,-1,53
 744 317 744 317 744 230 c 0,54,55
 744 149 744 149 713 80.5 c 128,-1,56
 682 12 682 12 626 -38.5 c 128,-1,57
 570 -89 570 -89 494 -116.5 c 128,-1,58
 418 -144 418 -144 327 -144 c 0,59,60
 244 -144 244 -144 179 -121 c 128,-1,61
 114 -98 114 -98 77 -58 c 128,-1,62
 40 -18 40 -18 40 32 c 0,63,64
 40 73 40 73 67 99 c 128,-1,65
 94 125 94 125 146 125 c 2,66,-1
 931 125 l 1,67,-1
 931 90 l 1,0,-1
1083 84 m 0,68,69
 1132 84 1132 84 1166.5 61.5 c 128,-1,70
 1201 39 1201 39 1219.5 0.5 c 128,-1,71
 1238 -38 1238 -38 1238 -86 c 0,72,73
 1238 -150 1238 -150 1211.5 -203.5 c 128,-1,74
 1185 -257 1185 -257 1136.5 -296 c 128,-1,75
 1088 -335 1088 -335 1023.5 -356 c 128,-1,76
 959 -377 959 -377 882 -377 c 0,77,78
 820 -377 820 -377 771 -360 c 128,-1,79
 722 -343 722 -343 694.5 -312.5 c 128,-1,80
 667 -282 667 -282 667 -244 c 0,81,82
 667 -198 667 -198 701 -168 c 128,-1,83
 735 -138 735 -138 787 -138 c 2,84,-1
 808 -138 l 1,85,-1
 808 -173 l 1,86,-1
 787 -173 l 2,87,88
 754 -173 754 -173 734.5 -193 c 128,-1,89
 715 -213 715 -213 715 -244 c 0,90,91
 715 -285 715 -285 761.5 -310 c 128,-1,92
 808 -335 808 -335 882 -335 c 0,93,94
 972 -335 972 -335 1041.5 -303.5 c 128,-1,95
 1111 -272 1111 -272 1150.5 -215 c 128,-1,96
 1190 -158 1190 -158 1190 -84 c 0,97,98
 1190 -31 1190 -31 1161.5 5 c 128,-1,99
 1133 41 1133 41 1080 41 c 0,100,101
 1026 41 1026 41 990.5 3 c 128,-1,102
 955 -35 955 -35 955 -94 c 2,103,-1
 955 -126 l 1,104,-1
 911 -126 l 1,105,-1
 911 513 l 1,106,-1
 955 513 l 1,107,-1
 955 23 l 1,108,109
 978 52 978 52 1010.5 68 c 128,-1,110
 1043 84 1043 84 1083 84 c 0,68,69
EndSplineSet
EndChar

StartChar: ordmasculine
Encoding: 186 186 118
Width: 1699
Flags: W
LayerCount: 2
Fore
SplineSet
75 35 m 1,0,-1
 316 35 l 2,1,2
 383 35 383 35 433.5 66 c 128,-1,3
 484 97 484 97 512.5 150.5 c 128,-1,4
 541 204 541 204 541 273 c 0,5,6
 541 337 541 337 512.5 385.5 c 128,-1,7
 484 434 484 434 434 461.5 c 128,-1,8
 384 489 384 489 317 489 c 0,9,10
 247 489 247 489 195 461.5 c 128,-1,11
 143 434 143 434 114.5 385.5 c 128,-1,12
 86 337 86 337 86 273 c 0,13,14
 86 226 86 226 117.5 196.5 c 128,-1,15
 149 167 149 167 198 167 c 0,16,17
 246 167 246 167 277.5 196.5 c 128,-1,18
 309 226 309 226 309 271 c 0,19,20
 309 315 309 315 279 344.5 c 128,-1,21
 249 374 249 374 203 374 c 0,22,23
 152 374 152 374 119 345.5 c 128,-1,24
 86 317 86 317 86 273 c 1,25,-1
 52 273 l 1,26,27
 52 309 52 309 71.5 341 c 128,-1,28
 91 373 91 373 125.5 392.5 c 128,-1,29
 160 412 160 412 203 412 c 0,30,31
 248 412 248 412 282.5 394 c 128,-1,32
 317 376 317 376 337 344 c 128,-1,33
 357 312 357 312 357 271 c 0,34,35
 357 229 357 229 336.5 196 c 128,-1,36
 316 163 316 163 280 144 c 128,-1,37
 244 125 244 125 198 125 c 0,38,39
 153 125 153 125 117 144.5 c 128,-1,40
 81 164 81 164 60.5 198 c 128,-1,41
 40 232 40 232 40 275 c 0,42,43
 40 349 40 349 74.5 407 c 128,-1,44
 109 465 109 465 171.5 498 c 128,-1,45
 234 531 234 531 317 531 c 0,46,47
 396 531 396 531 457.5 497.5 c 128,-1,48
 519 464 519 464 554 406 c 128,-1,49
 589 348 589 348 589 273 c 0,50,51
 589 191 589 191 554.5 129 c 128,-1,52
 520 67 520 67 456 35 c 1,53,-1
 1689 35 l 1,54,-1
 1689 0 l 1,55,-1
 75 0 l 1,56,-1
 75 35 l 1,0,-1
731 284 m 0,57,58
 731 237 731 237 751 197 c 128,-1,59
 771 157 771 157 813.5 133.5 c 128,-1,60
 856 110 856 110 923 110 c 0,61,62
 966 110 966 110 993 137.5 c 128,-1,63
 1020 165 1020 165 1020 208 c 256,64,65
 1020 251 1020 251 993 278.5 c 128,-1,66
 966 306 966 306 923 306 c 256,67,68
 880 306 880 306 853 279 c 128,-1,69
 826 252 826 252 826 210 c 0,70,71
 826 167 826 167 853 138.5 c 128,-1,72
 880 110 880 110 923 110 c 1,73,-1
 923 84 l 1,74,75
 862 84 862 84 822.5 119.5 c 128,-1,76
 783 155 783 155 783 210 c 0,77,78
 783 269 783 269 822.5 307 c 128,-1,79
 862 345 862 345 923 345 c 0,80,81
 985 345 985 345 1024.5 306 c 128,-1,82
 1064 267 1064 267 1064 208 c 0,83,84
 1064 170 1064 170 1046 139.5 c 128,-1,85
 1028 109 1028 109 996 92 c 128,-1,86
 964 75 964 75 923 75 c 0,87,88
 844 75 844 75 790.5 104 c 128,-1,89
 737 133 737 133 710.5 180.5 c 128,-1,90
 684 228 684 228 684 284 c 0,91,92
 684 356 684 356 717 411 c 128,-1,93
 750 466 750 466 809 497.5 c 128,-1,94
 868 529 868 529 945 529 c 0,95,96
 1018 529 1018 529 1074.5 496.5 c 128,-1,97
 1131 464 1131 464 1163 409 c 1,98,-1
 1163 513 l 1,99,-1
 1639 513 l 1,100,-1
 1644 478 l 1,101,-1
 1477 478 l 1,102,-1
 1477 90 l 1,103,-1
 1433 90 l 1,104,-1
 1433 478 l 1,105,-1
 1207 478 l 1,106,-1
 1207 90 l 1,107,-1
 1163 90 l 1,108,-1
 1163 268 l 2,109,110
 1163 332 1163 332 1135 381 c 128,-1,111
 1107 430 1107 430 1057.5 458.5 c 128,-1,112
 1008 487 1008 487 945 487 c 256,113,114
 882 487 882 487 833.5 460.5 c 128,-1,115
 785 434 785 434 758 388.5 c 128,-1,116
 731 343 731 343 731 284 c 0,57,58
EndSplineSet
EndChar

StartChar: uni0080
Encoding: 128 128 119
Width: 570
Flags: W
LayerCount: 2
Fore
SplineSet
40 288 m 0,0,1
 40 201 40 201 71.5 133 c 128,-1,2
 103 65 103 65 159 26 c 128,-1,3
 215 -13 215 -13 286 -13 c 256,4,5
 357 -13 357 -13 412 26 c 128,-1,6
 467 65 467 65 498.5 133.5 c 128,-1,7
 530 202 530 202 530 289 c 0,8,9
 530 373 530 373 498.5 438.5 c 128,-1,10
 467 504 467 504 412 541.5 c 128,-1,11
 357 579 357 579 286 579 c 256,12,13
 215 579 215 579 159 541.5 c 128,-1,14
 103 504 103 504 71.5 438.5 c 128,-1,15
 40 373 40 373 40 288 c 0,0,1
91 291 m 0,16,17
 91 363 91 363 116 418.5 c 128,-1,18
 141 474 141 474 185.5 506 c 128,-1,19
 230 538 230 538 286 538 c 256,20,21
 342 538 342 538 385.5 505.5 c 128,-1,22
 429 473 429 473 454 416 c 128,-1,23
 479 359 479 359 479 286 c 0,24,25
 479 211 479 211 454 152.5 c 128,-1,26
 429 94 429 94 385.5 61 c 128,-1,27
 342 28 342 28 286 28 c 256,28,29
 230 28 230 28 185.5 62 c 128,-1,30
 141 96 141 96 116 155.5 c 128,-1,31
 91 215 91 215 91 291 c 0,16,17
EndSplineSet
EndChar

StartChar: uni0081
Encoding: 129 129 120
Width: 300
Flags: W
LayerCount: 2
Fore
SplineSet
220 0 m 1,0,-1
 220 566 l 1,1,-1
 185 566 l 1,2,-1
 10 481 l 1,3,-1
 28 445 l 1,4,-1
 171 508 l 1,5,-1
 171 0 l 1,6,-1
 220 0 l 1,0,-1
EndSplineSet
EndChar

StartChar: uni0082
Encoding: 130 130 121
Width: 470
Flags: W
LayerCount: 2
Fore
SplineSet
219 579 m 0,0,1
 155 579 155 579 110.5 561.5 c 128,-1,2
 66 544 66 544 38 527 c 1,3,-1
 60 493 l 1,4,5
 78 503 78 503 100.5 513.5 c 128,-1,6
 123 524 123 524 152 531.5 c 128,-1,7
 181 539 181 539 217 539 c 0,8,9
 282 539 282 539 324.5 504.5 c 128,-1,10
 367 470 367 470 367 417 c 0,11,12
 367 385 367 385 356.5 358.5 c 128,-1,13
 346 332 346 332 320.5 304 c 128,-1,14
 295 276 295 276 250 238 c 2,15,-1
 25 50 l 1,16,-1
 25 0 l 1,17,-1
 450 0 l 1,18,-1
 442 39 l 1,19,-1
 75 39 l 1,20,-1
 270 196 l 2,21,22
 320 236 320 236 353 272.5 c 128,-1,23
 386 309 386 309 402.5 345 c 128,-1,24
 419 381 419 381 419 418 c 0,25,26
 419 465 419 465 393 501 c 128,-1,27
 367 537 367 537 322 558 c 128,-1,28
 277 579 277 579 219 579 c 0,0,1
EndSplineSet
EndChar

StartChar: uni0083
Encoding: 131 131 122
Width: 447
Flags: W
LayerCount: 2
Fore
SplineSet
205 579 m 0,0,1
 145 579 145 579 97.5 562 c 128,-1,2
 50 545 50 545 11 520 c 1,3,-1
 42 489 l 1,4,5
 66 505 66 505 107 521.5 c 128,-1,6
 148 538 148 538 202 538 c 0,7,8
 244 538 244 538 275 520 c 128,-1,9
 306 502 306 502 322.5 474 c 128,-1,10
 339 446 339 446 339 416 c 0,11,12
 339 359 339 359 291.5 322.5 c 128,-1,13
 244 286 244 286 160 286 c 2,14,-1
 126 286 l 1,15,-1
 136 247 l 1,16,-1
 154 247 l 2,17,18
 258 247 258 247 304.5 207.5 c 128,-1,19
 351 168 351 168 351 104 c 0,20,21
 351 64 351 64 328 32.5 c 128,-1,22
 305 1 305 1 269 -17 c 128,-1,23
 233 -35 233 -35 193 -35 c 0,24,25
 138 -35 138 -35 103 -23 c 128,-1,26
 68 -11 68 -11 33 10 c 1,27,-1
 0 -24 l 1,28,29
 34 -43 34 -43 84 -59.5 c 128,-1,30
 134 -76 134 -76 190 -76 c 0,31,32
 255 -76 255 -76 302.5 -52 c 128,-1,33
 350 -28 350 -28 376 13.5 c 128,-1,34
 402 55 402 55 402 106 c 0,35,36
 402 147 402 147 386 180.5 c 128,-1,37
 370 214 370 214 342 237 c 128,-1,38
 314 260 314 260 276 268 c 1,39,40
 308 278 308 278 333.5 299.5 c 128,-1,41
 359 321 359 321 374.5 351 c 128,-1,42
 390 381 390 381 390 417 c 0,43,44
 390 459 390 459 369.5 496 c 128,-1,45
 349 533 349 533 308 556 c 128,-1,46
 267 579 267 579 205 579 c 0,0,1
EndSplineSet
EndChar

StartChar: uni0084
Encoding: 132 132 123
Width: 512
Flags: W
LayerCount: 2
Fore
SplineSet
492 113 m 1,0,-1
 375 113 l 1,1,-1
 375 571 l 1,2,-1
 347 571 l 1,3,-1
 10 125 l 1,4,-1
 19 74 l 1,5,-1
 326 74 l 1,6,-1
 326 -69 l 1,7,-1
 375 -69 l 1,8,-1
 375 74 l 1,9,-1
 484 74 l 1,10,-1
 492 113 l 1,0,-1
326 470 m 1,11,-1
 326 113 l 1,12,-1
 60 113 l 1,13,-1
 326 470 l 1,11,-1
EndSplineSet
EndChar

StartChar: uni0085
Encoding: 133 133 124
Width: 491
Flags: W
LayerCount: 2
Fore
SplineSet
116 230 m 1,0,1
 136 252 136 252 171.5 270.5 c 128,-1,2
 207 289 207 289 247 289 c 0,3,4
 316 289 316 289 357.5 245.5 c 128,-1,5
 399 202 399 202 399 130 c 256,6,7
 399 58 399 58 353.5 11.5 c 128,-1,8
 308 -35 308 -35 224 -35 c 0,9,10
 178 -35 178 -35 138.5 -23 c 128,-1,11
 99 -11 99 -11 64 10 c 1,12,-1
 40 -26 l 1,13,14
 64 -38 64 -38 91.5 -49.5 c 128,-1,15
 119 -61 119 -61 151.5 -68.5 c 128,-1,16
 184 -76 184 -76 220 -76 c 0,17,18
 296 -76 296 -76 347 -47.5 c 128,-1,19
 398 -19 398 -19 424.5 28 c 128,-1,20
 451 75 451 75 451 130 c 0,21,22
 451 184 451 184 429.5 229.5 c 128,-1,23
 408 275 408 275 362.5 302.5 c 128,-1,24
 317 330 317 330 243 330 c 0,25,26
 218 330 218 330 187 319.5 c 128,-1,27
 156 309 156 309 129 289 c 1,28,-1
 140 527 l 1,29,-1
 409 527 l 1,30,-1
 412 566 l 1,31,-1
 95 566 l 1,32,-1
 80 230 l 1,33,-1
 116 230 l 1,0,1
EndSplineSet
EndChar

StartChar: uni0086
Encoding: 134 134 125
Width: 492
Flags: W
LayerCount: 2
Fore
SplineSet
65 285 m 1,0,-1
 82 248 l 1,1,2
 97 272 97 272 123 294.5 c 128,-1,3
 149 317 149 317 183 331.5 c 128,-1,4
 217 346 217 346 253 346 c 0,5,6
 300 346 300 346 333 324.5 c 128,-1,7
 366 303 366 303 383.5 266.5 c 128,-1,8
 401 230 401 230 401 185 c 0,9,10
 401 147 401 147 383.5 111 c 128,-1,11
 366 75 366 75 333 51.5 c 128,-1,12
 300 28 300 28 252 28 c 0,13,14
 199 28 199 28 162 56.5 c 128,-1,15
 125 85 125 85 106 139 c 128,-1,16
 87 193 87 193 87 270 c 0,17,18
 87 328 87 328 106 377 c 128,-1,19
 125 426 125 426 157 465.5 c 128,-1,20
 189 505 189 505 229 533 c 128,-1,21
 269 561 269 561 311.5 576.5 c 128,-1,22
 354 592 354 592 393 594 c 1,23,-1
 375 634 l 1,24,25
 327 628 327 628 279 609 c 128,-1,26
 231 590 231 590 188 558.5 c 128,-1,27
 145 527 145 527 111.5 483 c 128,-1,28
 78 439 78 439 59 383.5 c 128,-1,29
 40 328 40 328 40 260 c 0,30,31
 40 172 40 172 67 111 c 128,-1,32
 94 50 94 50 142.5 18.5 c 128,-1,33
 191 -13 191 -13 254 -13 c 0,34,35
 313 -13 313 -13 357.5 16 c 128,-1,36
 402 45 402 45 427 91.5 c 128,-1,37
 452 138 452 138 452 190 c 0,38,39
 452 241 452 241 429 286 c 128,-1,40
 406 331 406 331 361.5 359 c 128,-1,41
 317 387 317 387 253 387 c 0,42,43
 202 387 202 387 165.5 369 c 128,-1,44
 129 351 129 351 104.5 327.5 c 128,-1,45
 80 304 80 304 65 285 c 1,0,-1
EndSplineSet
EndChar

StartChar: uni0087
Encoding: 135 135 126
Width: 429
Flags: W
LayerCount: 2
Fore
SplineSet
169 -69 m 1,0,-1
 409 537 l 1,1,-1
 387 566 l 1,2,-1
 10 566 l 1,3,-1
 18 527 l 1,4,-1
 360 527 l 1,5,-1
 123 -49 l 1,6,-1
 169 -69 l 1,0,-1
EndSplineSet
EndChar

StartChar: uni0088
Encoding: 136 136 127
Width: 501
Flags: W
LayerCount: 2
Fore
SplineSet
251 643 m 0,0,1
 187 643 187 643 146.5 620 c 128,-1,2
 106 597 106 597 87 560 c 128,-1,3
 68 523 68 523 68 481 c 0,4,5
 68 431 68 431 99.5 394 c 128,-1,6
 131 357 131 357 177 339 c 1,7,8
 139 331 139 331 108 304 c 128,-1,9
 77 277 77 277 58.5 241 c 128,-1,10
 40 205 40 205 40 169 c 0,11,12
 40 119 40 119 63 77.5 c 128,-1,13
 86 36 86 36 133 11.5 c 128,-1,14
 180 -13 180 -13 251 -13 c 256,15,16
 322 -13 322 -13 368.5 12.5 c 128,-1,17
 415 38 415 38 438 79.5 c 128,-1,18
 461 121 461 121 461 169 c 0,19,20
 461 211 461 211 442 246.5 c 128,-1,21
 423 282 423 282 392 306.5 c 128,-1,22
 361 331 361 331 325 339 c 1,23,24
 352 351 352 351 376.5 371.5 c 128,-1,25
 401 392 401 392 417 419.5 c 128,-1,26
 433 447 433 447 433 481 c 0,27,28
 433 521 433 521 414.5 558 c 128,-1,29
 396 595 396 595 356 619 c 128,-1,30
 316 643 316 643 251 643 c 0,0,1
248 602 m 0,31,32
 318 602 318 602 351 566 c 128,-1,33
 384 530 384 530 384 484 c 0,34,35
 384 458 384 458 368 431.5 c 128,-1,36
 352 405 352 405 322.5 385.5 c 128,-1,37
 293 366 293 366 251 360 c 1,38,39
 187 369 187 369 152.5 405.5 c 128,-1,40
 118 442 118 442 118 484 c 0,41,42
 118 514 118 514 132 541 c 128,-1,43
 146 568 146 568 175 585 c 128,-1,44
 204 602 204 602 248 602 c 0,31,32
251 316 m 1,45,46
 330 306 330 306 370 262.5 c 128,-1,47
 410 219 410 219 410 162 c 0,48,49
 410 124 410 124 388.5 93.5 c 128,-1,50
 367 63 367 63 331 45.5 c 128,-1,51
 295 28 295 28 251 28 c 0,52,53
 206 28 206 28 169.5 45.5 c 128,-1,54
 133 63 133 63 112 93.5 c 128,-1,55
 91 124 91 124 91 162 c 0,56,57
 91 219 91 219 131 262.5 c 128,-1,58
 171 306 171 306 251 316 c 1,45,46
EndSplineSet
EndChar

StartChar: uni0089
Encoding: 137 137 128
Width: 492
Flags: W
LayerCount: 2
Fore
SplineSet
427 280 m 1,0,-1
 410 317 l 1,1,2
 396 294 396 294 369.5 271 c 128,-1,3
 343 248 343 248 309.5 233.5 c 128,-1,4
 276 219 276 219 239 219 c 0,5,6
 193 219 193 219 159.5 240.5 c 128,-1,7
 126 262 126 262 108.5 299 c 128,-1,8
 91 336 91 336 91 380 c 0,9,10
 91 418 91 418 108.5 454 c 128,-1,11
 126 490 126 490 159.5 513.5 c 128,-1,12
 193 537 193 537 240 537 c 0,13,14
 294 537 294 537 330.5 508.5 c 128,-1,15
 367 480 367 480 386 426 c 128,-1,16
 405 372 405 372 405 295 c 0,17,18
 405 237 405 237 386 188 c 128,-1,19
 367 139 367 139 335 99.5 c 128,-1,20
 303 60 303 60 263 32 c 128,-1,21
 223 4 223 4 180.5 -11.5 c 128,-1,22
 138 -27 138 -27 99 -29 c 1,23,-1
 117 -69 l 1,24,25
 165 -63 165 -63 213 -44 c 128,-1,26
 261 -25 261 -25 304 6.5 c 128,-1,27
 347 38 347 38 380.5 82 c 128,-1,28
 414 126 414 126 433 182 c 128,-1,29
 452 238 452 238 452 305 c 0,30,31
 452 394 452 394 425 454.5 c 128,-1,32
 398 515 398 515 350 546.5 c 128,-1,33
 302 578 302 578 238 578 c 0,34,35
 180 578 180 578 135 549 c 128,-1,36
 90 520 90 520 65 473.5 c 128,-1,37
 40 427 40 427 40 375 c 0,38,39
 40 325 40 325 63 279.5 c 128,-1,40
 86 234 86 234 130.5 206 c 128,-1,41
 175 178 175 178 239 178 c 0,42,43
 290 178 290 178 326.5 196 c 128,-1,44
 363 214 363 214 388 238 c 128,-1,45
 413 262 413 262 427 280 c 1,0,-1
EndSplineSet
EndChar

StartChar: uni008A
Encoding: 138 138 129
Width: 426
Flags: W
LayerCount: 2
Fore
SplineSet
70 0 m 1,0,-1
 416 0 l 1,1,-1
 410 39 l 1,2,-1
 148 39 l 1,3,4
 170 58 170 58 176 83.5 c 128,-1,5
 182 109 182 109 182 143 c 2,6,-1
 182 334 l 1,7,-1
 344 334 l 1,8,-1
 322 371 l 1,9,-1
 182 371 l 1,10,-1
 182 561 l 2,11,12
 182 597 182 597 197.5 620 c 128,-1,13
 213 643 213 643 251 643 c 0,14,15
 261 643 261 643 273.5 640 c 128,-1,16
 286 637 286 637 292 634 c 1,17,-1
 304 671 l 1,18,19
 298 674 298 674 287.5 677 c 128,-1,20
 277 680 277 680 264.5 682 c 128,-1,21
 252 684 252 684 238 684 c 0,22,23
 202 684 202 684 179 667 c 128,-1,24
 156 650 156 650 144.5 618.5 c 128,-1,25
 133 587 133 587 133 545 c 2,26,-1
 133 371 l 1,27,-1
 60 371 l 1,28,-1
 62 334 l 1,29,-1
 133 334 l 1,30,-1
 133 122 l 2,31,32
 133 86 133 86 118.5 63 c 128,-1,33
 104 40 104 40 68 39 c 1,34,-1
 70 0 l 1,0,-1
EndSplineSet
EndChar

StartChar: uni008B
Encoding: 139 139 130
Width: 426
Flags: W
LayerCount: 2
Fore
SplineSet
382 685 m 5,0,-1
 37 685 l 5,1,-1
 43 646 l 5,2,-1
 243 646 l 5,3,4
 221 627 221 627 215 601.5 c 132,-1,5
 209 576 209 576 209 542 c 6,6,-1
 209 124 l 6,7,8
 209 88 209 88 193.5 65 c 132,-1,9
 178 42 178 42 140 42 c 4,10,11
 130 42 130 42 117.5 45 c 132,-1,12
 105 48 105 48 99 51 c 5,13,-1
 87 14 l 5,14,15
 93 11 93 11 103.5 8 c 132,-1,16
 114 5 114 5 126.5 3 c 132,-1,17
 139 1 139 1 153 1 c 4,18,19
 189 1 189 1 212 18 c 132,-1,20
 235 35 235 35 246.5 66.5 c 132,-1,21
 258 98 258 98 258 140 c 6,22,-1
 258 563 l 6,23,24
 258 599 258 599 303 622 c 132,-1,25
 348 645 348 645 384 646 c 5,26,-1
 382 685 l 5,0,-1
EndSplineSet
EndChar

StartChar: uni008C
Encoding: 140 140 131
Width: 707
Flags: W
LayerCount: 2
Fore
SplineSet
439 209 m 1,0,-1
 405 176 l 1,1,-1
 618 -24 l 1,2,-1
 650 1 l 1,3,-1
 439 209 l 1,0,-1
357 696 m 0,4,5
 268 696 268 696 198.5 649.5 c 128,-1,6
 129 603 129 603 89.5 522 c 128,-1,7
 50 441 50 441 50 337 c 0,8,9
 50 235 50 235 89 155.5 c 128,-1,10
 128 76 128 76 196 31 c 128,-1,11
 264 -14 264 -14 351 -14 c 0,12,13
 440 -14 440 -14 509 32.5 c 128,-1,14
 578 79 578 79 617.5 160 c 128,-1,15
 657 241 657 241 657 345 c 0,16,17
 657 447 657 447 618.5 526.5 c 128,-1,18
 580 606 580 606 512 651 c 128,-1,19
 444 696 444 696 357 696 c 0,4,5
105 338 m 0,20,21
 105 430 105 430 137.5 501 c 128,-1,22
 170 572 170 572 227.5 613 c 128,-1,23
 285 654 285 654 358 654 c 0,24,25
 429 654 429 654 484 614 c 128,-1,26
 539 574 539 574 570.5 504 c 128,-1,27
 602 434 602 434 602 344 c 0,28,29
 602 252 602 252 569.5 180.5 c 128,-1,30
 537 109 537 109 480 68 c 128,-1,31
 423 27 423 27 349 27 c 0,32,33
 278 27 278 27 223 67 c 128,-1,34
 168 107 168 107 136.5 177.5 c 128,-1,35
 105 248 105 248 105 338 c 0,20,21
EndSplineSet
EndChar

StartChar: uni008D
Encoding: 141 141 132
Width: 812
Flags: W
LayerCount: 2
Fore
SplineSet
802 679 m 1,0,-1
 625 -1 l 1,1,-1
 579 -1 l 1,2,-1
 407 593 l 1,3,-1
 255 -1 l 1,4,-1
 209 -1 l 1,5,-1
 10 674 l 1,6,-1
 60 685 l 1,7,-1
 231 79 l 1,8,-1
 383 679 l 1,9,-1
 432 679 l 1,10,-1
 601 79 l 1,11,-1
 753 679 l 1,12,-1
 802 679 l 1,0,-1
EndSplineSet
EndChar

StartChar: uni008E
Encoding: 142 142 133
Width: 523
Flags: W
LayerCount: 2
Fore
SplineSet
68 0 m 1,0,-1
 261 311 l 1,1,-1
 454 0 l 1,2,-1
 513 0 l 1,3,-1
 298 337 l 1,4,-1
 513 680 l 1,5,-1
 459 680 l 1,6,-1
 271 379 l 1,7,-1
 86 691 l 1,8,-1
 38 668 l 1,9,-1
 237 350 l 1,10,-1
 10 0 l 1,11,-1
 68 0 l 1,0,-1
EndSplineSet
EndChar

StartChar: uni008F
Encoding: 143 143 134
Width: 463
Flags: W
LayerCount: 2
Fore
SplineSet
378 364 m 1,0,-1
 149 364 l 1,1,-1
 149 641 l 1,2,-1
 443 641 l 1,3,-1
 436 680 l 1,4,-1
 100 680 l 1,5,-1
 100 0 l 1,6,-1
 149 0 l 1,7,-1
 149 325 l 1,8,-1
 384 325 l 1,9,-1
 378 364 l 1,0,-1
EndSplineSet
EndChar

StartChar: uni0090
Encoding: 144 144 135
Width: 501
VWidth: 2048
Flags: W
LayerCount: 2
Fore
SplineSet
400.938476562 33.4404296875 m 4,0,1
 455.594726562 4.328125 455.594726562 4.328125 455.594726562 -38.3466796875 c 132,-1,2
 455.594726562 -81.021484375 455.594726562 -81.021484375 400.938476562 -110.134765625 c 4,3,4
 345.379882812 -140.568359375 345.379882812 -140.568359375 257.75 -140.568359375 c 132,-1,5
 170.122070312 -140.568359375 170.122070312 -140.568359375 114.5625 -111.45703125 c 4,6,7
 59.9072265625 -81.021484375 59.9072265625 -81.021484375 58.5498046875 -38.0146484375 c 4,8,9
 58.5498046875 4.328125 58.5498046875 4.328125 114.5625 33.4404296875 c 4,10,11
 169.217773438 63.875 169.217773438 63.875 257.75 63.875 c 4,12,13
 345.379882812 63.875 345.379882812 63.875 400.938476562 33.4404296875 c 4,0,1
399.583007812 -39.3388671875 m 4,14,15
 400.034179688 -18.166015625 400.034179688 -18.166015625 363.8984375 -4.2734375 c 4,16,17
 327.763671875 10.943359375 327.763671875 10.943359375 264.977539062 10.943359375 c 4,18,19
 194.96484375 9.6220703125 194.96484375 9.6220703125 164.25 -4.2734375 c 4,20,21
 129.015625 -19.490234375 129.015625 -19.490234375 128.565429688 -39.3388671875 c 4,22,23
 129.015625 -61.1728515625 129.015625 -61.1728515625 164.25 -75.06640625 c 4,24,25
 201.740234375 -90.2841796875 201.740234375 -90.2841796875 264.977539062 -90.2841796875 c 4,26,27
 322.34375 -89.623046875 322.34375 -89.623046875 363.8984375 -75.06640625 c 4,28,29
 400.034179688 -62.4951171875 400.034179688 -62.4951171875 399.583007812 -39.3388671875 c 4,14,15
400.938476562 284.197265625 m 4,30,31
 455.594726562 255.086914062 455.594726562 255.086914062 455.594726562 212.41015625 c 132,-1,32
 455.594726562 169.734375 455.594726562 169.734375 400.938476562 140.625 c 4,33,34
 345.379882812 110.189453125 345.379882812 110.189453125 257.75 110.189453125 c 132,-1,35
 170.122070312 110.189453125 170.122070312 110.189453125 114.5625 139.30078125 c 4,36,37
 59.9072265625 169.734375 59.9072265625 169.734375 58.5498046875 212.080078125 c 4,38,39
 58.5498046875 255.086914062 58.5498046875 255.086914062 114.5625 284.197265625 c 4,40,41
 169.217773438 313.971679688 169.217773438 313.971679688 257.75 313.971679688 c 4,42,43
 345.379882812 313.971679688 345.379882812 313.971679688 400.938476562 284.197265625 c 4,30,31
399.583007812 210.755859375 m 4,44,45
 400.034179688 232.588867188 400.034179688 232.588867188 363.8984375 246.484375 c 4,46,47
 327.763671875 261.702148438 327.763671875 261.702148438 264.977539062 261.702148438 c 4,48,49
 194.96484375 260.379882812 194.96484375 260.379882812 164.25 246.484375 c 4,50,51
 129.015625 231.267578125 129.015625 231.267578125 128.565429688 210.755859375 c 4,52,53
 129.015625 189.583984375 129.015625 189.583984375 164.25 175.029296875 c 4,54,55
 201.740234375 160.47265625 201.740234375 160.47265625 264.977539062 160.47265625 c 4,56,57
 322.34375 160.47265625 322.34375 160.47265625 363.8984375 175.029296875 c 4,58,59
 400.034179688 188.260742188 400.034179688 188.260742188 399.583007812 210.755859375 c 4,44,45
400.938476562 533.630859375 m 4,60,61
 455.594726562 504.521484375 455.594726562 504.521484375 455.594726562 461.514648438 c 132,-1,62
 455.594726562 418.508789062 455.594726562 418.508789062 400.938476562 390.057617188 c 4,63,64
 345.379882812 359.622070312 345.379882812 359.622070312 257.75 359.622070312 c 132,-1,65
 170.122070312 359.622070312 170.122070312 359.622070312 114.5625 388.734375 c 4,66,67
 59.9072265625 418.508789062 59.9072265625 418.508789062 58.5498046875 461.514648438 c 4,68,69
 58.5498046875 504.521484375 58.5498046875 504.521484375 114.5625 533.630859375 c 4,70,71
 169.217773438 563.403320312 169.217773438 563.403320312 257.75 563.403320312 c 4,72,73
 345.379882812 563.403320312 345.379882812 563.403320312 400.938476562 533.630859375 c 4,60,61
399.583007812 460.190429688 m 4,74,75
 400.034179688 482.0234375 400.034179688 482.0234375 363.8984375 495.918945312 c 4,76,77
 327.763671875 510.474609375 327.763671875 510.474609375 264.977539062 511.135742188 c 4,78,79
 194.96484375 509.151367188 194.96484375 509.151367188 164.25 495.918945312 c 4,80,81
 129.015625 480.701171875 129.015625 480.701171875 128.565429688 460.190429688 c 4,82,83
 129.015625 439.018554688 129.015625 439.018554688 164.25 424.462890625 c 4,84,85
 201.740234375 409.90625 201.740234375 409.90625 264.977539062 409.90625 c 4,86,87
 322.34375 409.90625 322.34375 409.90625 363.8984375 424.462890625 c 4,88,89
 400.034179688 437.694335938 400.034179688 437.694335938 399.583007812 460.190429688 c 4,74,75
400.938476562 783.728515625 m 4,90,91
 455.594726562 755.276367188 455.594726562 755.276367188 455.594726562 712.270507812 c 132,-1,92
 455.594726562 669.265625 455.594726562 669.265625 400.938476562 640.154296875 c 4,93,94
 345.379882812 610.379882812 345.379882812 610.379882812 257.75 610.379882812 c 132,-1,95
 170.122070312 610.379882812 170.122070312 610.379882812 114.5625 639.493164062 c 4,96,97
 59.9072265625 669.265625 59.9072265625 669.265625 58.5498046875 712.270507812 c 4,98,99
 58.5498046875 755.276367188 58.5498046875 755.276367188 114.5625 783.728515625 c 4,100,101
 169.217773438 814.162109375 169.217773438 814.162109375 257.75 814.162109375 c 4,102,103
 345.379882812 814.162109375 345.379882812 814.162109375 400.938476562 783.728515625 c 4,90,91
399.583007812 710.94921875 m 4,104,105
 400.034179688 732.119140625 400.034179688 732.119140625 363.8984375 746.674804688 c 260,106,107
 327.763671875 761.233398438 327.763671875 761.233398438 264.977539062 761.233398438 c 4,108,109
 194.96484375 759.91015625 194.96484375 759.91015625 164.25 746.674804688 c 4,110,111
 129.015625 730.797851562 129.015625 730.797851562 128.565429688 710.94921875 c 4,112,113
 129.015625 689.776367188 129.015625 689.776367188 164.25 675.219726562 c 4,114,115
 201.740234375 660.001953125 201.740234375 660.001953125 264.977539062 660.001953125 c 4,116,117
 322.34375 660.665039062 322.34375 660.665039062 363.8984375 675.219726562 c 4,118,119
 400.034179688 688.453125 400.034179688 688.453125 399.583007812 710.94921875 c 4,104,105
EndSplineSet
EndChar

StartChar: uni0091
Encoding: 145 145 136
Width: 501
VWidth: 2048
Flags: W
LayerCount: 2
Fore
SplineSet
400.938476562 33.4404296875 m 0,0,1
 455.594726562 4.328125 455.594726562 4.328125 455.594726562 -38.3466796875 c 128,-1,2
 455.594726562 -81.021484375 455.594726562 -81.021484375 400.938476562 -110.134765625 c 0,3,4
 345.379882812 -140.568359375 345.379882812 -140.568359375 257.75 -140.568359375 c 128,-1,5
 170.122070312 -140.568359375 170.122070312 -140.568359375 114.5625 -111.45703125 c 0,6,7
 59.9072265625 -81.021484375 59.9072265625 -81.021484375 58.5498046875 -38.0146484375 c 0,8,9
 58.5498046875 4.328125 58.5498046875 4.328125 114.5625 33.4404296875 c 0,10,11
 169.217773438 63.875 169.217773438 63.875 257.75 63.875 c 0,12,13
 345.379882812 63.875 345.379882812 63.875 400.938476562 33.4404296875 c 0,0,1
400.938476562 284.197265625 m 0,14,15
 455.594726562 255.086914062 455.594726562 255.086914062 455.594726562 212.41015625 c 128,-1,16
 455.594726562 169.734375 455.594726562 169.734375 400.938476562 140.625 c 0,17,18
 345.379882812 110.189453125 345.379882812 110.189453125 257.75 110.189453125 c 128,-1,19
 170.122070312 110.189453125 170.122070312 110.189453125 114.5625 139.30078125 c 0,20,21
 59.9072265625 169.734375 59.9072265625 169.734375 58.5498046875 212.080078125 c 0,22,23
 58.5498046875 255.086914062 58.5498046875 255.086914062 114.5625 284.197265625 c 0,24,25
 169.217773438 313.971679688 169.217773438 313.971679688 257.75 313.971679688 c 0,26,27
 345.379882812 313.971679688 345.379882812 313.971679688 400.938476562 284.197265625 c 0,14,15
399.583007812 210.755859375 m 0,28,29
 400.034179688 232.588867188 400.034179688 232.588867188 363.8984375 246.484375 c 0,30,31
 327.763671875 261.702148438 327.763671875 261.702148438 264.977539062 261.702148438 c 0,32,33
 194.96484375 260.379882812 194.96484375 260.379882812 164.25 246.484375 c 0,34,35
 129.015625 231.267578125 129.015625 231.267578125 128.565429688 210.755859375 c 0,36,37
 129.015625 189.583984375 129.015625 189.583984375 164.25 175.029296875 c 0,38,39
 201.740234375 160.47265625 201.740234375 160.47265625 264.977539062 160.47265625 c 0,40,41
 322.34375 160.47265625 322.34375 160.47265625 363.8984375 175.029296875 c 0,42,43
 400.034179688 188.260742188 400.034179688 188.260742188 399.583007812 210.755859375 c 0,28,29
400.938476562 533.630859375 m 0,44,45
 455.594726562 504.521484375 455.594726562 504.521484375 455.594726562 461.514648438 c 128,-1,46
 455.594726562 418.508789062 455.594726562 418.508789062 400.938476562 390.057617188 c 0,47,48
 345.379882812 359.622070312 345.379882812 359.622070312 257.75 359.622070312 c 128,-1,49
 170.122070312 359.622070312 170.122070312 359.622070312 114.5625 388.734375 c 0,50,51
 59.9072265625 418.508789062 59.9072265625 418.508789062 58.5498046875 461.514648438 c 0,52,53
 58.5498046875 504.521484375 58.5498046875 504.521484375 114.5625 533.630859375 c 0,54,55
 169.217773438 563.403320312 169.217773438 563.403320312 257.75 563.403320312 c 0,56,57
 345.379882812 563.403320312 345.379882812 563.403320312 400.938476562 533.630859375 c 0,44,45
399.583007812 460.190429688 m 0,58,59
 400.034179688 482.0234375 400.034179688 482.0234375 363.8984375 495.918945312 c 0,60,61
 327.763671875 510.474609375 327.763671875 510.474609375 264.977539062 511.135742188 c 0,62,63
 194.96484375 509.151367188 194.96484375 509.151367188 164.25 495.918945312 c 0,64,65
 129.015625 480.701171875 129.015625 480.701171875 128.565429688 460.190429688 c 0,66,67
 129.015625 439.018554688 129.015625 439.018554688 164.25 424.462890625 c 0,68,69
 201.740234375 409.90625 201.740234375 409.90625 264.977539062 409.90625 c 0,70,71
 322.34375 409.90625 322.34375 409.90625 363.8984375 424.462890625 c 0,72,73
 400.034179688 437.694335938 400.034179688 437.694335938 399.583007812 460.190429688 c 0,58,59
400.938476562 783.728515625 m 0,74,75
 455.594726562 755.276367188 455.594726562 755.276367188 455.594726562 712.270507812 c 128,-1,76
 455.594726562 669.265625 455.594726562 669.265625 400.938476562 640.154296875 c 0,77,78
 345.379882812 610.379882812 345.379882812 610.379882812 257.75 610.379882812 c 128,-1,79
 170.122070312 610.379882812 170.122070312 610.379882812 114.5625 639.493164062 c 0,80,81
 59.9072265625 669.265625 59.9072265625 669.265625 58.5498046875 712.270507812 c 0,82,83
 58.5498046875 755.276367188 58.5498046875 755.276367188 114.5625 783.728515625 c 0,84,85
 169.217773438 814.162109375 169.217773438 814.162109375 257.75 814.162109375 c 0,86,87
 345.379882812 814.162109375 345.379882812 814.162109375 400.938476562 783.728515625 c 0,74,75
399.583007812 710.94921875 m 0,88,89
 400.034179688 732.119140625 400.034179688 732.119140625 363.8984375 746.674804688 c 256,90,91
 327.763671875 761.233398438 327.763671875 761.233398438 264.977539062 761.233398438 c 0,92,93
 194.96484375 759.91015625 194.96484375 759.91015625 164.25 746.674804688 c 0,94,95
 129.015625 730.797851562 129.015625 730.797851562 128.565429688 710.94921875 c 0,96,97
 129.015625 689.776367188 129.015625 689.776367188 164.25 675.219726562 c 0,98,99
 201.740234375 660.001953125 201.740234375 660.001953125 264.977539062 660.001953125 c 0,100,101
 322.34375 660.665039062 322.34375 660.665039062 363.8984375 675.219726562 c 0,102,103
 400.034179688 688.453125 400.034179688 688.453125 399.583007812 710.94921875 c 0,88,89
EndSplineSet
EndChar

StartChar: uni0092
Encoding: 146 146 137
Width: 501
VWidth: 2048
Flags: W
LayerCount: 2
Fore
SplineSet
400.938476562 33.4404296875 m 0,0,1
 455.594726562 4.328125 455.594726562 4.328125 455.594726562 -38.3466796875 c 128,-1,2
 455.594726562 -81.021484375 455.594726562 -81.021484375 400.938476562 -110.134765625 c 0,3,4
 345.379882812 -140.568359375 345.379882812 -140.568359375 257.75 -140.568359375 c 128,-1,5
 170.122070312 -140.568359375 170.122070312 -140.568359375 114.5625 -111.45703125 c 0,6,7
 59.9072265625 -81.021484375 59.9072265625 -81.021484375 58.5498046875 -38.0146484375 c 0,8,9
 58.5498046875 4.328125 58.5498046875 4.328125 114.5625 33.4404296875 c 0,10,11
 169.217773438 63.875 169.217773438 63.875 257.75 63.875 c 0,12,13
 345.379882812 63.875 345.379882812 63.875 400.938476562 33.4404296875 c 0,0,1
399.583007812 -39.3388671875 m 0,14,15
 400.034179688 -18.166015625 400.034179688 -18.166015625 363.8984375 -4.2734375 c 0,16,17
 327.763671875 10.943359375 327.763671875 10.943359375 264.977539062 10.943359375 c 0,18,19
 194.96484375 9.6220703125 194.96484375 9.6220703125 164.25 -4.2734375 c 0,20,21
 129.015625 -19.490234375 129.015625 -19.490234375 128.565429688 -39.3388671875 c 0,22,23
 129.015625 -61.1728515625 129.015625 -61.1728515625 164.25 -75.06640625 c 0,24,25
 201.740234375 -90.2841796875 201.740234375 -90.2841796875 264.977539062 -90.2841796875 c 0,26,27
 322.34375 -89.623046875 322.34375 -89.623046875 363.8984375 -75.06640625 c 0,28,29
 400.034179688 -62.4951171875 400.034179688 -62.4951171875 399.583007812 -39.3388671875 c 0,14,15
400.938476562 284.197265625 m 0,30,31
 455.594726562 255.086914062 455.594726562 255.086914062 455.594726562 212.41015625 c 128,-1,32
 455.594726562 169.734375 455.594726562 169.734375 400.938476562 140.625 c 0,33,34
 345.379882812 110.189453125 345.379882812 110.189453125 257.75 110.189453125 c 128,-1,35
 170.122070312 110.189453125 170.122070312 110.189453125 114.5625 139.30078125 c 0,36,37
 59.9072265625 169.734375 59.9072265625 169.734375 58.5498046875 212.080078125 c 0,38,39
 58.5498046875 255.086914062 58.5498046875 255.086914062 114.5625 284.197265625 c 0,40,41
 169.217773438 313.971679688 169.217773438 313.971679688 257.75 313.971679688 c 0,42,43
 345.379882812 313.971679688 345.379882812 313.971679688 400.938476562 284.197265625 c 0,30,31
400.938476562 533.630859375 m 0,44,45
 455.594726562 504.521484375 455.594726562 504.521484375 455.594726562 461.514648438 c 128,-1,46
 455.594726562 418.508789062 455.594726562 418.508789062 400.938476562 390.057617188 c 0,47,48
 345.379882812 359.622070312 345.379882812 359.622070312 257.75 359.622070312 c 128,-1,49
 170.122070312 359.622070312 170.122070312 359.622070312 114.5625 388.734375 c 0,50,51
 59.9072265625 418.508789062 59.9072265625 418.508789062 58.5498046875 461.514648438 c 0,52,53
 58.5498046875 504.521484375 58.5498046875 504.521484375 114.5625 533.630859375 c 0,54,55
 169.217773438 563.403320312 169.217773438 563.403320312 257.75 563.403320312 c 0,56,57
 345.379882812 563.403320312 345.379882812 563.403320312 400.938476562 533.630859375 c 0,44,45
399.583007812 460.190429688 m 0,58,59
 400.034179688 482.0234375 400.034179688 482.0234375 363.8984375 495.918945312 c 0,60,61
 327.763671875 510.474609375 327.763671875 510.474609375 264.977539062 511.135742188 c 0,62,63
 194.96484375 509.151367188 194.96484375 509.151367188 164.25 495.918945312 c 0,64,65
 129.015625 480.701171875 129.015625 480.701171875 128.565429688 460.190429688 c 0,66,67
 129.015625 439.018554688 129.015625 439.018554688 164.25 424.462890625 c 0,68,69
 201.740234375 409.90625 201.740234375 409.90625 264.977539062 409.90625 c 0,70,71
 322.34375 409.90625 322.34375 409.90625 363.8984375 424.462890625 c 0,72,73
 400.034179688 437.694335938 400.034179688 437.694335938 399.583007812 460.190429688 c 0,58,59
400.938476562 783.728515625 m 0,74,75
 455.594726562 755.276367188 455.594726562 755.276367188 455.594726562 712.270507812 c 128,-1,76
 455.594726562 669.265625 455.594726562 669.265625 400.938476562 640.154296875 c 0,77,78
 345.379882812 610.379882812 345.379882812 610.379882812 257.75 610.379882812 c 128,-1,79
 170.122070312 610.379882812 170.122070312 610.379882812 114.5625 639.493164062 c 0,80,81
 59.9072265625 669.265625 59.9072265625 669.265625 58.5498046875 712.270507812 c 0,82,83
 58.5498046875 755.276367188 58.5498046875 755.276367188 114.5625 783.728515625 c 0,84,85
 169.217773438 814.162109375 169.217773438 814.162109375 257.75 814.162109375 c 0,86,87
 345.379882812 814.162109375 345.379882812 814.162109375 400.938476562 783.728515625 c 0,74,75
399.583007812 710.94921875 m 0,88,89
 400.034179688 732.119140625 400.034179688 732.119140625 363.8984375 746.674804688 c 256,90,91
 327.763671875 761.233398438 327.763671875 761.233398438 264.977539062 761.233398438 c 0,92,93
 194.96484375 759.91015625 194.96484375 759.91015625 164.25 746.674804688 c 0,94,95
 129.015625 730.797851562 129.015625 730.797851562 128.565429688 710.94921875 c 0,96,97
 129.015625 689.776367188 129.015625 689.776367188 164.25 675.219726562 c 0,98,99
 201.740234375 660.001953125 201.740234375 660.001953125 264.977539062 660.001953125 c 0,100,101
 322.34375 660.665039062 322.34375 660.665039062 363.8984375 675.219726562 c 0,102,103
 400.034179688 688.453125 400.034179688 688.453125 399.583007812 710.94921875 c 0,88,89
EndSplineSet
EndChar

StartChar: uni0093
Encoding: 147 147 138
Width: 501
VWidth: 2048
Flags: W
LayerCount: 2
Fore
SplineSet
400.938476562 33.4404296875 m 0,0,1
 455.594726562 4.328125 455.594726562 4.328125 455.594726562 -38.3466796875 c 128,-1,2
 455.594726562 -81.021484375 455.594726562 -81.021484375 400.938476562 -110.134765625 c 0,3,4
 345.379882812 -140.568359375 345.379882812 -140.568359375 257.75 -140.568359375 c 128,-1,5
 170.122070312 -140.568359375 170.122070312 -140.568359375 114.5625 -111.45703125 c 0,6,7
 59.9072265625 -81.021484375 59.9072265625 -81.021484375 58.5498046875 -38.0146484375 c 0,8,9
 58.5498046875 4.328125 58.5498046875 4.328125 114.5625 33.4404296875 c 0,10,11
 169.217773438 63.875 169.217773438 63.875 257.75 63.875 c 0,12,13
 345.379882812 63.875 345.379882812 63.875 400.938476562 33.4404296875 c 0,0,1
400.938476562 284.197265625 m 0,14,15
 455.594726562 255.086914062 455.594726562 255.086914062 455.594726562 212.41015625 c 128,-1,16
 455.594726562 169.734375 455.594726562 169.734375 400.938476562 140.625 c 0,17,18
 345.379882812 110.189453125 345.379882812 110.189453125 257.75 110.189453125 c 128,-1,19
 170.122070312 110.189453125 170.122070312 110.189453125 114.5625 139.30078125 c 0,20,21
 59.9072265625 169.734375 59.9072265625 169.734375 58.5498046875 212.080078125 c 0,22,23
 58.5498046875 255.086914062 58.5498046875 255.086914062 114.5625 284.197265625 c 0,24,25
 169.217773438 313.971679688 169.217773438 313.971679688 257.75 313.971679688 c 0,26,27
 345.379882812 313.971679688 345.379882812 313.971679688 400.938476562 284.197265625 c 0,14,15
400.938476562 533.630859375 m 0,28,29
 455.594726562 504.521484375 455.594726562 504.521484375 455.594726562 461.514648438 c 128,-1,30
 455.594726562 418.508789062 455.594726562 418.508789062 400.938476562 390.057617188 c 0,31,32
 345.379882812 359.622070312 345.379882812 359.622070312 257.75 359.622070312 c 128,-1,33
 170.122070312 359.622070312 170.122070312 359.622070312 114.5625 388.734375 c 0,34,35
 59.9072265625 418.508789062 59.9072265625 418.508789062 58.5498046875 461.514648438 c 0,36,37
 58.5498046875 504.521484375 58.5498046875 504.521484375 114.5625 533.630859375 c 0,38,39
 169.217773438 563.403320312 169.217773438 563.403320312 257.75 563.403320312 c 0,40,41
 345.379882812 563.403320312 345.379882812 563.403320312 400.938476562 533.630859375 c 0,28,29
399.583007812 460.190429688 m 0,42,43
 400.034179688 482.0234375 400.034179688 482.0234375 363.8984375 495.918945312 c 0,44,45
 327.763671875 510.474609375 327.763671875 510.474609375 264.977539062 511.135742188 c 0,46,47
 194.96484375 509.151367188 194.96484375 509.151367188 164.25 495.918945312 c 0,48,49
 129.015625 480.701171875 129.015625 480.701171875 128.565429688 460.190429688 c 0,50,51
 129.015625 439.018554688 129.015625 439.018554688 164.25 424.462890625 c 0,52,53
 201.740234375 409.90625 201.740234375 409.90625 264.977539062 409.90625 c 0,54,55
 322.34375 409.90625 322.34375 409.90625 363.8984375 424.462890625 c 0,56,57
 400.034179688 437.694335938 400.034179688 437.694335938 399.583007812 460.190429688 c 0,42,43
400.938476562 783.728515625 m 0,58,59
 455.594726562 755.276367188 455.594726562 755.276367188 455.594726562 712.270507812 c 128,-1,60
 455.594726562 669.265625 455.594726562 669.265625 400.938476562 640.154296875 c 0,61,62
 345.379882812 610.379882812 345.379882812 610.379882812 257.75 610.379882812 c 128,-1,63
 170.122070312 610.379882812 170.122070312 610.379882812 114.5625 639.493164062 c 0,64,65
 59.9072265625 669.265625 59.9072265625 669.265625 58.5498046875 712.270507812 c 0,66,67
 58.5498046875 755.276367188 58.5498046875 755.276367188 114.5625 783.728515625 c 0,68,69
 169.217773438 814.162109375 169.217773438 814.162109375 257.75 814.162109375 c 0,70,71
 345.379882812 814.162109375 345.379882812 814.162109375 400.938476562 783.728515625 c 0,58,59
399.583007812 710.94921875 m 0,72,73
 400.034179688 732.119140625 400.034179688 732.119140625 363.8984375 746.674804688 c 256,74,75
 327.763671875 761.233398438 327.763671875 761.233398438 264.977539062 761.233398438 c 0,76,77
 194.96484375 759.91015625 194.96484375 759.91015625 164.25 746.674804688 c 0,78,79
 129.015625 730.797851562 129.015625 730.797851562 128.565429688 710.94921875 c 0,80,81
 129.015625 689.776367188 129.015625 689.776367188 164.25 675.219726562 c 0,82,83
 201.740234375 660.001953125 201.740234375 660.001953125 264.977539062 660.001953125 c 0,84,85
 322.34375 660.665039062 322.34375 660.665039062 363.8984375 675.219726562 c 0,86,87
 400.034179688 688.453125 400.034179688 688.453125 399.583007812 710.94921875 c 0,72,73
EndSplineSet
EndChar

